<svg width="128" height="128" viewBox="0 0 128 128" fill="none" xmlns="http://www.w3.org/2000/svg">
<path fill-rule="evenodd" clip-rule="evenodd" d="M5 63.5C5 55.4919 11.4919 49 19.5 49H108.571C116.58 49 123.071 55.4919 123.071 63.5C123.071 71.5081 116.58 78 108.571 78H19.5C11.4919 78 5 71.5081 5 63.5ZM22.4997 57.7157C21.3331 57.9682 20.9164 58.5573 17.8749 64.126C16.3333 66.9314 14.9861 69.4142 14.875 69.6386L14.6667 70.0454L15.4444 70.0033L16.2361 69.9612L17.4305 67.7871L18.6388 65.6129L21.5275 65.5708L24.4024 65.5427V67.7871V70.0314H25.1107H25.8051L25.7635 64.7993C25.7218 59.7216 25.7079 59.5673 25.4163 58.9922C24.8191 57.87 23.8052 57.4211 22.4997 57.7157ZM23.708 59.1605C24.2913 59.4691 24.4302 60.1003 24.3746 62.3165L24.333 64.2102L21.9442 64.2523C20.1665 64.2803 19.5415 64.2382 19.5415 64.126C19.5415 63.8735 21.7358 59.9179 22.0831 59.5252C22.6247 58.9501 23.0969 58.8379 23.708 59.1605ZM27.444 59.7917C28.0273 58.6415 28.8328 57.9963 30.055 57.6877C31.1938 57.4071 32.6243 57.7718 33.5271 58.5854C34.4159 59.3709 34.8187 60.2967 34.8187 61.5591C34.8187 63.2143 34.0826 64.3645 32.5271 65.1079L31.7355 65.5007L34.3465 67.5907C35.0522 68.1582 35.7208 68.6915 36.2304 69.0981L36.2313 69.0988L36.2318 69.0992L36.2325 69.0997C36.7547 69.5163 37.1096 69.7994 37.1658 69.8491C37.3464 69.9893 37.1936 70.0174 36.3325 70.0314H35.2909L31.8882 67.3523L28.4995 64.6591L28.4578 67.3523L28.43 70.0314H27.7217H27.0273L27.069 65.2202L27.0693 65.1882V65.1882C27.1107 60.4927 27.1114 60.4075 27.444 59.7917ZM33.166 60.3809C32.8465 59.7356 32.5271 59.4411 31.8605 59.1605C30.2216 58.4732 28.43 59.7076 28.43 61.5311C28.43 63.074 29.4578 64.1401 30.9299 64.1401C31.7216 64.1401 32.2216 63.9297 32.7632 63.3406C33.4715 62.5831 33.6521 61.3347 33.166 60.3809ZM53.0541 57.7578C49.9153 58.4451 47.7626 61.6433 48.2765 64.8414C48.7904 68.0255 51.4708 70.1717 54.9568 70.1717C56.7206 70.1717 58.1927 69.6667 59.2621 68.6708C59.776 68.2079 59.8177 68.1237 59.8177 67.4084V66.6509L59.1649 67.1979C57.7761 68.3622 56.29 68.8531 54.4568 68.7269C53.1652 68.6568 51.9152 68.1658 51.0541 67.3943C50.4014 66.8192 49.8181 65.7111 49.7209 64.8414L49.6375 64.1401H54.9429H60.2343V63.579C60.2343 62.036 59.5538 60.3528 58.4983 59.2867C57.6372 58.4171 56.9011 58.0103 55.6651 57.7438C54.554 57.5053 54.179 57.5193 53.0541 57.7578ZM55.554 59.1605C56.9706 59.5252 57.8039 60.2546 58.415 61.6152C58.5677 61.9659 58.7066 62.3867 58.7066 62.555V62.8776H54.2068H49.6931L49.8042 62.4849C50.2486 60.9139 51.7625 59.4831 53.3874 59.1044C54.179 58.922 54.679 58.922 55.554 59.1605ZM71.1783 59.3429C72.0671 58.4872 72.9837 57.9823 74.1226 57.7438C75.1503 57.5194 75.5531 57.5194 76.6642 57.7578C79.2196 58.3049 81.0251 60.4229 81.1779 63.046L81.2473 64.1401H76.0114C71.5116 64.1401 70.7894 64.1681 70.7894 64.3505C70.7894 64.4627 71.581 65.4165 72.5671 66.4545C73.5393 67.5066 74.6642 68.7409 75.0809 69.2038L75.8309 70.0314H74.9281H74.0254L71.9838 67.9133C69.6783 65.5288 69.2617 64.8835 69.2617 63.565C69.2617 61.9659 69.8867 60.5772 71.1783 59.3429ZM79.7335 62.4849C79.4279 61.0962 78.2891 59.7216 77.0669 59.3008C74.6504 58.4732 72.1782 59.5112 71.0672 61.8256C71.0344 61.8936 71.0025 61.9572 70.9726 62.0167C70.839 62.2831 70.7466 62.4675 70.7973 62.5949C70.9111 62.8812 71.7469 62.8805 74.4602 62.8781C74.7231 62.8779 75.0038 62.8777 75.3031 62.8777H79.8168L79.7335 62.4849ZM96.5245 57.6877C95.7051 57.856 95.219 58.1506 94.6357 58.7959C93.7052 59.8338 93.5941 61.4189 94.3718 62.527L94.8024 63.1442L94.3996 63.2284C93.6913 63.3827 92.7747 64.098 92.358 64.7994C92.0247 65.3745 91.9692 65.627 91.9692 66.4546C91.9831 68.5726 93.4274 69.9894 95.7329 70.1437C97.9828 70.2839 99.7327 69.1197 100.149 67.184C100.182 67.0339 100.202 66.9433 100.167 66.8886C100.113 66.8052 99.9301 66.8052 99.4689 66.8052C98.8022 66.8052 98.705 66.8473 98.705 67.0718C98.705 67.4505 98.0661 68.1659 97.4412 68.4885C96.8162 68.8251 95.5801 68.8672 94.9135 68.5867C94.233 68.2921 93.4691 67.3663 93.358 66.679C93.2886 66.2161 93.3302 65.9636 93.5941 65.4446C94.0663 64.4908 94.6496 64.2243 96.4551 64.1682L97.8717 64.1121V63.5089V62.9198L97.1634 62.8356C95.8996 62.6813 95.1635 61.8958 95.2746 60.8157C95.3579 60.0022 95.6912 59.5393 96.4412 59.2026C97.5801 58.6977 98.8022 59.0624 99.2605 60.0443C99.455 60.451 99.5244 60.4931 100.136 60.4931C100.885 60.4931 100.941 60.3528 100.524 59.4411C99.8994 58.0664 98.2189 57.323 96.5245 57.6877ZM34.9575 59.0764V58.4592V57.828H39.1935H43.4294V58.4592V59.0764L41.6656 59.1184L39.8879 59.1605L39.8462 64.589L39.8184 70.0314H39.1935H38.5685L38.5407 64.589L38.499 59.1605L36.7352 59.1184L34.9575 59.0764ZM43.3106 63.2744L43.31 63.2754C43.158 63.5399 43.0193 63.781 42.9018 63.9858C41.6518 66.174 41.4019 66.9595 41.6241 67.9414C41.8463 68.8672 42.499 69.5264 43.4573 69.821C43.9851 69.9753 44.8323 70.0314 46.7211 70.0314H49.2626V69.3301V68.6287H46.6655C44.3045 68.6287 44.0129 68.6007 43.5962 68.3482C43.0823 68.0256 42.8324 67.4785 42.9435 66.9315C42.9851 66.721 44.0962 64.7012 45.3878 62.4288C46.6933 60.1705 47.8183 58.2067 47.8877 58.0664C48.0127 57.856 47.9433 57.828 47.2211 57.828L46.4155 57.842L45.1656 60.0302C44.6292 60.981 43.8772 62.289 43.3106 63.2744ZM61.0675 70.0595V63.9437V57.828H63.0535C64.734 57.828 65.1229 57.87 65.6506 58.1225C66.8728 58.6836 67.4561 59.5673 67.4561 60.8438C67.4561 61.6433 67.1367 62.513 66.7062 62.8636C66.4006 63.1302 66.4284 63.2003 66.9006 63.4107C67.9144 63.8736 68.6922 65.122 68.7061 66.3003C68.7061 67.8011 68.0256 68.8812 66.6506 69.5685C65.8867 69.9473 65.7618 69.9613 63.4702 70.0034L61.0675 70.0595ZM66.109 60.8858C66.109 60.2406 65.7895 59.7356 65.1923 59.413C64.9285 59.2727 64.3035 59.1605 63.6091 59.1184L62.4563 59.0483V60.97V62.8777H63.4702C65.2062 62.8636 66.109 62.1904 66.109 60.8858ZM66.0673 68.3061C67.6783 67.4925 67.7478 65.4446 66.1923 64.5749C65.6784 64.2804 65.359 64.2102 64.0257 64.1682L62.4563 64.098V66.3704V68.6287H63.9563C65.234 68.6287 65.5395 68.5866 66.0673 68.3061ZM82.1778 63.9297V70.0314H83.8999C85.9415 70.0314 86.8165 69.8771 87.9692 69.3301C90.733 68.0256 92.0107 64.7713 90.9552 61.7134C90.5663 60.6053 89.9136 59.7216 88.9553 59.0062C87.6775 58.0664 86.747 57.828 84.2471 57.828H82.1778V63.9297ZM86.4137 59.3008C88.6358 59.8899 89.858 61.5311 89.858 63.9297C89.8719 64.7853 89.7886 65.2061 89.5664 65.7392C88.6775 67.745 87.1915 68.6287 84.7193 68.6287H83.4277V63.8595V59.0904H84.511C85.1082 59.0904 85.9693 59.1886 86.4137 59.3008ZM102.024 68.8532C101.788 68.3202 101.76 67.8433 101.76 63.0461V57.828H102.385H102.996L103.038 62.9338L103.08 68.0397L103.413 68.4044C103.899 68.9234 104.468 68.8953 104.982 68.3202C105.218 68.0677 106.524 65.6551 107.885 62.9479C109.26 60.2547 110.427 57.9963 110.496 57.9262C110.552 57.8701 110.927 57.828 111.315 57.8561L112.024 57.8982L109.246 63.3687C107.663 66.4686 106.274 69.0356 106.038 69.2881C104.774 70.6066 102.705 70.3822 102.024 68.8532Z" fill="#848484"/>
</svg>
