<svg xmlns="http://www.w3.org/2000/svg" class="logo" fill="#848484" viewBox="25 22 62 62">

<path d="M79.6222 30.9628V27.265l-14.6435-4.9701-10.3037 5.3037a18.355 18.355 0 0 0-6.3599 5.6542c-1.8616-.6616-4.1305-.3958-6.4221.7576l-10.2585 5.1567v3.5225l13.0706 4.5856v.441c-.9846.1907-1.9372.52-2.8291.9782L31.6175 53.851v3.5396l2.8292.9951-2.8292 1.2383v3.8335l12.2954 4.3142a10.6055 10.6055 0 0 1-2.0143 1.3457l-10.298 5.1736v3.8788l14.3097 4.987.1811.0621.1358-.0678 10.315-5.1849a18.4236 18.4236 0 0 0 6.3599-5.6542c1.8616.6615 4.1248.3958 6.4221-.7577l10.2584-5.1566v-3.8335l-.2263-.0849-12.7028-4.5742v-.0622a10.7537 10.7537 0 0 0 2.7046-.9556l10.2359-5.1509v-3.9071l-.1132-.0679-2.3652-.8537 2.484-1.2496v-3.6752h-.0736l-12.3463-4.382a10.6252 10.6252 0 0 1 2.1502-1.4475l10.2923-5.1906Zm-37.3445 3.7996c2.2011-1.1308 4.3456-1.323 6.0374-.6106l.3112.13 10.7111 3.7035a10.3736 10.3736 0 0 0-3.1234 1.0291l-9.8227 4.9361L33.1 39.3819l9.1777-4.6195ZM61.9741 63.254v-.3845a12.4304 12.4304 0 0 1 .8714-4.3764 6.5655 6.5655 0 0 1 .6959 3.1664v.3845a12.3685 12.3685 0 0 1-.877 4.3763 6.6966 6.6966 0 0 1-.6959-3.1663m1.5956-15.877a12.4327 12.4327 0 0 1-.877 4.3707 6.6727 6.6727 0 0 1-.696-3.1607v-.3902a12.4308 12.4308 0 0 1 .894-4.3763 6.6574 6.6574 0 0 1 .696 3.1607l-.017.3958Zm-4.7416 5.0096-13.2856-4.6082v-.1866l.4187.1527.1188.0452 10.5527-5.2471a5.594 5.594 0 0 1 3.8589-.6276 18.2752 18.2752 0 0 0-1.8785 7.6671v.5145a11.9614 11.9614 0 0 0 .215 2.3069M32.4663 42.1242v-2.0694l13.4893 4.6364v2.1712l-13.4893-4.7382Zm9.7831 7.3505a9.5783 9.5783 0 0 1 2.8292-.9499l12.8555 4.4781a11.3204 11.3204 0 0 0-1.754.7124l-9.9359 4.9927-13.229-4.6025 9.2342-4.6308Zm-9.8001 7.3504V54.767l13.4893 4.6986v2.0808l-13.4893-4.7213Zm3.0894 1.962 10.6036 3.6753.1811-.0735 10.281-5.168a6.025 6.025 0 0 1 3.2762-.7294 11.9956 11.9956 0 0 1-3.6553 2.9629l-10.0151 5.0378-13.1838-4.5742 2.5123-1.1309Zm-3.1007 4.105V60.506l13.4723 4.7439v2.3521L32.438 62.8921ZM45.9103 82.269l-13.4836-4.6929v-2.4427l13.4893 4.693-.0057 2.4426Zm-12.8442-7.7858 9.1946-4.6251a11.7537 11.7537 0 0 0 2.5462-1.7698l1.1317.3958.1811.0622.1018-.0509 10.349-5.2019a15.4624 15.4624 0 0 0 2.2237-1.3852 14.3587 14.3587 0 0 0-.1924 2.3238v.5089c0 2.3691.6111 4.3538 1.7767 5.756a12.3835 12.3835 0 0 1-4.1589 3.5904l-9.9189 4.987-13.2346-4.5912Zm33.859-13.5022v-.5202a12.6646 12.6646 0 0 0-.1018-1.6284l11.5088 4.1445-9.4209 4.7382a5.6619 5.6619 0 0 1-3.7345.6559 18.1719 18.1719 0 0 0 1.7484-7.39Zm11.5428-12.7276-9.5341 4.7891a5.9795 5.9795 0 0 1-3.2761.7294 12.145 12.145 0 0 1 3.6495-2.9628l6.7899-3.3926 2.3708.8369Zm.0396-5.7956-9.5284 4.7948a14.41 14.41 0 0 0-2.2237 1.3853 15.0108 15.0108 0 0 0 .1867-2.3239v-.5202c0-2.4596-.6507-4.4895-1.9012-5.903a15.3723 15.3723 0 0 1 1.4428-1.6623l12.0238 4.2293Zm-15.8431-4.2124-13.5119-4.676a17.3554 17.3554 0 0 1 5.9242-5.2358l9.9981-5.1397 13.5063 4.5799-9.5624 4.8061a18.4417 18.4417 0 0 0-6.3543 5.6542" fill="#848484"/>

<defs>
<filter color-interpolation-filters="sRGB" filterUnits="userSpaceOnUse" height="110.376" id="a" width="110.439" x=".3877" y=".3121">
<feflood flood-opacity="0" result="BackgroundImageFix"/>
<fecolormatrix in="SourceAlpha" result="hardAlpha" values="0 0 0 0 0 0 0 0 0 0 0 0 0 0 0 0 0 0 127 0"/>
<feoffset dy="3.1983"/>
<fegaussianblur stddeviation="5.3305"/>
<fecomposite in2="hardAlpha" operator="out"/>
<fecolormatrix values="0 0 0 0 0 0 0 0 0 0 0 0 0 0 0 0 0 0 0.1 0"/>
<feblend in2="BackgroundImageFix" result="effect1_dropShadow_2208_94"/>
<feblend in="SourceGraphic" in2="effect1_dropShadow_2208_94" result="shape"/>
</filter>
</defs>
</svg>