<svg xmlns="http://www.w3.org/2000/svg" xmlns:xlink="http://www.w3.org/1999/xlink" version="1.1" id="_x31_" x="0px" y="0px" viewBox="0 0 508.6 66.9" style="enable-background:new 0 0 508.6 66.9;" xml:space="preserve">
<style type="text/css">
	.st1{fill-rule:evenodd;clip-rule:evenodd;fill:#848484;}
</style>
<g>
	
	<g>
		<path class="st1" d="M28.9,65.6h15.2L46,54.4h10.4l1.8,11.1h15.2L60.6,1.1H41.8L28.9,65.6L28.9,65.6z M364.4,65.7h15.2l1.8-11.1    h10.4l1.8,11.1h15.2L396.1,1.2h-18.8L364.4,65.7L364.4,65.7z M323.6,65.6h17.9c3.9,0,20-1.6,20.1-21.1c0-16.5-12.5-19.3-20.6-19.3    l-2.6,0v-8.5H358V1.1h-34.4V65.6L323.6,65.6z M234.8,66.4c17.7,0,23.7-16.5,23.7-33.1c0-16.5-6-33.1-23.7-33.1    c-17.7,0-23.7,16.5-23.7,33.1C211.1,49.8,217,66.4,234.8,66.4L234.8,66.4L234.8,66.4z M167.7,65.6l15,0V44.3h5    c14.8,0,19.4-13.3,19.4-21.7c0-8.3-5.2-21.5-19.4-21.4l-20,0V65.6L167.7,65.6z M51.2,20.6L54,40.2h-5.7L51.2,20.6L51.2,20.6z     M386.7,20.7l2.8,19.7h-5.7L386.7,20.7L386.7,20.7z M265.6,1.1h12.7l11.2,15.2l11.3-15.2h12.7v64.4h-14.9V26.3l-9,11.3l-9-11.3    v39.3l-14.9,0V1.1L265.6,1.1z M0,1.1l30.7,0l0,16.1H15.2v48.4L0,65.6V1.1L0,1.1z M464.9,1.1h14.6l0,23.2h3.2L491,1.1h15.9    l-11.4,30.6l13,33.8h-17.2l-8.4-25.9h-3.5l0,25.9h-14.6V1.1L464.9,1.1z M415.3,1.1H430v23.2h10.5V1.1H455v64.4h-14.6V39.8H430    v25.8h-14.6V1.1L415.3,1.1z M338.2,52.7V38h2.2c1.7,0,6.5,0.1,6.5,6.7c0,6.8-4.7,7.9-6.5,7.9H338.2L338.2,52.7z M234.8,50.8    c-5.3,0-8-6.1-8-17.5c0-11.4,2.7-17.5,8-17.5c5.3,0,8,6.1,8,17.5C242.7,44.6,240,50.8,234.8,50.8L234.8,50.8z M182.7,15.3h3.6    c3.4,0,5.5,2,5.5,7.4c0,7-3.6,7.5-5.5,7.5h-3.6V15.3L182.7,15.3z M118.4,1.1h40.8v64.4h-14.9V16.6h-10.9v48.9l-14.9,0V1.1    L118.4,1.1z M87.7,26.1c2.4,0,6.9-1.6,6.9-6.3c0-5.6-5.1-6-6.6-6c-1.7,0-5,0.3-8.2,1.8L79.6,1.7C84.7,0.4,88.4,0,92.7,0    c12.2,0,17.7,8.6,17.7,16.9c0,8.1-4.7,13.1-9.2,15v0.6c4.3,1.4,10.2,5.6,10.2,15.5c0,12.1-8.5,18.9-19.3,18.9    c-5.8,0-9.6-0.9-14.1-3.4l0.3-13.4c4.2,1.8,7.1,2,9.9,2c4.8,0,6.7-3.5,6.7-6.1c0-3.6-2.3-6-7.4-6h-6.1V26.1H87.7z"/>
	</g>
</g>
</svg>