<svg xmlns="http://www.w3.org/2000/svg" viewBox="0 0 177 34" fill="none">
    <path d="M56.1 6.78V15.37H61.8C65.68 15.37 67.76 14.28 67.76 11.03C67.76 7.78 65.7 6.78 61.85 6.78H56.1ZM48.71 0.540001H63.36C67.18 0.540001 70.21 1.45 72.45 3.28C74.69 5.11 75.82 7.31 75.82 10.93C75.82 14.55 74.71 17.06 72.48 18.89C70.25 20.72 66.94 21.63 63.35 21.63H56.11V33.04H48.71V0.540001Z" fill="#848484"/>
    <path d="M142.77 0.540001L134.37 15.87L143.93 32.99H135.54L128.66 20.14L127.31 20.11L120.37 32.99H112.01L121.62 15.87L113.07 0.540001H121.5L127.71 12.16H128.38L134.57 0.540001H142.77Z" fill="#848484"/>
    <path d="M168.19 21.99C168.19 20.16 166.45 18.19 163.63 18.19H156.15V26.51H163.68C166.82 26.51 168.19 24.21 168.19 22M156.15 12.71H164.1C167.69 12.71 170.61 12.96 172.83 14.79C175.06 16.62 176.17 18.52 176.17 22.08C176.17 25.64 175.05 28.43 172.8 30.26C170.56 32.09 167.53 33 163.71 32.98H148.61V0.540001H173.81V6.78H156.14V12.71H156.15Z" fill="#848484"/>
    <path d="M35.55 0.540001H22.58V32.99H35.55V0.540001Z" fill="#767676"/>
    <path d="M19.2 0.540001H9.6V32.99H19.2V0.540001Z" fill="#C1C1C1"/>
    <path d="M6.49 0.540001H0V32.99H6.49V0.540001Z" fill="#CDCDCD"/>
    <path d="M39.77 2.41H40.07C40.03 2.63 39.93 2.8 39.79 2.93C39.64 3.05 39.47 3.12 39.26 3.12C38.97 3.12 38.73 3.02 38.55 2.83C38.37 2.64 38.28 2.39 38.28 2.1C38.28 1.81 38.37 1.56 38.54 1.37C38.71 1.18 38.94 1.09 39.24 1.09C39.45 1.09 39.64 1.15 39.79 1.27C39.94 1.39 40.03 1.56 40.06 1.78H39.77C39.74 1.66 39.68 1.56 39.59 1.49C39.5 1.42 39.38 1.38 39.24 1.38C39.04 1.38 38.89 1.45 38.78 1.58C38.67 1.71 38.61 1.89 38.61 2.1C38.61 2.31 38.67 2.48 38.78 2.62C38.9 2.76 39.05 2.83 39.25 2.83C39.39 2.83 39.5 2.79 39.6 2.72C39.69 2.65 39.75 2.55 39.77 2.42M37.85 2.1C37.85 2.49 37.98 2.82 38.24 3.09C38.5 3.35 38.82 3.48 39.2 3.48C39.58 3.48 39.9 3.35 40.15 3.09C40.4 2.83 40.53 2.5 40.53 2.1C40.53 1.7 40.4 1.39 40.14 1.12C39.88 0.860001 39.56 0.720001 39.19 0.720001C38.82 0.720001 38.49 0.850001 38.23 1.11C37.97 1.37 37.84 1.7 37.84 2.09M39.2 3.75C38.74 3.75 38.34 3.6 38.02 3.28C37.69 2.96 37.52 2.56 37.52 2.09C37.52 1.62 37.68 1.23 38.01 0.910001C38.34 0.600001 38.73 0.440001 39.19 0.440001C39.65 0.440001 40.04 0.600001 40.37 0.910001C40.7 1.23 40.86 1.62 40.86 2.08C40.86 2.54 40.7 2.95 40.37 3.26C40.04 3.58 39.65 3.73 39.19 3.73" fill="#616161"/>
    <path d="M102.71 21.17C102.32 22.51 101.75 23.66 101.06 24.64C100.32 25.62 99.41 26.38 98.37 26.95C97.33 27.48 96.15 27.75 94.81 27.75C93.47 27.75 92.29 27.49 91.25 26.95C90.21 26.37 89.34 25.61 88.6 24.64C87.86 23.66 87.3 22.51 86.95 21.17C86.52 19.84 86.34 18.37 86.34 16.77C86.34 15.17 86.51 13.7 86.95 12.37C87.3 11.04 87.86 9.88 88.6 8.9C89.34 7.92 90.21 7.17 91.25 6.63C92.29 6.05 93.47 5.78 94.81 5.78C96.15 5.78 97.33 6.05 98.37 6.63C99.41 7.16 100.32 7.92 101.06 8.9C101.76 9.88 102.32 11.04 102.71 12.37C102.73 12.44 102.74 12.52 102.76 12.59H110.36C110.18 11.76 109.97 10.94 109.68 10.15C108.93 8.1 107.85 6.32 106.49 4.81C105.08 3.3 103.35 2.14 101.38 1.3C99.36 0.46 97.11 0.0100002 94.63 0.0100002C91.96 0.0100002 89.57 0.45 87.55 1.3C85.49 2.15 83.85 3.3 82.49 4.81C81.13 6.32 80.15 8.1 79.44 10.15C78.78 12.19 78.46 14.37 78.46 16.78C78.46 19.19 78.79 21.36 79.44 23.41C80.14 25.46 81.13 27.23 82.49 28.75C83.85 30.22 85.49 31.42 87.55 32.26C89.57 33.11 91.96 33.55 94.63 33.55C97.12 33.55 99.37 33.11 101.38 32.26C103.35 31.42 105.08 30.22 106.49 28.75C107.85 27.24 108.93 25.46 109.68 23.41C109.98 22.58 110.21 21.72 110.39 20.84H102.8C102.77 20.95 102.75 21.07 102.72 21.18L102.71 21.17Z" fill="#848484"/>
</svg>