<svg width="64" height="64" viewBox="0 0 64 64" fill="none" xmlns="http://www.w3.org/2000/svg">
<g clip-path="url(#clip0_131_199)">
<path d="M0 16C0 7.16344 7.16344 0 16 0H48C56.8366 0 64 7.16344 64 16V48C64 56.8366 56.8366 64 48 64H16C7.16344 64 0 56.8366 0 48V16Z" fill="#1E3101"/>
<path d="M14 45.7431V18.4277C14 18.2288 14.0844 18.1293 14.2557 18.1293C14.7101 18.1293 15.2505 18.1223 15.877 18.1082C16.5035 18.0941 17.1793 18.0796 17.9043 18.0647L20.2096 18.0224C21.0207 18.0075 21.8243 18 22.6205 18C24.7831 18 26.6038 18.2711 28.0828 18.8132C29.4181 19.2647 30.6359 20.0094 31.6469 20.9929C32.5041 21.8452 33.1665 22.8735 33.5885 24.0069C33.9881 25.1097 34.1906 26.2743 34.1869 27.4475C34.1869 29.7279 33.6605 31.6088 32.6078 33.0901C31.5481 34.579 30.0587 35.7072 28.3397 36.323C26.4241 37.0132 24.4004 37.3535 22.3647 37.3276C21.7382 37.3276 21.2971 37.3202 21.0414 37.3052C20.7857 37.2916 20.4008 37.2841 19.8893 37.2841V45.7058C19.9018 45.7949 19.8784 45.8854 19.8245 45.9574C19.7705 46.0294 19.6903 46.077 19.6013 46.09C19.5697 46.0949 19.5374 46.0949 19.5057 46.09H14.2979C14.0993 46.085 14 45.9718 14 45.7431ZM19.8893 23.2584V32.1078C20.2585 32.1368 20.5999 32.1509 20.9135 32.1501H22.3213C23.3543 32.165 24.3835 32.0207 25.3727 31.7223C26.2184 31.4708 26.9741 30.9814 27.5502 30.3123C28.1047 29.6574 28.382 28.7456 28.382 27.5768C28.4034 26.7501 28.188 25.9346 27.7612 25.2267C27.3109 24.5412 26.6607 24.0111 25.8991 23.7085C24.9072 23.323 23.8478 23.1415 22.7844 23.1751C22.1016 23.1751 21.497 23.1821 20.9706 23.1962C20.4443 23.2103 20.0813 23.2315 19.8819 23.2596L19.8893 23.2584Z" fill="#99E83F"/>
<path d="M50.0587 41.3298V44.835C50.0587 45.1483 49.9449 45.3336 49.7173 45.3908C49.157 45.5661 48.5871 45.709 48.0103 45.8185C47.3343 45.9391 46.6486 45.9961 45.962 45.9889C44.1123 45.9889 42.6614 45.5043 41.6095 44.5353C40.5576 43.5663 40.0313 42.0133 40.0304 39.8762V29.2749H37.5103C37.2832 29.2749 37.1689 29.1505 37.1689 28.8907V24.6544C37.1689 24.4268 37.2931 24.3124 37.5538 24.3124H40.0714C40.0995 23.8283 40.1351 23.2655 40.1782 22.6239C40.2216 21.9835 40.2775 21.3419 40.3495 20.7003C40.4215 20.0587 40.4836 19.539 40.5407 19.1411C40.5679 19.056 40.6099 18.9765 40.6648 18.9061C40.7201 18.8365 40.7943 18.7843 40.8783 18.7556L45.962 18.119C46.0392 18.096 46.1219 18.1 46.1966 18.1302C46.2537 18.1588 46.2612 18.2334 46.2612 18.3789C46.2041 19.0345 46.1627 19.9252 46.137 21.051C46.1114 22.1767 46.0828 23.2663 46.0514 24.3199H50.0239C50.1953 24.3199 50.2809 24.4343 50.2809 24.6618V28.9802C50.291 29.048 50.2744 29.1171 50.2346 29.1728C50.1947 29.2285 50.1347 29.2664 50.0674 29.2786H46.0042V38.4264C46.0042 39.3963 46.1697 40.0876 46.5008 40.5004C46.8318 40.9132 47.4364 41.1205 48.3145 41.1221C48.5702 41.1221 48.8111 41.1159 49.0407 41.101C49.2704 41.0861 49.4951 41.0649 49.7235 41.0363C49.7617 41.0222 49.8026 41.0167 49.8432 41.0204C49.8838 41.0241 49.9231 41.0367 49.9581 41.0575C49.9963 41.0908 50.0255 41.1332 50.0431 41.1808C50.0606 41.2284 50.066 41.2796 50.0587 41.3298Z" fill="#99E83F"/>
</g>
<defs>
<clipPath id="clip0_131_199">
<rect width="64" height="64" fill="white"/>
</clipPath>
</defs>
</svg>
