<svg width="64" height="64" viewBox="0 0 64 64" fill="none" xmlns="http://www.w3.org/2000/svg">
<g clip-path="url(#clip0_131_167)">
<g clip-path="url(#clip1_131_167)">
<path d="M48 0H16C7.16344 0 0 7.16344 0 16V48C0 56.8366 7.16344 64 16 64H48C56.8366 64 64 56.8366 64 48V16C64 7.16344 56.8366 0 48 0Z" fill="#FCB642"/>
<path d="M21.6138 29.3339C24.1619 29.3339 26.2275 27.2682 26.2275 24.7201C26.2275 22.172 24.1619 20.1063 21.6138 20.1063C19.0657 20.1063 17 22.172 17 24.7201C17 27.2682 19.0657 29.3339 21.6138 29.3339Z" fill="black"/>
<path d="M42.3862 29.3339C44.9343 29.3339 47 27.2682 47 24.7201C47 22.172 44.9343 20.1063 42.3862 20.1063C39.8381 20.1063 37.7725 22.172 37.7725 24.7201C37.7725 27.2682 39.8381 29.3339 42.3862 29.3339Z" fill="black"/>
<path d="M31.988 43.8939C31.7246 43.8939 31.4635 43.8882 31.2045 43.8768C27.6066 43.7241 24.134 42.512 21.2225 40.3928C20.8693 40.1361 20.6325 39.7496 20.5642 39.3183C20.4959 38.8871 20.6018 38.4463 20.8584 38.0931C21.1151 37.7399 21.5016 37.5031 21.9329 37.4348C22.3641 37.3665 22.8048 37.4724 23.1581 37.729C25.7277 39.5971 28.8229 40.6032 31.9998 40.6032C35.1767 40.6032 38.2719 39.5971 40.8415 37.729C41.0164 37.602 41.2147 37.5106 41.4249 37.4601C41.6351 37.4096 41.8532 37.401 42.0668 37.4348C42.2803 37.4686 42.4851 37.5442 42.6694 37.6571C42.8538 37.7701 43.0141 37.9182 43.1412 38.0931C43.2683 38.268 43.3597 38.4662 43.4102 38.6765C43.4606 38.8867 43.4692 39.1048 43.4354 39.3183C43.4016 39.5319 43.3261 39.7367 43.2131 39.921C43.1002 40.1054 42.952 40.2657 42.7771 40.3928C39.6385 42.6655 35.8631 43.8907 31.988 43.8939Z" fill="black"/>
</g>
</g>
<defs>
<clipPath id="clip0_131_167">
<rect width="64" height="64" fill="white"/>
</clipPath>
<clipPath id="clip1_131_167">
<rect width="64" height="64" fill="white"/>
</clipPath>
</defs>
</svg>
