<svg width="223" height="60" viewBox="0 0 223 60" fill="none" xmlns="http://www.w3.org/2000/svg">
<path d="M23.4096 24.3876C23.4096 21.5881 24.3281 20.752 26.6272 20.752C28.9263 20.752 29.8448 21.5881 29.8448 24.3876C29.8448 27.1047 28.9263 28.0288 26.6272 28.0288C24.3281 28.0288 23.4096 27.1047 23.4096 24.3876ZM26.6272 31.9009C23.9486 31.9009 22.9916 33.1164 22.9916 35.751C22.9916 38.3856 23.9486 39.4306 26.6272 39.4306C29.3058 39.4306 30.2408 38.3966 30.2408 35.751C30.2408 33.1054 29.3003 31.9009 26.6272 31.9009ZM44.3543 27.8472V25.8837C44.3543 24.4206 44.1453 23.6836 42.8912 23.6836H41.6372C40.3831 23.6836 40.1741 24.4371 40.1741 25.8837V27.8472H38.2106C36.7475 27.8472 36.0105 28.0562 36.0105 29.3103V30.6468C36.0105 31.9008 36.764 32.1154 38.2106 32.1154H40.1741V34.1009C40.1741 35.564 40.3831 36.301 41.6372 36.301H42.8912C44.1453 36.301 44.3543 35.5475 44.3543 34.1009V32.1374H47.1539C47.268 32.1263 47.3831 32.1398 47.4915 32.1769C47.6 32.214 47.6993 32.2739 47.7826 32.3526C47.866 32.4313 47.9316 32.5269 47.9749 32.633C48.0182 32.7392 48.0383 32.8534 48.0339 32.9679V39.3261C48.0643 40.0277 47.9418 40.7275 47.6749 41.3771C47.4081 42.0267 47.0032 42.6106 46.4883 43.0882L37.1656 52.411C36.6771 52.9267 36.0861 53.3346 35.4306 53.6083C34.7751 53.8821 34.0696 54.0157 33.3594 54.0006H14.7084C13.9989 54.0163 13.294 53.8829 12.6393 53.6091C11.9847 53.3353 11.3947 52.9271 10.9077 52.411L1.55742 43.0882C1.03615 42.6154 0.626582 42.0325 0.358323 41.3818C0.090064 40.7311 -0.0301421 40.0289 0.0064044 39.3261V20.9005C-0.00957891 20.1538 0.128686 19.4117 0.412606 18.7209C0.696526 18.03 1.11999 17.4051 1.65646 16.8854L11.1443 7.2656C11.6195 6.82511 12.1799 6.48659 12.791 6.27091C13.4021 6.05524 14.0509 5.96697 14.6973 6.01155H33.3484C33.995 5.96631 34.6439 6.05427 35.2551 6.26997C35.8662 6.48568 36.4266 6.82456 36.9015 7.2656L46.3948 16.8854C46.9233 17.4111 47.3414 18.0371 47.6248 18.7265C47.9081 19.416 48.051 20.1551 48.0449 20.9005V26.8957C48.0449 27.5227 47.7534 27.8583 47.1649 27.8583L44.3543 27.8472ZM15.5939 18.816C15.5939 17.6059 14.8404 17.3529 13.3938 17.3529H9.5932C8.13016 17.3529 7.39313 17.6059 7.39313 18.816V20.1965C7.39313 21.4065 8.14666 21.6595 9.5932 21.6595H10.4402C10.9902 21.6595 11.2377 21.951 11.2377 22.7871V40.8497C11.2377 42.3127 11.4852 43.0497 12.7008 43.0497H14.1198C15.3354 43.0497 15.5829 42.2962 15.5829 40.8497L15.5939 18.816ZM34.5695 36.334C34.5695 33.1989 34.3605 30.8338 31.5609 29.7338C33.904 28.0232 33.9424 26.2632 33.9424 24.8441V23.4196C33.6949 18.695 32.1054 16.8964 26.6272 16.8964C21.149 16.8964 19.5595 18.695 19.312 23.4196V24.8441C19.312 26.2632 19.3505 28.0232 21.6936 29.7338C18.894 30.8338 18.685 33.2044 18.685 36.334C18.685 40.9761 20.335 43.2752 26.6272 43.4017C32.9414 43.2862 34.5695 40.9872 34.5695 36.345V36.334Z" fill="#E6E6E6"/>
<rect x="56.045" y="6.00098" width="48" height="48" rx="16" fill="#33ABE0"/>
<path d="M88.0373 21.7367C87.7601 25.2505 86.5608 33.7773 85.9505 37.7128C85.6924 39.3781 85.1839 39.9364 84.6919 39.9911C83.6225 40.1098 82.8103 39.1383 81.7744 38.3189C80.1534 37.0369 79.2377 36.2388 77.6643 34.9878C75.8459 33.5421 77.0247 32.7477 78.0609 31.4485C78.3322 31.1086 83.0445 25.937 83.1356 25.4679C83.147 25.4092 83.1579 25.1901 83.0499 25.075C82.9419 24.96 82.7834 24.999 82.6686 25.0302C82.506 25.0748 79.9166 27.1399 74.9002 31.2256C74.1653 31.8345 73.4995 32.1312 72.903 32.1157C72.2454 32.0986 70.9805 31.6671 70.0401 31.2982C68.8868 30.846 67.9701 30.6067 68.0499 29.8385C68.0915 29.4383 68.5482 29.0291 69.42 28.611C74.789 25.7886 78.3692 23.9278 80.1604 23.0287C85.275 20.4619 86.3377 20.016 87.0305 20.0011C87.1828 19.9981 87.5235 20.0436 87.7441 20.2596C87.8909 20.4135 87.9845 20.6283 88.0063 20.8614C88.0437 21.1509 88.054 21.4445 88.0373 21.7367Z" fill="white"/>
<rect x="112.045" y="6.00098" width="48" height="48" rx="16" fill="#DA2623"/>
<path d="M147.544 24.5044C147.268 23.519 146.454 22.7429 145.422 22.4796C143.55 22.001 136.045 22.001 136.045 22.001C136.045 22.001 128.54 22.001 126.668 22.4796C125.636 22.743 124.823 23.519 124.547 24.5044C124.045 26.2906 124.045 30.0172 124.045 30.0172C124.045 30.0172 124.045 33.7437 124.547 35.5298C124.823 36.5153 125.636 37.259 126.668 37.5224C128.54 38.001 136.045 38.001 136.045 38.001C136.045 38.001 143.55 38.001 145.422 37.5224C146.454 37.259 147.268 36.5153 147.544 35.5298C148.045 33.7437 148.045 30.0172 148.045 30.0172C148.045 30.0172 148.045 26.2906 147.544 24.5044ZM133.59 33.4006V26.6337L139.863 30.0172L133.59 33.4006Z" fill="white"/>
<g filter="url(#filter0_f_38_8)">
<mask id="mask0_38_8" style="mask-type:alpha" maskUnits="userSpaceOnUse" x="168" y="6" width="49" height="49">
<rect x="168.045" y="6.00098" width="48" height="48" rx="16" fill="#E6E6E6"/>
</mask>
<g mask="url(#mask0_38_8)">
<path d="M160.045 -1.99902L174.032 -1.9301L224.011 -1.99902L224.045 30.001C224.045 38.7788 224.001 62.001 224.001 62.001H192.001C187.979 62.001 183.956 62.001 180.83 62.001H160.07L160.045 -1.99902Z" fill="url(#paint0_radial_38_8)"/>
</g>
<rect x="181.045" y="19.001" width="22" height="22" rx="6" stroke="white" stroke-width="2"/>
<circle cx="192.045" cy="30.001" r="5" stroke="white" stroke-width="2"/>
<circle cx="198.545" cy="23.501" r="1.5" fill="white"/>
</g>
<defs>
<filter id="filter0_f_38_8" x="162.045" y="0.000976562" width="60" height="60" filterUnits="userSpaceOnUse" color-interpolation-filters="sRGB">
<feFlood flood-opacity="0" result="BackgroundImageFix"/>
<feBlend mode="normal" in="SourceGraphic" in2="BackgroundImageFix" result="shape"/>
<feGaussianBlur stdDeviation="3" result="effect1_foregroundBlur_38_8"/>
</filter>
<radialGradient id="paint0_radial_38_8" cx="0" cy="0" r="1" gradientUnits="userSpaceOnUse" gradientTransform="translate(176.177 65.9767) rotate(-90) scale(63.3503 58.8709)">
<stop stop-color="#FFDD55"/>
<stop offset="0.1" stop-color="#FFDD55"/>
<stop offset="0.5" stop-color="#FF543E"/>
<stop offset="1" stop-color="#C837AB"/>
</radialGradient>
</defs>
</svg>
