<svg width="180" height="180" viewBox="0 0 180 180" fill="none" xmlns="http://www.w3.org/2000/svg">
<path d="M89.9231 68.2712L84.0769 85.5943H95.7692L89.9231 68.2712ZM89.9231 58C94.3846 58 95.7692 61.2193 97 64.2854L109.462 98.0118C109.531 98.1762 109.538 98.3601 109.481 98.5293C109.425 98.6985 109.308 98.8415 109.154 98.9316L102.231 101.538C102.151 101.58 102.062 101.601 101.971 101.599C101.881 101.597 101.793 101.571 101.715 101.525C101.638 101.478 101.574 101.413 101.529 101.335C101.485 101.256 101.462 101.168 101.462 101.078L98.5385 93.2594H81.3077L78.3846 101.231C78.3125 101.372 78.2022 101.49 78.0662 101.571C77.9302 101.652 77.774 101.694 77.6154 101.691L70.8462 99.0849C70.6838 99.0027 70.5604 98.8601 70.5028 98.6879C70.4452 98.5158 70.458 98.3279 70.5385 98.1651L83 64.4387C84.0769 61.2193 85.4615 58 89.9231 58ZM69.6154 114.262C69.4557 114.273 69.3054 114.341 69.1923 114.453C69.0791 114.566 69.0108 114.716 69 114.875V122.387C69.0108 122.546 69.0791 122.696 69.1923 122.808C69.3054 122.921 69.4557 122.989 69.6154 123H110.385C110.544 122.989 110.695 122.921 110.808 122.808C110.921 122.696 110.989 122.546 111 122.387V115.028C110.989 114.869 110.921 114.719 110.808 114.607C110.695 114.494 110.544 114.426 110.385 114.415H69.6154V114.262Z" fill="#808080"/>
</svg>
