<svg width="180" height="180" viewBox="0 0 180 180" fill="none" xmlns="http://www.w3.org/2000/svg">
<g clip-path="url(#clip0_115_181)">
<path d="M73.4398 84.8168V89.2523H76.313C78.2655 89.2523 79.3226 88.6973 79.3226 87.0068C79.3226 85.3156 78.293 84.8168 76.3404 84.8168H73.4398ZM69.6987 81.6001H77.0993C79.0244 81.6001 80.5697 82.0711 81.6809 83.0138C82.8197 83.9566 83.3894 85.0928 83.3894 86.9506C83.3894 88.7806 82.8197 90.1111 81.7084 91.0531C80.5964 91.9958 78.9161 92.4676 77.0993 92.4676H73.4398V98.4001H69.6987V81.6001ZM100.855 92.0198C100.663 94.1468 99.8411 95.1158 98.5262 96.3818C97.1838 97.6471 95.5684 98.4008 93.2406 98.4008C90.7198 98.4008 88.6933 97.8623 87.1595 96.2198C85.6257 94.5773 84.8035 92.4241 84.8035 89.7316C84.8035 87.1741 85.5708 85.5586 87.132 83.8621C88.6933 82.1663 90.8022 81.6008 93.4046 81.6008C95.4586 81.6008 97.0473 82.2466 98.4446 83.3776C99.8411 84.5356 100.608 86.1241 100.745 87.9001H97.1571C96.9649 86.9581 96.5271 86.1503 95.8422 85.6388C95.1573 85.1273 94.3084 84.5888 93.2947 84.5888C92.227 84.5888 91.3498 84.8851 90.6382 85.4513C89.9259 86.0431 89.4873 86.6888 89.186 87.5236C88.8847 88.4386 88.8031 89.0581 88.8031 90.0008C88.8031 91.5893 89.077 92.6123 89.8984 93.6623C90.7198 94.7123 91.8433 95.2238 93.2398 95.2238C95.1298 95.2238 96.8284 94.0118 97.0747 91.9928H100.855V92.0198ZM117.709 81.6001L113.378 89.5426L118.32 98.4001H113.961L110.407 91.7363H109.713L106.129 98.4001H101.797L106.768 89.5418L102.353 81.6001H106.713L109.907 87.5993H110.267L113.461 81.6008L117.709 81.6001ZM130.736 92.6986C130.736 91.7536 129.852 90.7238 128.389 90.7238H124.552V95.0348H128.417C130.046 95.0348 130.736 93.8393 130.736 92.6986ZM124.552 87.8866H128.638C130.488 87.8866 131.978 88.0261 133.138 88.9718C134.27 89.9168 134.85 90.8911 134.85 92.7541C134.85 94.6456 134.27 96.0368 133.11 96.9818C131.951 97.9276 130.404 98.4008 128.444 98.4008H120.688V81.6001H133.635V84.8266H124.552V87.8866Z" fill="#808080"/>
<path d="M63.0855 81.6001H56.4766V98.4001H63.0855V81.6001Z" fill="#808080"/>
<path d="M54.5947 81.6001H49.8735V98.4001H54.5947V81.6001Z" fill="#808080"/>
<path d="M48.4538 81.6001H45.1489V98.4001H48.4538V81.6001Z" fill="#808080"/>
</g>
<defs>
<clipPath id="clip0_115_181">
<rect width="90" height="18" fill="white" transform="translate(45 81)"/>
</clipPath>
</defs>
</svg>
