<svg width="180" height="180" viewBox="0 0 180 180" fill="none" xmlns="http://www.w3.org/2000/svg">
<path d="M69.0428 81.1523V100.719H60.3755V81.1523H53V106.672H72.9319V111.718H79.5435V100.733H76.4183V81.1663L69.0428 81.1523Z" fill="#808080"/>
<path d="M99.6522 87.1713V81.1523H81.9565V106.891H99.6522V100.887H89.3344V96.7424H99.042V91.3296H89.3344V87.1008L99.6522 87.1713Z" fill="#808080"/>
<path d="M118.786 81.1523L114.811 89.4266H114.658L110.698 81.1523H102.065L109.512 93.8387V93.9796L102.093 106.877H109.917L114.449 99.1387L118.772 106.891H127L119.19 94.036V93.895L127 81.2087L118.786 81.1523Z" fill="#808080"/>
<path d="M126.196 68.2827H102.87V76.3262H126.196V68.2827Z" fill="#808080"/>
</svg>
