<svg width="180" height="180" viewBox="0 0 180 180" fill="none" xmlns="http://www.w3.org/2000/svg">
<g clip-path="url(#clip0_115_169)">
<path d="M60.9607 65.0212H55.8751L48.0971 73.1589V65.0212H44.0042V84.8652H48.0971V77.9171L50.1912 75.8354L56.6774 84.8652H61.6678L52.9923 73.0642L60.9607 65.0212Z" fill="#808080"/>
<path d="M68.7521 65.0212H64.6592V84.8652H68.7521V65.0212Z" fill="#808080"/>
<path d="M80.8271 65.0212H73.0491V84.8652H79.7392C81.1813 84.8823 82.6213 84.7509 84.0362 84.4731C85.0288 84.1758 85.9263 83.7837 86.7285 83.0808C87.829 82.1995 88.6582 81.0285 89.1218 79.7014C89.7311 78.1914 90.0048 76.5682 89.9241 74.9432C89.9241 71.5638 89.1218 69.0901 87.626 67.5085C86.1166 65.8188 83.9138 65.0212 80.8271 65.0212ZM84.4169 79.796C83.5194 80.7828 82.2276 81.283 80.3239 81.283H77.0333V68.5899H80.8271C82.5268 68.5899 83.7234 69.0901 84.5257 70.1715C85.328 71.1583 85.7223 72.848 85.7223 75.0378C85.7223 77.2277 85.3144 78.8092 84.4169 79.796Z" fill="#808080"/>
<path d="M50.9252 60.4522C50.848 60.2309 50.8156 59.9966 50.83 59.7628V55.1938C50.8456 54.8729 50.7696 54.5542 50.6108 54.2744C50.452 53.9946 50.2169 53.765 49.9326 53.6123C49.1579 53.2325 48.3078 53.0293 47.4441 53.0175C46.6419 52.9229 45.7444 53.2203 45.0509 53.7069C44.7675 53.923 44.5315 54.1944 44.3574 54.5044C44.1535 54.8018 44.1535 55.1938 44.1535 55.5994V55.694H46.1523V55.5994C46.1523 55.5048 46.1523 55.302 46.2475 55.2074L46.5467 54.91C46.8368 54.7074 47.1849 54.6031 47.5393 54.6126C47.8385 54.6126 48.2328 54.6126 48.532 54.8154C48.6272 54.91 48.7359 55.0181 48.7359 55.1127C48.7359 55.2074 48.8311 55.4101 48.8311 55.5048C48.8311 55.8968 48.4368 56.1942 47.5393 56.3023C47.145 56.3023 46.941 56.3969 46.6419 56.3969C45.9484 56.4915 45.1461 56.6943 44.643 57.1945C44.4215 57.4228 44.2502 57.6944 44.1399 57.992C44.0447 58.2894 43.9359 58.5868 44.0447 58.8842C44.0465 59.5565 44.2553 60.2122 44.643 60.7631C44.8727 60.9833 45.1459 61.1536 45.4453 61.2633C45.7444 61.3714 46.0436 61.466 46.4379 61.3579C46.9513 61.3573 47.4595 61.2562 47.9337 61.0605C48.328 60.8577 48.7359 60.5604 48.9263 60.1683C48.9263 60.3711 48.9263 60.5604 49.0215 60.6685C49.0207 60.7454 49.0388 60.8214 49.0744 60.8898C49.1099 60.9581 49.1618 61.0167 49.2255 61.0605H51.4147V60.6685C51.3225 60.6683 51.2313 60.649 51.147 60.6118C51.0627 60.5745 50.9871 60.5202 50.9252 60.4522ZM48.8311 57.965C48.8311 58.1677 48.8311 58.4651 48.7359 58.6544C48.6387 58.873 48.5054 59.0741 48.3416 59.2491C48.1691 59.4165 47.966 59.5495 47.7433 59.6412C47.5207 59.7179 47.285 59.7501 47.0498 59.7358C46.7507 59.7358 46.5467 59.6412 46.2475 59.4384C46.1523 59.3438 46.0436 59.2356 46.0436 59.141C46.0436 59.0464 45.9484 58.9382 45.9484 58.749C45.9655 58.5072 46.0351 58.272 46.1523 58.0596C46.3563 57.8568 46.6555 57.7622 46.9546 57.6676L47.6481 57.4648C48.06 57.3772 48.4612 57.2458 48.8447 57.0728L48.8311 57.965Z" fill="#808080"/>
<path d="M48.709 98.2206C48.6139 98.3152 48.4099 98.4234 48.3147 98.518C48.1588 98.5946 47.9848 98.6274 47.8116 98.6126C47.6076 98.6126 47.3085 98.6126 47.1181 98.4099C46.9033 98.2977 46.7278 98.1233 46.615 97.9097C46.3158 97.4096 46.2206 96.8148 46.2206 96.22C46.2069 95.5721 46.3418 94.9295 46.615 94.3411C46.7278 94.1275 46.9033 93.9531 47.1181 93.8409C47.3221 93.7463 47.5124 93.6381 47.8116 93.7463C48.1107 93.7463 48.5051 93.8409 48.709 94.0437C48.8428 94.1699 48.9473 94.3236 49.0154 94.494C49.0835 94.6643 49.1135 94.8474 49.1034 95.0305H51.1975C51.1953 94.6158 51.0927 94.2078 50.8983 93.8409C50.723 93.4765 50.4887 93.1431 50.2048 92.8541C49.8669 92.5591 49.4717 92.3362 49.0437 92.199C48.6157 92.0618 48.164 92.0134 47.7164 92.0566C47.203 92.0572 46.6948 92.1583 46.2206 92.354C45.7469 92.5364 45.3328 92.8451 45.024 93.2461C44.3305 94.1383 43.9226 95.2332 44.0314 96.3146C43.9362 97.4096 44.3305 98.491 45.024 99.3831C45.3232 99.7752 45.8263 100.073 46.2206 100.275C46.615 100.478 47.2133 100.573 47.7164 100.573C48.6265 100.581 49.5093 100.264 50.2048 99.6805C50.5475 99.3842 50.8229 99.0188 51.0128 98.6087C51.2027 98.1985 51.3027 97.7529 51.3062 97.3014H49.2122C49.1034 97.5177 49.0082 97.9232 48.709 98.2206Z" fill="#808080"/>
<path d="M59.3832 99.4101C59.3059 99.1888 59.2736 98.9544 59.288 98.7206V94.1517C59.3035 93.8308 59.2275 93.512 59.0688 93.2322C58.91 92.9524 58.6749 92.7229 58.3905 92.5701C57.6159 92.1904 56.7658 91.9872 55.9021 91.9753C55.1134 91.9753 54.2024 92.1781 53.5089 92.6647C53.2255 92.8808 52.9895 93.1522 52.8154 93.4623C52.625 93.7597 52.6114 94.1517 52.6114 94.5572V94.6518H54.6103V94.5572C54.6103 94.4626 54.6103 94.2598 54.7055 94.1652C54.8007 94.0706 54.8007 93.9624 55.0047 93.8678C55.2948 93.6652 55.6429 93.5609 55.9973 93.5704C56.2965 93.5704 56.6908 93.5704 56.99 93.7732C57.0851 93.8678 57.1939 93.976 57.1939 94.0706C57.2891 94.1652 57.2891 94.368 57.2891 94.4626C57.2891 94.8546 56.8948 95.152 55.9973 95.2601C55.603 95.2601 55.399 95.3548 55.0998 95.3548C54.4064 95.4494 53.6041 95.6521 53.0058 96.1523C52.7843 96.3806 52.613 96.6522 52.5027 96.9498C52.4075 97.2472 52.2987 97.5446 52.4075 97.842C52.4093 98.5144 52.6181 99.17 53.0058 99.721C53.2354 99.9411 53.5086 100.111 53.808 100.221C54.1072 100.316 54.4064 100.424 54.8007 100.316C55.3141 100.315 55.8223 100.214 56.2965 100.018C56.7248 99.8046 57.1008 99.5001 57.3979 99.1262C57.3979 99.3289 57.3979 99.5182 57.4931 99.6263C57.4922 99.7033 57.5104 99.7792 57.5459 99.8476C57.5815 99.9159 57.6334 99.9746 57.697 100.018H59.8863V99.6263C59.492 99.6128 59.3832 99.5047 59.3832 99.4101ZM57.1939 96.9228C57.1939 97.1256 57.1939 97.4229 57.0987 97.6122C57.0015 97.8309 56.8682 98.0319 56.7044 98.207C56.5342 98.3772 56.3305 98.5106 56.1061 98.599C55.8835 98.6758 55.6478 98.7079 55.4126 98.6936C55.1134 98.6936 54.9095 98.599 54.6103 98.3962C54.5151 98.3016 54.4064 98.1935 54.4064 98.0988C54.4064 98.0042 54.3112 97.8961 54.3112 97.7068C54.3265 97.4648 54.3962 97.2292 54.5151 97.0174C54.7191 96.8147 55.0183 96.72 55.3174 96.6254L56.0109 96.4226C56.4228 96.335 56.824 96.2036 57.2075 96.0306L57.1939 96.9228Z" fill="#808080"/>
<path d="M63.3809 89.4883H61.2869V100.1H63.3809V89.4883Z" fill="#808080"/>
<path d="M67.6644 89.4883H65.5703V100.1H67.6644V89.4883Z" fill="#808080"/>
<path d="M72.954 91.9619C72.4406 91.9626 71.9323 92.0636 71.4582 92.2593C70.9844 92.4417 70.5704 92.7504 70.2616 93.1515C69.5976 94.0003 69.2471 95.0503 69.2689 96.1253C69.1738 97.2203 69.5681 98.3017 70.2616 99.1939C70.5607 99.5859 71.0639 99.8833 71.4582 100.086C71.9323 100.282 72.4406 100.383 72.954 100.383C73.7562 100.383 74.6537 100.181 75.3472 99.694C76.0088 99.212 76.4687 98.5046 76.639 97.7069H74.5449C74.4497 98.0043 74.2458 98.2071 73.9466 98.3963C73.6475 98.5856 73.3483 98.5991 73.0492 98.5991C72.845 98.6141 72.6402 98.5817 72.4508 98.5045C72.246 98.4293 72.0701 98.2922 71.9477 98.1124C71.6486 97.7204 71.4446 97.2203 71.5534 96.7201H76.843V96.22C76.843 94.8277 76.5438 93.8409 75.8503 93.1515C75.4842 92.7711 75.0449 92.4677 74.5585 92.2593C74.0426 92.0776 73.5012 91.9772 72.954 91.9619ZM71.4582 95.3413C71.4763 94.8975 71.655 94.4751 71.9613 94.1518C72.0565 94.0572 72.2605 93.8544 72.4644 93.8544C72.8532 93.7282 73.2723 93.7282 73.6611 93.8544C73.8407 93.9321 74.0097 94.032 74.1642 94.1518C74.4633 94.4492 74.5585 94.9493 74.5585 95.3413H71.4582Z" fill="#808080"/>
<path d="M83.5331 93.2597C83.3292 92.8677 82.9348 92.5703 82.5405 92.3675C82.1032 92.1616 81.6237 92.0598 81.1399 92.0701C80.691 92.0595 80.2466 92.1618 79.8481 92.3675C79.4538 92.5703 79.0458 92.8677 78.8555 93.2597C78.2572 94.1519 77.8628 95.2468 77.958 96.3282C77.8881 97.3945 78.2066 98.4502 78.8555 99.3021C79.1131 99.6712 79.4528 99.9765 79.8481 100.194C80.2509 100.388 80.6924 100.49 81.1399 100.492C81.5888 100.502 82.0332 100.4 82.4317 100.194C82.826 99.8969 83.234 99.5995 83.4244 99.2075V100.302H85.4232V89.4883H83.4244V93.2597H83.5331ZM83.03 97.9233C82.9046 98.1618 82.6896 98.3416 82.4317 98.4234C82.2277 98.5181 81.9286 98.6262 81.7382 98.5181C81.4391 98.5181 81.2351 98.5181 81.0447 98.4234C80.8222 98.2861 80.6207 98.1177 80.4464 97.9233C80.1473 97.4231 79.9433 96.7337 80.0521 96.139C80.0521 95.5442 80.1473 94.9494 80.5552 94.4493C80.668 94.2357 80.8435 94.0613 81.0583 93.9491C81.2728 93.8342 81.509 93.7652 81.7518 93.7463C81.9422 93.7463 82.2549 93.7463 82.4453 93.841C82.6704 93.9747 82.8724 94.1436 83.0436 94.3411C83.3587 94.8502 83.5323 95.4333 83.5467 96.0308C83.5363 96.6947 83.3587 97.3453 83.03 97.9233Z" fill="#808080"/>
<path d="M57.2757 116.902C58.0234 116.571 58.6503 116.019 59.0706 115.32C59.4526 114.55 59.657 113.705 59.6689 112.847C59.6689 111.265 59.1658 109.967 58.078 109.075C56.9901 108.183 55.4808 107.791 53.3867 107.791H44.0042V127.635H53.0875C55.3856 127.635 57.1805 127.135 58.4723 126.053C59.7641 124.972 60.3624 123.471 60.3624 121.593C60.3624 120.606 60.1584 119.605 59.5601 118.713C59.0297 117.867 58.2233 117.228 57.2757 116.902ZM47.8931 111.252H52.5844C53.6858 111.252 54.3793 111.454 54.8825 111.752C55.1017 111.94 55.274 112.176 55.3856 112.441C55.4808 112.738 55.5895 113.036 55.4808 113.333C55.4963 113.634 55.4642 113.935 55.3856 114.225C55.2904 114.523 55.0864 114.726 54.7873 114.915C54.2842 115.307 53.5907 115.415 52.598 115.415H47.9067V111.252H47.8931ZM55.2768 123.444C54.7737 123.836 53.8762 124.039 52.7884 124.039H47.8931V118.875H52.6796C53.8762 118.875 54.6785 119.078 55.168 119.47C55.6575 119.862 55.9703 120.565 55.9703 121.457C55.9703 121.849 55.9703 122.147 55.7663 122.552C55.7799 122.85 55.576 123.147 55.2768 123.444Z" fill="#808080"/>
<path d="M67.5556 118.889H77.1285V115.51H67.5556V111.252H77.9308V107.778H63.4626V127.622H78.4339V123.945H67.5556V118.889Z" fill="#808080"/>
<path d="M88.8091 107.778L81.7246 127.622H86.0215L87.3133 123.553H94.9961L96.3967 127.622H100.694L93.514 107.778H88.8091ZM88.4148 120.173L91.2023 111.738L93.9899 120.173H88.4148Z" fill="#808080"/>
<path d="M116.753 117.199C116.252 116.908 115.718 116.676 115.162 116.51C114.564 116.307 113.571 116.01 112.075 115.618L110.675 115.32C108.377 114.82 107.275 114.036 107.275 112.941C107.29 112.604 107.359 112.271 107.479 111.955C107.627 111.627 107.868 111.35 108.173 111.157C108.9 110.661 109.786 110.449 110.661 110.562C111.654 110.468 112.66 110.765 113.557 111.36C113.875 111.645 114.146 111.978 114.36 112.347C114.554 112.713 114.657 113.122 114.659 113.536H118.657C118.561 111.549 117.854 109.967 116.562 108.873C115.271 107.778 113.476 107.183 111.069 107.183C108.58 107.183 106.677 107.683 105.385 108.764C104.093 109.751 103.386 111.238 103.386 113.225C103.385 114.15 103.589 115.064 103.984 115.902C104.379 116.591 104.882 117.294 105.575 117.686C106.378 118.186 107.669 118.673 109.573 119.078L109.967 119.173H110.063C113.557 119.971 115.257 120.957 115.257 122.147C115.257 122.539 115.162 122.836 115.053 123.242C114.849 123.539 114.659 123.837 114.36 124.039C113.761 124.431 112.864 124.634 111.667 124.634C110.267 124.634 109.179 124.337 108.472 123.837C108.096 123.532 107.788 123.154 107.566 122.726C107.344 122.298 107.212 121.83 107.18 121.349H103.182C103.277 123.526 104.08 125.121 105.48 126.31C106.881 127.5 108.88 128 111.368 128C113.856 128 115.855 127.405 117.256 126.31C118.657 125.121 119.35 123.539 119.35 121.552C119.351 120.627 119.147 119.713 118.752 118.876C118.14 118.294 117.541 117.591 116.753 117.199Z" fill="#808080"/>
<path d="M121.131 107.778V111.346H127.019V127.608H131.112V111.346H137V107.778H121.131Z" fill="#808080"/>
</g>
<defs>
<clipPath id="clip0_115_169">
<rect width="93" height="75" fill="white" transform="translate(44 53)"/>
</clipPath>
</defs>
</svg>
