<svg width="180" height="180" viewBox="0 0 180 180" fill="none" xmlns="http://www.w3.org/2000/svg">
<g clip-path="url(#clip0_115_163)">
<path d="M54.7659 72.5534C50.6102 73.7386 48.5181 75.4599 43.1874 82.0348C39.1177 87.0295 38 89.6256 38 93.9712C38 97.9218 39.5763 101.562 42.5569 104.497C45.5948 107.488 49.2346 108.983 53.4189 108.983C58.4056 108.983 62.7046 106.867 65.9431 102.775L67.3188 101.054L67.806 102.86C68.3505 105.033 69.2676 106.444 70.8153 107.516C72.2894 108.595 74.1092 109.115 75.941 108.98C77.7727 108.845 79.4938 108.065 80.7888 106.782L81.8492 105.767L82.9383 106.782C83.6193 107.475 84.4341 108.027 85.3348 108.405C86.2355 108.783 87.2039 108.979 88.183 108.983C90.8483 108.983 92.9691 107.968 94.7174 105.795L95.5485 104.751L96.2077 105.738C97.0101 106.895 98.787 108.193 100.163 108.645C102.57 109.463 105.923 108.758 107.672 107.121L108.445 106.387L109.821 107.375C111.598 108.617 112.773 108.983 114.779 108.983C116.957 108.983 118.906 108.052 120.626 106.162C121.371 105.371 121.973 104.835 121.973 105.005C121.973 105.767 124.753 108.052 126.243 108.56C128.364 109.237 130.972 109.04 132.691 108.024C134.096 107.234 140.401 99.9253 141.375 98.0065C141.834 97.1035 141.891 95.9747 141.977 87.7067C142.063 76.9273 142.006 76.4758 139.77 74.2748C137.592 72.1302 134.583 71.4811 131.545 72.497C130.542 72.8356 129.682 73.4282 128.478 74.6698C126.931 76.2783 126.787 76.3629 126.501 75.8268C126.059 75.2009 125.55 74.6238 124.982 74.1055C122.259 71.4811 117.874 71.3118 114.808 73.7104L113.747 74.557L113.203 73.9644C112.257 72.9485 110.451 72.2148 108.503 72.0737C106.009 71.9044 104.175 72.6663 102.255 74.6698L100.851 76.109L99.5895 74.7263C97.8126 72.751 95.8351 71.9044 93.3417 72.0737C91.1636 72.243 89.9026 72.7792 88.3836 74.2183L87.2945 75.2342L86.2341 74.2183C84.7152 72.8074 83.4541 72.243 81.362 72.0737C78.2094 71.848 76.2606 72.9485 73.2227 76.7016L71.7897 78.5075L69.8408 76.5605C65.9431 72.6663 59.9533 71.0579 54.7659 72.5534ZM62.8479 76.2501C65.8858 77.2941 68.1499 79.3541 69.6402 82.4581C70.4713 84.1512 70.5287 84.5181 70.5287 87.2552C70.5287 90.0489 70.4713 90.3311 69.5829 92.137C68.366 94.5626 66.3718 96.5262 63.9083 97.7243C60.3258 99.4738 55.511 99.107 52.1865 96.8495C48.4894 94.3381 46.4546 89.7385 47.1711 85.5621C47.5195 83.1949 48.6119 80.9944 50.295 79.2694C51.8494 77.6001 53.8717 76.4221 56.1062 75.8847C58.3407 75.3472 60.6868 75.4744 62.8479 76.2501ZM82.9383 76.1372C83.2822 76.3629 84.8871 78.0843 86.5207 79.9467L89.444 83.3611L89.5873 80.8214C89.7593 78.0843 90.1032 77.3224 91.6795 76.1372C93.3417 74.9238 96.2936 75.7139 97.3827 77.661C97.8699 78.5922 97.8986 79.2694 97.8413 87.5939L97.7553 96.5673L96.6949 97.5832C95.8638 98.4297 95.4052 98.6555 94.2588 98.7401C93.471 98.8737 92.6605 98.7653 91.9374 98.4297C91.4502 98.1758 89.7306 96.4262 88.097 94.5356L85.1451 91.0647L85.0018 93.6326C84.8298 96.4545 84.4286 97.3292 82.9096 98.2887C82.1931 98.7119 81.6486 98.8248 80.4735 98.7401C79.1552 98.6555 78.7826 98.4862 77.8942 97.5832L76.8338 96.5673L76.7478 88.0171C76.6905 83.3329 76.7478 79.1001 76.8338 78.5922C77.0344 77.4635 78.4101 76.0525 79.6424 75.7139C80.1926 75.5635 80.7678 75.5234 81.334 75.5961C81.9002 75.6689 82.4457 75.8528 82.9383 76.1372ZM110.194 76.2218C110.743 76.5821 111.205 77.0572 111.547 77.6132C111.888 78.1692 112.102 78.7925 112.171 79.4387L112.372 80.765L115.008 78.3947C117.903 75.7703 118.992 75.2624 120.769 75.7421C121.297 75.8769 121.792 76.1137 122.225 76.4389C122.659 76.7641 123.022 77.171 123.294 77.6359C123.566 78.1009 123.742 78.6145 123.81 79.1469C123.878 79.6793 123.838 80.2198 123.692 80.7368C123.463 81.5551 122.804 82.4017 120.941 84.123L118.505 86.4087L121.084 89.5127C122.489 91.2058 123.807 93.0682 123.979 93.6326C124.925 96.4545 122.632 99.107 119.508 98.7401C117.96 98.5708 117.559 98.2322 114.578 94.6203L112.372 91.9677L112.228 94.0841C112.056 96.4545 111.569 97.4139 110.136 98.2887C109.42 98.7119 108.875 98.8248 107.7 98.7401C106.382 98.6555 106.009 98.4862 105.121 97.5832L104.06 96.5673L103.974 88.0171C103.917 83.3329 103.946 79.1001 104.06 78.6486C104.548 76.0525 108.015 74.6698 110.194 76.2218ZM136.302 76.109C138.481 77.1813 138.653 78.1689 138.538 87.8196C138.452 94.9307 138.395 95.9747 137.936 96.7931C136.417 99.502 132.175 99.502 130.657 96.7931C130.198 95.9747 130.141 94.9307 130.055 87.9043C129.997 82.7685 130.083 79.5516 130.284 78.8179C131.029 76.0525 133.723 74.8391 136.302 76.109Z" fill="#808080"/>
<path d="M54.9665 83.3888C54.1067 84.2918 54.164 84.828 55.3964 86.126L56.4282 87.283L55.3964 88.3271C54.2214 89.5122 54.1354 89.9355 54.7946 90.8667C55.4537 91.7979 56.8007 91.6851 57.9758 90.5845L58.9215 89.6815L59.8673 90.5845C60.8704 91.544 62.2174 91.7979 62.8766 91.1489C63.5357 90.4999 63.2778 89.1736 62.3034 88.186L61.3863 87.2548L62.3034 86.3236C63.4211 85.1666 63.5357 83.8403 62.59 83.1913C61.6442 82.5423 61.3576 82.6269 60.0679 83.7557L58.9215 84.7715L57.7752 83.7557C56.4282 82.5705 55.8263 82.4859 54.9665 83.3888Z" fill="#808080"/>
<path d="M91.6795 76.1368C90.1032 77.322 89.7593 78.0839 89.5873 80.8211L89.444 83.3607L86.5207 79.9463C84.8871 78.0839 83.2822 76.3626 82.9383 76.1368C82.4457 75.8525 81.9002 75.6685 81.334 75.5958C80.7678 75.5231 80.1926 75.5631 79.6424 75.7136C78.4101 76.0522 77.0344 77.4631 76.8338 78.5918C76.7478 79.0998 76.6905 83.3325 76.7478 88.0168L76.8338 96.567L77.8942 97.5828C78.7826 98.4858 79.1552 98.6551 80.4736 98.7398C81.6486 98.8244 82.1931 98.7116 82.9096 98.2883C84.4286 97.3289 84.8298 96.4541 85.0018 93.6323L85.1451 91.0644L88.097 94.5352C89.7306 96.4259 91.4502 98.1754 91.9374 98.4294C92.6605 98.765 93.471 98.8733 94.2588 98.7398C95.4052 98.6551 95.8638 98.4294 96.6949 97.5828L97.7553 96.567L97.8413 87.5935C97.8986 79.2691 97.8699 78.5918 97.3827 77.6606C96.2937 75.7136 93.3417 74.9234 91.6795 76.1368Z" fill="white"/>
<path d="M121.084 89.5123L118.505 86.4082L120.941 84.1226C122.804 82.4012 123.463 81.5547 123.692 80.7363C123.838 80.2194 123.878 79.6789 123.81 79.1465C123.742 78.6141 123.566 78.1004 123.294 77.6355C123.022 77.1705 122.659 76.7636 122.225 76.4384C121.792 76.1133 121.297 75.8764 120.769 75.7417C118.992 75.262 117.903 75.7699 115.008 78.3942L112.372 80.7646L112.171 79.4383C112.102 78.792 111.888 78.1687 111.547 77.6127C111.205 77.0567 110.743 76.5817 110.194 76.2214C108.015 74.6694 104.548 76.0521 104.06 78.6482C103.946 79.0997 103.917 83.3324 103.974 88.0167L104.06 96.5669L105.121 97.5827C106.009 98.4857 106.382 98.655 107.7 98.7397C108.875 98.8243 109.42 98.7115 110.136 98.2882C111.569 97.4134 112.056 96.454 112.228 94.0837L112.372 91.9673L114.579 94.6198C117.559 98.2318 117.96 98.5704 119.508 98.7397C122.632 99.1065 124.925 96.454 123.979 93.6322C123.807 93.0678 122.489 91.2054 121.084 89.5123Z" fill="white"/>
<path d="M69.6403 82.4579C68.15 79.3538 65.8859 77.2939 62.8479 76.2498C60.6869 75.4741 58.3407 75.347 56.1063 75.8844C53.8718 76.4219 51.8494 77.5998 50.295 79.2692C48.6119 80.9941 47.5195 83.1946 47.1711 85.5619C46.4546 89.7382 48.4895 94.3378 52.1866 96.8493C55.5111 99.1067 60.3259 99.4736 63.9083 97.724C66.3718 96.5259 68.3661 94.5624 69.5829 92.1368C70.4714 90.3308 70.5287 90.0486 70.5287 87.255C70.5287 84.5178 70.4714 84.151 69.6403 82.4579ZM62.8766 91.1491C62.2174 91.7982 60.8704 91.5442 59.8673 90.5848L58.9216 89.6818L57.9758 90.5848C56.8008 91.6853 55.4538 91.7982 54.7946 90.867C54.1354 89.9358 54.2214 89.5125 55.3964 88.3273L56.4282 87.2832L55.3964 86.1263C54.1641 84.8282 54.1068 84.2921 54.9665 83.3891C55.8263 82.4861 56.4282 82.5707 57.7752 83.7559L58.9216 84.7718L60.068 83.7559C61.3576 82.6272 61.6729 82.5425 62.59 83.1915C63.5071 83.8406 63.4211 85.1668 62.3034 86.3238L61.3863 87.255L62.3034 88.1862C63.2778 89.1739 63.5358 90.5001 62.8766 91.1491Z" fill="white"/>
<path d="M136.302 76.1085C133.723 74.8387 131.029 76.0521 130.284 78.8175C130.083 79.5512 129.997 82.7681 130.055 87.9039C130.141 94.9302 130.198 95.9743 130.657 96.7927C132.175 99.5016 136.417 99.5016 137.936 96.7927C138.395 95.9743 138.452 94.9302 138.538 87.8192C138.653 78.1685 138.481 77.1809 136.302 76.1085Z" fill="white"/>
</g>
<defs>
<clipPath id="clip0_115_163">
<rect width="104" height="37" fill="white" transform="translate(38 72)"/>
</clipPath>
</defs>
</svg>
