<svg width="180" height="180" viewBox="0 0 180 180" fill="none" xmlns="http://www.w3.org/2000/svg">
<path d="M37.9766 82.0107C36.4907 82.3291 35.9601 83.072 32.0862 90.0946C30.1227 93.6324 28.4068 96.7633 28.2653 97.0463L28 97.5593L28.9906 97.5063L29.9989 97.4532L31.5201 94.7114L33.0591 91.9696L36.7384 91.9165L40.4 91.8811V94.7114V97.5416H41.3022H42.1866L42.1335 90.9436C42.0805 84.5402 42.0628 84.3456 41.6913 83.6204C40.9307 82.2052 39.6394 81.6392 37.9766 82.0107ZM39.5156 83.8326C40.2585 84.2218 40.4354 85.0178 40.3646 87.8127L40.3116 90.2007L37.2691 90.2538C35.0049 90.2891 34.2089 90.2361 34.2089 90.0946C34.2089 89.7762 37.0037 84.7878 37.4459 84.2926C38.1358 83.5673 38.7372 83.4258 39.5156 83.8326Z" fill="#808080"/>
<path d="M47.5994 81.9754C46.0427 82.3646 45.0168 83.1783 44.2738 84.6288C43.8493 85.4071 43.8493 85.5132 43.7962 91.4744L43.7432 97.5417H44.6276H45.5298L45.5651 94.1631L45.6182 90.7668L49.9343 94.1631L54.2681 97.5417H55.5948C56.6915 97.5241 56.8861 97.4887 56.6562 97.3118C56.5146 97.188 54.8873 95.9144 53.0653 94.4639L49.7397 91.8282L50.748 91.3329C52.7292 90.3954 53.6667 88.9449 53.6667 86.8576C53.6667 85.2656 53.1537 84.0981 52.0216 83.1075C50.8718 82.0815 49.0499 81.6216 47.5994 81.9754ZM49.8989 83.8327C50.748 84.1865 51.1549 84.558 51.5617 85.3717C52.1808 86.5745 51.9509 88.1489 51.0487 89.1041C50.3589 89.847 49.7221 90.1124 48.7138 90.1124C46.8387 90.1124 45.5298 88.768 45.5298 86.8222C45.5298 84.5226 47.8116 82.966 49.8989 83.8327Z" fill="#808080"/>
<path d="M76.8923 82.0637C72.8946 82.9305 70.1528 86.9636 70.8073 90.9967C71.4618 95.0121 74.8758 97.7185 79.3157 97.7185C81.5622 97.7185 83.4373 97.0817 84.7993 95.8258C85.4538 95.242 85.5069 95.1359 85.5069 94.2338V93.2786L84.6755 93.9684C82.9066 95.4366 81.0139 96.0557 78.6789 95.8965C77.0338 95.8081 75.4418 95.189 74.3451 94.2161C73.5137 93.4908 72.7708 92.0934 72.647 90.9967L72.5408 90.1122H79.298H86.0376V89.4047C86.0376 87.4589 85.1708 85.3362 83.8264 83.9918C82.7297 82.8951 81.7922 82.3821 80.2179 82.046C78.8027 81.7453 78.3251 81.763 76.8923 82.0637ZM80.0763 83.8326C81.8806 84.2925 82.942 85.2124 83.7203 86.9282C83.9149 87.3704 84.0918 87.9011 84.0918 88.1134V88.5202H78.3605H72.6116L72.7531 88.0249C73.3191 86.0437 75.2472 84.2395 77.3169 83.7619C78.3251 83.5319 78.9619 83.5319 80.0763 83.8326Z" fill="#808080"/>
<path d="M103.727 82.0462C102.276 82.3469 101.109 82.9837 99.9767 84.0627C98.3317 85.6193 97.5356 87.3706 97.5356 89.3871C97.5356 91.0499 98.0663 91.8636 101.003 94.8707L103.603 97.5417H104.753H105.903L104.947 96.4981C104.417 95.9144 102.984 94.3577 101.746 93.031C100.49 91.7221 99.4814 90.5192 99.4814 90.3777C99.4814 90.1477 100.401 90.1124 106.133 90.1124H112.801L112.713 88.7326C112.518 85.4248 110.219 82.7537 106.964 82.0638C105.549 81.7631 105.036 81.7631 103.727 82.0462ZM107.477 84.0096C109.034 84.5403 110.484 86.2738 110.873 88.025L110.979 88.5203H105.23C98.7739 88.5203 99.1453 88.6088 99.8352 87.1937C101.25 84.275 104.399 82.966 107.477 84.0096Z" fill="#808080"/>
<path d="M132.259 81.9753C131.215 82.1875 130.596 82.559 129.853 83.3727C128.668 84.6817 128.527 86.6806 129.517 88.078L130.066 88.8563L129.553 88.9624C128.65 89.157 127.483 90.0592 126.952 90.9436C126.528 91.6689 126.457 91.9873 126.457 93.0309C126.475 95.702 128.314 97.4886 131.251 97.6831C134.116 97.86 136.345 96.3918 136.876 93.9508C136.982 93.4731 136.982 93.4731 136.009 93.4731C135.16 93.4731 135.036 93.5262 135.036 93.8092C135.036 94.2868 134.223 95.189 133.427 95.5958C132.631 96.0204 131.056 96.0734 130.207 95.7197C129.34 95.3482 128.367 94.1807 128.226 93.3139C128.137 92.7302 128.191 92.4118 128.527 91.7573C129.128 90.5545 129.871 90.2184 132.171 90.1476L133.975 90.0769V89.3162V88.5733L133.073 88.4672C131.463 88.2726 130.526 87.282 130.667 85.9199C130.773 84.894 131.198 84.3102 132.153 83.8857C133.603 83.2489 135.16 83.7088 135.744 84.947C135.991 85.46 136.08 85.5131 136.858 85.5131C137.813 85.5131 137.884 85.3362 137.353 84.1864C136.557 82.4529 134.417 81.5154 132.259 81.9753Z" fill="#808080"/>
<path d="M53.8435 82.9483V83.7266L56.1077 83.7797L58.3542 83.8327L58.4073 90.6784L58.4427 97.5417H59.2387H60.0347L60.07 90.6784L60.1231 83.8327L62.3873 83.7797L64.6338 83.7266V82.9483V82.1523H59.2387H53.8435V82.9483Z" fill="#808080"/>
<path d="M66.8452 84.9295C65.9784 86.4507 64.6694 88.6972 63.9618 89.9178C62.3698 92.6773 62.0514 93.6678 62.3345 94.9061C62.6175 96.0736 63.4489 96.9049 64.6694 97.2764C65.3416 97.471 66.4206 97.5417 68.8263 97.5417H72.0634V96.6573V95.7728H68.7556C65.7484 95.7728 65.377 95.7375 64.8463 95.4191C64.1918 95.0122 63.8734 94.3223 64.0149 93.6325C64.068 93.3671 65.4831 90.8199 67.1282 87.9543C68.791 85.1064 70.2238 82.6299 70.3122 82.453C70.4714 82.1877 70.383 82.1523 69.4631 82.1523L68.4372 82.17L66.8452 84.9295Z" fill="#808080"/>
<path d="M87.0991 89.8645V97.5769L90.1593 97.5061C93.078 97.4531 93.2372 97.4354 94.2101 96.9578C95.9613 96.091 96.8281 94.729 96.8281 92.8362C96.8104 91.3504 95.8198 89.776 94.5285 89.1923C93.9271 88.927 93.8917 88.8385 94.2809 88.5024C94.8292 88.0602 95.2361 86.9635 95.2361 85.9552C95.2361 84.3455 94.4931 83.2311 92.9365 82.5235C92.2643 82.2051 91.769 82.1521 89.6287 82.1521H87.0991V89.8645ZM92.3528 84.1509C93.1134 84.5578 93.5202 85.1946 93.5202 86.0083C93.5202 87.6534 92.3705 88.5024 90.1593 88.5201H88.868V86.1144V83.691L90.3362 83.7795C91.2207 83.8325 92.0167 83.974 92.3528 84.1509ZM93.6264 90.6605C95.6075 91.7572 95.5191 94.3398 93.4672 95.3658C92.795 95.7196 92.4058 95.7726 90.7784 95.7726H88.868V92.9247V90.0591L90.8669 90.1475C92.565 90.2006 92.9719 90.289 93.6264 90.6605Z" fill="#808080"/>
<path d="M113.986 89.847V97.5417H116.18C118.78 97.5417 119.894 97.3472 121.363 96.6573C124.883 95.0122 126.51 90.9084 125.166 87.0522C124.671 85.6547 123.839 84.5403 122.619 83.6382C120.991 82.453 119.806 82.1523 116.622 82.1523H113.986V89.847ZM119.381 84.0096C122.212 84.7526 123.768 86.8222 123.768 89.847C123.786 90.926 123.68 91.4567 123.397 92.1289C122.265 94.6584 120.372 95.7728 117.223 95.7728H115.578V89.7586V83.7443H116.958C117.719 83.7443 118.815 83.8681 119.381 84.0096Z" fill="#808080"/>
<path d="M138.928 88.7326C138.928 94.7822 138.963 95.3837 139.264 96.0558C140.131 97.9839 142.766 98.267 144.376 96.6042C144.677 96.2858 146.446 93.0487 148.462 89.1394L152 82.2407L151.098 82.1876C150.602 82.1523 150.125 82.2053 150.054 82.2761C149.966 82.3645 148.48 85.2125 146.729 88.6088C144.995 92.0227 143.332 95.0652 143.032 95.3837C142.377 96.1089 141.652 96.1443 141.033 95.4898L140.608 95.0299L140.555 88.5911L140.502 82.1523H139.724H138.928V88.7326Z" fill="#808080"/>
</svg>
