<svg width="180" height="180" viewBox="0 0 180 180" fill="none" xmlns="http://www.w3.org/2000/svg">
<path fill-rule="evenodd" clip-rule="evenodd" d="M51.8679 74.6584L50.3671 78.7693H71.1641L72.6649 74.6584H51.8679ZM49.6163 80.8238L48.1156 84.9337H68.9125L70.4133 80.8238H49.6163ZM47.3694 86.9891L45.8687 91.099H66.6656L68.1654 86.9891H47.3694Z" fill="#808080"/>
<path fill-rule="evenodd" clip-rule="evenodd" d="M90.0818 92.6655V92.7523C91.0322 93.1011 91.9401 93.7111 92.4157 94.1029C93.8854 95.3229 94.5341 96.9347 94.5341 99.0259C94.5341 102.469 92.7184 104.952 89.7356 105.736C88.8278 105.997 87.8773 106.085 86.1041 106.085H77.0708V80.9028H85.0676C86.7103 80.9028 87.8338 80.9896 88.8278 81.2507C91.7244 82.0352 93.6262 84.0396 93.6262 87.2193C93.6262 88.9187 93.021 90.357 92.0271 91.3149C91.5949 91.7505 90.9896 92.2738 90.0818 92.6655ZM82.0849 95.3229V101.945H85.5433C86.5798 101.945 87.5312 101.859 88.2235 101.205C88.9148 100.551 89.2174 99.7236 89.2174 98.6341C89.2174 97.8068 89.0008 97.0224 88.5686 96.4562C87.8338 95.5412 86.926 95.3229 85.3703 95.3229H82.0849ZM82.0414 90.9661H84.8511C85.7155 90.9661 86.1476 90.9661 86.5798 90.8355C87.7478 90.4867 88.4826 89.442 88.4826 88.0037C88.4826 86.3052 87.7043 85.5637 86.5798 85.2158C86.1041 85.0852 85.6294 85.0414 84.678 85.0414H82.0414V90.9661ZM102.055 106.085V85.1281H94.8367V80.9028H114.894L113.468 85.1281H107.069V106.085H102.055ZM116.45 106.085V80.9028H132.704L131.277 85.1281H121.421V90.7049H125.442C128.683 90.7049 130.37 91.4894 131.537 92.4911C132.444 93.2756 134 95.0179 134 98.4606C134 101.859 132.401 103.732 131.061 104.69C129.505 105.779 127.863 106.085 124.534 106.085H116.45ZM121.421 101.859H125.182C126.609 101.859 127.473 101.51 128.078 100.725C128.381 100.334 128.813 99.6359 128.813 98.3291C128.813 97.0224 128.381 96.1073 127.516 95.4535C126.998 95.0617 126.306 94.8444 125.139 94.8444H121.421V101.859Z" fill="#808080"/>
</svg>
