<svg width="180" height="180" viewBox="0 0 180 180" fill="none" xmlns="http://www.w3.org/2000/svg">
<path d="M152.499 90.116L154.343 92.4152C152.458 94.4823 150.067 95.0518 148.162 95.0518C146.358 95.0518 145 94.7565 143.886 94.1659C141.433 92.9003 140.197 90.327 140.197 87.2052C140.197 82.4593 143.277 79 147.817 79C152.843 79 155.296 82.9233 154.972 88.0278L143.46 88.0489C143.521 89.3355 144.23 90.559 145.223 91.1707C146.054 91.698 147.027 91.9722 148.364 91.9722C149.763 91.9722 151.222 91.466 152.499 90.116ZM143.501 85.2857H151.628C151.425 83.4295 149.966 81.8687 147.614 81.8687C145.223 81.8687 143.784 83.5983 143.501 85.2857ZM66.2429 94.651H70.3981L63.8715 86.7834L70.2961 79.3797H66.2022L61.2977 85.3068H59.859V79.3797H56.6771V94.651H59.859V88.5762H61.3184L66.2429 94.651ZM79.7607 82.1218C77.1064 82.1218 75.3432 84.2733 75.3432 87.0154C75.3432 89.7575 77.1064 91.9089 79.7607 91.9089C82.4771 91.9089 84.159 89.7996 84.159 87.0154C84.159 84.2944 82.517 82.1218 79.7607 82.1218ZM80.3083 79C84.4428 79 87.4829 82.3749 87.4829 87.0154C87.4829 91.5925 84.4627 95.0518 80.3083 95.0518C78.2813 95.0518 76.7007 94.3346 75.5656 93.0479V101H72.3637V79.3797H75.4851V81.2148C76.7007 79.6961 78.2813 79 80.3083 79ZM122.078 79.3797H108.945V82.4382H113.911V94.651H117.113V82.4382H122.078V79.3797ZM54.468 79.3797H41.335V82.4382H46.3004V94.651H49.5027V82.4382H54.468V79.3797ZM37.4438 87.0154C37.4438 84.1678 35.4982 82.0585 32.8635 82.0585C30.2491 82.0585 28.2832 84.1046 28.2832 87.0154C28.2832 89.884 30.1883 91.9933 32.8635 91.9933C35.478 91.9933 37.4438 89.9051 37.4438 87.0154ZM25 87.0154C25 82.4382 28.4048 79 32.8635 79C37.3223 79 40.727 82.4382 40.727 87.0154C40.727 91.5925 37.3223 95.0518 32.8635 95.0518C28.4048 95.0518 25 91.5925 25 87.0154ZM137.603 79.3797V94.651H134.462V84.8006L126.78 94.651H124.267V79.3797H127.408V89.209L135.11 79.3797H137.603ZM106.756 94.651H103.575V79.3797H106.756V94.651ZM98.6094 89.4411C98.6094 88.07 97.6975 87.1208 96.4406 87.1208H93.2179V91.8245H96.4406C97.6975 91.8245 98.6094 90.8121 98.6094 89.4411ZM101.771 89.4411C101.771 92.4996 99.6432 94.651 96.5418 94.651H90.0766V79.3797H93.2386V84.3154H96.8256C99.8656 84.3154 101.771 86.3615 101.771 89.4411Z" fill="#808080"/>
</svg>
