<svg width="180" height="180" viewBox="0 0 180 180" fill="none" xmlns="http://www.w3.org/2000/svg">
<path d="M47.2198 92.054H43.6847C43.6698 92.3464 43.598 92.6327 43.4734 92.8954C43.3489 93.1582 43.1743 93.3921 42.9601 93.5829C42.7446 93.7748 42.4944 93.9203 42.2241 94.0111C41.9538 94.1018 41.6688 94.1358 41.3857 94.1112C39.6923 94.1112 38.7422 92.8271 38.7422 90.5555V90.4191C38.7422 88.1302 39.7466 86.8634 41.3377 86.8634C41.6031 86.8418 41.87 86.8775 42.1215 86.968C42.3731 87.0586 42.6038 87.2021 42.7993 87.3896C42.9945 87.575 43.1497 87.801 43.2547 88.0529C43.3598 88.3048 43.4124 88.5768 43.4091 88.8513H47.0548C46.7625 85.5229 44.5345 84.0071 41.321 84.0071C40.4849 83.9659 39.6496 84.1049 38.8679 84.4154C38.0862 84.7259 37.3751 85.201 36.7794 85.8109C36.1881 86.4103 35.7246 87.1317 35.4189 87.9284C35.1132 88.7252 34.972 89.5796 35.0046 90.4364V90.575C35.0046 94.4317 37.1344 97 41.4567 97C44.6535 97 46.9692 95.3066 47.2198 92.054ZM54.006 96.7835V91.831H58.0673V96.7835H61.6045V84.2063H58.0631V89.0115H54.006V84.2063H50.4563V96.7835H54.006ZM76.4987 91.6296V84.2063H72.9176V91.4758C72.9176 93.3577 72.4457 94.1654 70.982 94.1654C69.4786 94.1654 69.0464 93.2992 69.0464 91.5278V84.2063H65.5071V91.6859C65.5071 95.2048 67.4907 97 70.982 97C74.3876 97 76.4945 95.2914 76.4945 91.6339L76.4987 91.6296ZM88.6095 96.7835V93.99H83.9468V84.2063H80.3866V96.7835H88.6095ZM97.1016 87.1254L98.4505 91.9609H95.736L97.1016 87.1254ZM91.0943 96.7835H94.3955L95.0532 94.4426H99.1479L99.8057 96.7835H103.554L99.6345 84.2236H95.0491L91.0943 96.7835ZM109.927 96.7835V91.5213L113.476 96.7835H117.588L112.814 90.0488L117.341 84.202H113.641L109.924 89.1826V84.202H106.375V96.7835H109.927ZM132.077 90.484V90.3433C132.077 86.4454 129.3 84.0244 125.531 84.0244C124.686 83.97 123.839 84.0957 123.043 84.3936C122.247 84.6916 121.518 85.1555 120.901 85.7568C120.289 86.355 119.804 87.0789 119.476 87.8823C119.149 88.6858 118.986 89.5512 118.999 90.4234V90.575C118.999 94.3538 121.49 96.9935 125.472 96.9935C129.454 96.9935 132.077 94.3711 132.077 90.497V90.484ZM122.693 90.5533V90.4126C122.693 88.1237 123.783 86.8395 125.524 86.8395C127.266 86.8395 128.379 88.1605 128.379 90.3953V90.536C128.379 92.7881 127.297 94.1589 125.549 94.1589C123.835 94.1589 122.693 92.8488 122.693 90.5598V90.5533ZM137.936 96.7835H141.955L146 84.2236H142.678L140.151 93.0501L137.646 84.2236H133.837L137.936 96.7835Z" fill="#808080"/>
</svg>
