<svg width="180" height="180" viewBox="0 0 180 180" fill="none" xmlns="http://www.w3.org/2000/svg">
<path d="M90.2971 88.7154C89.6416 88.4632 88.7842 88.3877 87.8512 88.3877H82.6564V86.7738H91.5832V84H79V96.0031H87.5234C88.7086 96.0031 89.5909 95.9023 90.2468 95.6499C91.6337 95.1204 92.5667 93.8344 92.5667 92.1449C92.5667 90.4303 91.6841 89.245 90.2971 88.7154ZM88.4815 92.8762C88.2799 92.9519 88.0025 92.977 87.6493 92.977H82.6564V91.0605H87.6493C88.0529 91.0605 88.3806 91.0859 88.6329 91.2119C88.9354 91.3632 89.0868 91.6406 89.0868 91.9935C89.0868 92.3466 88.9103 92.7249 88.4815 92.8762Z" fill="#808080"/>
<path d="M102.819 84H97.473L92.5557 96.0031H96.6913L97.3721 94.2631H102.92L103.626 96.0031H107.736L102.819 84ZM98.2798 91.6153L100.02 86.7738H100.297L102.037 91.6153H98.2798Z" fill="#808080"/>
<path d="M112.442 91.5399V96.0032H108.786V84H112.442V88.3878H118.318V84H121.974V96.0032H118.318V91.5399H112.442Z" fill="#808080"/>
<path d="M127.762 91.4643V96.0032H124.105V84H127.762V88.5139H128.771L133.184 84H137.773L131.923 89.7494L138 96.0032H133.133L128.771 91.4643H127.762Z" fill="#808080"/>
<path d="M43 77H72V90.5849C72 94.3238 70.0054 97.7789 66.7676 99.6485L57.5001 105L48.2325 99.6485C44.9946 97.7789 43 94.3238 43 90.5849L43 77Z" fill="#808080"/>
<path fill-rule="evenodd" clip-rule="evenodd" d="M51 84V88.5077C51.6164 87.8116 52.7372 87.3406 54.0186 87.3406H55.4111V92.5807C55.4111 93.9748 55.0323 95.3399 54.4703 96.0111H60.5276C59.9668 95.3392 59.5889 93.9758 59.5889 92.5834V87.3406H60.9815C62.2629 87.3406 63.3836 87.8116 64 88.5077V84H51Z" fill="#1F1F1F"/>
</svg>
