<svg width="180" height="180" viewBox="0 0 180 180" fill="none" xmlns="http://www.w3.org/2000/svg">
<path d="M51.7361 90.9368C51.7047 91.8868 52.0269 92.8146 52.6403 93.5407C52.9302 93.8707 53.2889 94.1331 53.6912 94.3095C54.0935 94.4858 54.5296 94.5718 54.9687 94.5613C55.4028 94.5725 55.834 94.4868 56.2308 94.3102C56.6275 94.1336 56.9799 93.8707 57.2621 93.5407C57.8924 92.8232 58.223 91.8911 58.1857 90.9368C58.2203 89.9828 57.8868 89.0519 57.2544 88.3368C56.9721 88.0068 56.6198 87.7439 56.223 87.5673C55.8262 87.3907 55.3951 87.3049 54.9609 87.3162C54.5218 87.3057 54.0857 87.3917 53.6835 87.568C53.2812 87.7444 52.9224 88.0068 52.6326 88.3368C52.0225 89.0628 51.7031 89.9891 51.7361 90.9368ZM60.2735 96.1718C59.6333 96.8252 58.8661 97.3406 58.0192 97.6863C57.1723 98.032 56.2636 98.2007 55.349 98.1819C54.0541 98.2423 52.7829 97.8191 51.7827 96.9944V103.355H47.774V84.0138H51.7361C52.9345 83.8228 54.1438 83.7087 55.3568 83.6723C56.2713 83.6535 57.18 83.8222 58.027 84.1679C58.8739 84.5136 59.6411 85.0291 60.2812 85.6825C61.5968 87.0135 62.2875 88.7675 62.2875 90.9368C62.2875 93.1061 61.5968 94.8523 60.2812 96.1795" fill="#808080"/>
<path d="M80.5381 93.3814C81.1814 92.7013 81.5373 91.7991 81.5315 90.8629C81.5439 90.3987 81.4602 89.9369 81.2856 89.5066C81.111 89.0763 80.8493 88.6868 80.5169 88.3624C80.1846 88.0381 79.7887 87.786 79.3543 87.622C78.9199 87.4579 78.4562 87.3855 77.9924 87.4092C77.5338 87.3957 77.0776 87.4794 76.6536 87.6546C76.2296 87.8298 75.8474 88.0926 75.5321 88.4259C75.2185 88.7482 74.9719 89.1296 74.8067 89.5479C74.6415 89.9663 74.5609 90.4132 74.5697 90.8629C74.5694 91.7896 74.9266 92.6806 75.567 93.3504C75.8706 93.6932 76.2443 93.9669 76.6627 94.153C77.0811 94.3391 77.5345 94.4333 77.9924 94.4292C78.467 94.4497 78.9404 94.367 79.3799 94.1868C79.8194 94.0066 80.2146 93.7331 80.5381 93.3853M81.5315 84.0175H85.5751V97.879H81.5315V96.8584C80.4471 97.7452 79.0825 98.217 77.682 98.1895C76.7289 98.2095 75.7816 98.0369 74.8967 97.6822C74.0119 97.3275 73.2078 96.7978 72.5324 96.125C71.8377 95.455 71.2902 94.6476 70.9248 93.7543C70.5593 92.861 70.3839 91.9014 70.4097 90.9366C70.3853 89.9737 70.5614 89.0163 70.9268 88.1251C71.2922 87.2339 71.839 86.4285 72.5324 85.7599C73.2061 85.0828 74.0092 84.5482 74.894 84.1882C75.7787 83.8282 76.7269 83.65 77.682 83.6644C78.9711 83.6961 80.2569 83.8102 81.5315 84.0059" fill="#808080"/>
<path d="M107.089 87.7197V97.8791H103.073V84.0137H111.575V87.7197H107.089Z" fill="#808080"/>
<path d="M60.4326 78.0725V81.7785H64.3132V97.8791H68.3452V78.088L60.4326 78.0725Z" fill="#808080"/>
<path d="M115.681 77.1567C116.03 77.1504 116.377 77.2145 116.701 77.3453C117.025 77.476 117.319 77.6707 117.566 77.9178C117.813 78.1648 118.008 78.4591 118.139 78.783C118.27 79.107 118.334 79.454 118.327 79.8033C118.317 80.4991 118.034 81.1632 117.539 81.6524C117.044 82.1416 116.377 82.4168 115.681 82.4188C114.983 82.4188 114.314 82.1416 113.82 81.6482C113.327 81.1547 113.05 80.4855 113.05 79.7877C113.05 79.0899 113.327 78.4207 113.82 77.9273C114.314 77.4339 114.983 77.1567 115.681 77.1567Z" fill="#808080"/>
<path d="M113.675 84.0137H117.718V97.8791H113.675V84.0137Z" fill="#808080"/>
<path d="M123.993 84.0137L126.089 87.5489L128.184 84.0137H132.709L128.343 90.7465L133 97.8791H128.522L126.089 93.9441L123.687 97.8791H119.158L123.815 90.7465L119.468 84.0137H123.993Z" fill="#808080"/>
<path d="M94.2831 103.355H90.0416L92.304 97.8674L86.8983 84.0137H91.3688L94.4733 92.5859L97.7019 84.0137H102.002L94.2831 103.355Z" fill="#808080"/>
</svg>
