<svg width="180" height="180" viewBox="0 0 180 180" fill="none" xmlns="http://www.w3.org/2000/svg">
<path fill-rule="evenodd" clip-rule="evenodd" d="M50.6842 78.066C48.3252 77.8063 45.9472 78.3166 43.877 79.5268C41.8067 80.7369 40.146 82.5876 39.1229 84.8243C38.0998 87.061 37.7646 89.5739 38.1635 92.0178C38.5623 94.4616 39.6756 96.7164 41.3503 98.4721C43.025 100.228 45.1789 101.398 47.5159 101.823C49.8529 102.247 52.2583 101.905 54.4015 100.842C56.5447 99.78 58.3205 98.0499 59.4847 95.89C60.649 93.73 61.1446 91.2461 60.9034 88.7798C60.638 86.0384 59.4769 83.4762 57.6155 81.5248C55.7542 79.5734 53.3064 78.3519 50.6842 78.066ZM50.3122 96.3504C49.0435 96.5283 47.7533 96.2862 46.623 95.6582C45.4927 95.0301 44.5791 94.0477 44.0107 92.849C43.4422 91.6502 43.2474 90.2954 43.4536 88.975C43.6599 87.6546 44.2569 86.4349 45.1606 85.4874C46.0643 84.5399 47.2294 83.9121 48.4922 83.6924C49.7549 83.4727 51.0517 83.6721 52.2004 84.2625C53.3491 84.8529 54.292 85.8046 54.8964 86.984C55.5009 88.1634 55.7365 89.511 55.5703 90.8376C55.3958 92.2329 54.7861 93.5293 53.8356 94.5258C52.885 95.5224 51.6467 96.1637 50.3122 96.3504ZM67.0444 78.5408C66.6461 78.5418 66.2531 78.6355 65.894 78.8153C65.5348 78.995 65.2185 79.2561 64.968 79.5797C64.7176 79.9033 64.5393 80.2812 64.4462 80.6858C64.353 81.0905 64.3474 81.5117 64.4296 81.919C64.6815 83.2383 65.8606 84.1397 67.145 84.1397H74.5985L62.9991 100.183C62.9133 100.302 62.8608 100.443 62.8474 100.591C62.834 100.738 62.8603 100.887 62.9234 101.02C62.9864 101.154 63.0837 101.266 63.2043 101.344C63.3249 101.423 63.464 101.465 63.6062 101.466H81.801C83.0845 101.466 84.2644 100.564 84.5163 99.2448C84.5986 98.8376 84.593 98.4164 84.4999 98.0118C84.4068 97.6072 84.2287 97.2294 83.9783 96.9058C83.728 96.5822 83.4118 96.3209 83.0527 96.1411C82.6937 95.9613 82.3008 95.8674 81.9026 95.8662H72.8211L84.4116 79.8351C84.4982 79.7155 84.5512 79.5731 84.5647 79.4237C84.5782 79.2744 84.5516 79.1241 84.4879 78.9897C84.4242 78.8553 84.3259 78.7421 84.2041 78.6628C84.0823 78.5835 83.9417 78.5412 83.7982 78.5408H67.0444ZM139.75 78.6054C139.147 78.7551 138.612 79.1151 138.232 79.6261C137.852 80.137 137.65 80.7682 137.66 81.4152V90.7372L123.207 78.7168C123.094 78.6228 122.958 78.5641 122.814 78.5476C122.67 78.531 122.524 78.5572 122.394 78.6231C122.264 78.6891 122.154 78.7921 122.078 78.9204C122.001 79.0486 121.96 79.1969 121.961 79.3482V98.596C121.951 99.2431 122.153 99.8743 122.533 100.385C122.913 100.896 123.448 101.256 124.051 101.406C124.442 101.496 124.847 101.493 125.237 101.397C125.627 101.302 125.992 101.116 126.304 100.853C126.616 100.591 126.867 100.258 127.04 99.8805C127.213 99.5028 127.302 99.0894 127.301 98.6708V89.2682L141.754 101.289C141.867 101.383 142.004 101.441 142.147 101.458C142.291 101.475 142.437 101.448 142.567 101.382C142.697 101.316 142.807 101.213 142.883 101.085C142.96 100.957 143 100.809 143 100.658V81.3395C143 80.921 142.911 80.5078 142.738 80.1302C142.566 79.7526 142.314 79.4204 142.002 79.158C141.69 78.8956 141.326 78.7097 140.936 78.6141C140.546 78.5184 140.141 78.5155 139.75 78.6054ZM102.119 83.6038C108.232 83.6038 112.8 86.9801 112.8 90.0003C112.8 93.0205 108.232 96.3969 102.119 96.3969C96.0064 96.3969 91.4389 93.0205 91.4389 90.0003C91.4389 86.9801 96.0064 83.6038 102.119 83.6038ZM102.119 78.0051C93.2711 78.0051 86.0984 83.3756 86.0984 90.0003C86.0984 96.6251 93.2711 101.996 102.119 101.996C110.968 101.996 118.14 96.6251 118.14 90.0003C118.14 83.3756 110.967 78.0051 102.119 78.0051Z" fill="#808080"/>
</svg>
