<svg width="180" height="180" viewBox="0 0 180 180" fill="none" xmlns="http://www.w3.org/2000/svg">
<path d="M110.888 100.052C109.978 100.641 109.035 101.18 108.065 101.665C109.033 101.177 109.976 100.638 110.888 100.052Z" fill="white"/>
<path d="M109.638 102.176C110.149 101.54 110.566 100.834 110.875 100.079C110.58 100.841 110.162 101.549 109.638 102.176Z" fill="#FF6900"/>
<path d="M106.828 107.044C106.656 107.45 106.434 107.834 106.169 108.187C106.422 107.826 106.642 107.444 106.828 107.044Z" fill="#FF6900"/>
<path d="M104.972 107.393C105.402 107.205 105.806 107.003 106.169 106.815C105.785 107.037 105.385 107.23 104.972 107.393Z" fill="white"/>
<path d="M104.609 109.881C105.202 109.414 105.727 108.866 106.169 108.254C105.73 108.869 105.205 109.417 104.609 109.881Z" fill="#FF6900"/>
<path d="M103.426 110.674C103.708 110.513 103.977 110.338 104.233 110.163C103.964 110.338 103.708 110.513 103.426 110.674Z" fill="#FF6900"/>
<path d="M109.638 102.19C106.76 105.766 100.75 108.012 94.8473 108.724L94.7666 109.235V108.711C100.737 107.998 106.747 105.699 109.638 102.19Z" fill="#FF6900"/>
<path d="M101.691 113.041C101.587 113.255 101.46 113.457 101.315 113.646C101.449 113.448 101.57 113.247 101.678 113.041H101.691Z" fill="#FF6900"/>
<path d="M100.306 114.802L99.9297 115.111C100.067 115.023 100.193 114.919 100.306 114.802Z" fill="#FF6900"/>
<path d="M98.5852 104.906C99.4323 104.744 100.253 104.556 101.032 104.354C100.253 104.57 99.4323 104.744 98.5852 104.906Z" fill="white"/>
<path d="M99.1096 112.422C98.4061 112.611 97.6923 112.759 96.9717 112.866L99.1096 112.422Z" fill="#FF6900"/>
<path d="M94.5515 117.948C96.4182 117.399 98.1714 116.52 99.7282 115.353C98.1827 116.539 96.4259 117.419 94.5515 117.948Z" fill="white"/>
<path d="M96.4474 77.4627C96.9638 75.3789 97.9376 73.436 99.298 71.7751C100.643 70.296 102.256 69.8254 105.671 69.8254C110.377 69.8254 114.317 74.5988 114.317 81.2545C114.317 82.2361 112.973 82.2361 112.556 81.3352C110.956 78.4981 108.791 78.0947 105.362 77.8392C102.848 77.6913 99.7955 77.8392 97.0256 78.0275C96.5147 78.014 96.3668 77.651 96.4474 77.4627Z" fill="#808080"/>
<path d="M94.8204 109.235C94.8067 109.403 94.7797 109.569 94.7397 109.733L94.8204 109.235Z" fill="#FF6900"/>
<path d="M93.6909 113.148C93.5161 113.525 93.3547 113.861 93.1799 114.197C93.3547 113.874 93.5295 113.511 93.6909 113.148Z" fill="#FF6900"/>
<path d="M87.9361 118.943C84.5055 118.957 81.1122 118.232 77.9861 116.819C79.4981 114.057 80.5216 111.055 81.0114 107.945C84.6936 108.801 88.4585 109.252 92.2388 109.289C91.458 112.968 89.5386 116.309 86.7529 118.836C88.6451 118.919 90.5407 118.78 92.4002 118.419C90.9332 118.742 89.4378 118.917 87.9361 118.943Z" fill="#808080"/>
<path d="M92.2386 109.356C88.4583 109.319 84.6934 108.868 81.0112 108.012C81.1188 107.393 81.1995 106.761 81.2533 106.156C81.2533 105.833 81.3205 105.511 81.3339 105.202C81.3072 104.893 81.3072 104.582 81.3339 104.274C85.6204 105.405 90.0574 105.858 94.4841 105.618C95.838 105.525 97.185 105.35 98.5179 105.094C99.365 104.933 100.185 104.758 100.965 104.543C103.398 103.897 105.755 102.996 107.997 101.853C108.965 101.376 109.903 100.841 110.807 100.253C110.499 101.009 110.082 101.715 109.57 102.351C106.68 105.914 100.669 108.16 94.7799 108.872V109.397C94.796 109.568 94.7634 109.741 94.6858 109.894C97.706 109.72 100.686 109.114 103.533 108.092C103.991 107.933 104.44 107.749 104.878 107.541L106.075 106.963L106.585 106.667L107.029 106.385C106.948 106.681 106.841 106.963 106.733 107.245C106.548 107.645 106.328 108.028 106.075 108.388C105.633 109 105.108 109.548 104.515 110.015L104.138 110.298C103.883 110.472 103.614 110.647 103.332 110.808C102.006 111.539 100.585 112.082 99.1095 112.422C98.4103 112.601 97.6977 112.749 96.9716 112.866C95.8895 113.038 94.7987 113.15 93.7042 113.202C93.5429 113.565 93.3681 113.928 93.1933 114.251C96.0688 114.293 98.9341 113.899 101.691 113.081C101.584 113.287 101.463 113.489 101.328 113.686C101.032 114.105 100.694 114.492 100.32 114.842C100.198 114.944 100.068 115.034 99.9297 115.111L99.6339 115.367C98.1054 116.521 96.3847 117.395 94.5513 117.948C93.8633 118.169 93.1629 118.348 92.4537 118.486C90.5943 118.847 88.6987 118.987 86.8064 118.903C89.5745 116.37 91.475 113.03 92.2386 109.356Z" fill="white"/>
<path d="M82.1407 68.1849C82.4903 67.9564 82.45 67.3378 82.1407 66.8403C81.8315 66.3428 81.4416 65.9663 81.0382 65.9932L80.9709 65.8991C81.0357 65.7508 81.1298 65.6171 81.2477 65.5061C81.3655 65.3952 81.5047 65.3093 81.6567 65.2537C82.6517 64.9176 84.077 65.8991 84.8434 67.4454C85.6098 68.9917 85.4216 70.5111 84.4266 70.8338C83.4316 71.1565 82.0197 70.2018 81.2533 68.6555C81.1487 68.4579 81.0632 68.2508 80.9978 68.037H81.1726C81.2942 68.1665 81.4556 68.2514 81.6311 68.2782C81.8067 68.305 81.9861 68.2722 82.1407 68.1849Z" fill="black"/>
<path d="M81.4012 104.126C85.6922 105.258 90.1337 105.711 94.5648 105.471C95.9171 105.368 97.2634 105.198 98.5986 104.96C97.2657 105.215 95.9187 105.39 94.5648 105.484C90.1381 105.724 85.7012 105.27 81.4146 104.139C81.4257 104.45 81.4032 104.761 81.3474 105.067C81.3743 104.758 81.3877 104.435 81.4012 104.126Z" fill="white"/>
<path d="M81.2668 106.022L81.3475 105.067C81.3341 105.376 81.3072 105.699 81.2668 106.022Z" fill="white"/>
<path d="M81.0249 107.878C81.1235 107.259 81.2042 106.64 81.2669 106.022C81.2131 106.627 81.1056 107.259 81.0249 107.878Z" fill="white"/>
<path d="M84.8569 67.4185C84.0905 65.8723 82.6652 64.8907 81.6702 65.2269C81.5182 65.2825 81.379 65.3683 81.2612 65.4793C81.1433 65.5902 81.0492 65.7239 80.9844 65.8723L81.0517 65.9664C81.2904 66.0075 81.5155 66.1061 81.7076 66.2537C81.8997 66.4013 82.053 66.5934 82.1542 66.8135C82.3694 67.2437 82.4904 67.9564 82.1542 68.1581C81.9921 68.2303 81.8107 68.247 81.6381 68.2057C81.4656 68.1644 81.3114 68.0673 81.1996 67.9295H81.0248C81.0901 68.1433 81.1757 68.3504 81.2802 68.548C82.0467 70.0943 83.4719 71.0758 84.4535 70.7263C85.4351 70.3767 85.6233 68.9514 84.8569 67.4185ZM96.6759 85.5975C91.0824 80.4342 71.505 83.4192 73.0379 70.4977C73.1735 68.8903 73.8034 67.3643 74.841 66.1293C75.8786 64.8942 77.2732 64.0106 78.8331 63.5999C78.5446 64.0624 78.3271 64.5655 78.1877 65.0924L78.7524 65.2403C80.4063 62.4301 84.5611 62.5511 84.9107 65.3882C84.9107 65.3882 88.1915 68.7363 88.9445 69.422C89.1327 69.5833 89.2268 69.6909 89.1058 69.8523C88.9848 70.0136 88.5949 69.9464 88.1915 69.8523L88.057 70.1884C88.7428 70.7397 90.9479 71.2506 94.78 70.9952C96.0259 70.9943 97.2702 70.9089 98.5045 70.7397C96.7395 72.592 95.5083 74.8871 94.9414 77.382C94.8338 77.745 94.659 78.0946 93.8926 78.1619C86.4301 78.74 80.1508 77.8661 77.986 73.8592C77.744 73.3886 77.7977 73.0255 78.2011 72.7835C78.7316 72.5244 79.3368 72.4625 79.9088 72.6087L80.0701 72.2725C79.4435 71.8427 78.6876 71.6427 77.9304 71.7064C77.1732 71.7701 76.4613 72.0936 75.9153 72.6221C75.6056 73.0632 75.4519 73.595 75.4787 74.1333C75.5055 74.6716 75.7112 75.1856 76.0632 75.5937L76.4128 75.4592C76.3572 75.2443 76.3345 75.0221 76.3456 74.8004C76.3488 74.7579 76.3646 74.7173 76.3909 74.6838C76.4173 74.6503 76.453 74.6253 76.4935 74.6121C76.5333 74.6054 76.5741 74.6093 76.6119 74.6235C76.6497 74.6376 76.6831 74.6616 76.7086 74.6928C79.3171 78.5249 84.1846 79.8157 88.6486 80.7973C94.9951 82.1419 97.4557 85.2076 97.2406 85.9068C97.0524 86.0681 96.7835 85.6916 96.6759 85.5975Z" fill="white"/>
<path d="M96.676 85.5975C96.7835 85.6917 97.0525 86.0681 97.2407 85.8261C97.4558 85.1269 94.9952 82.115 88.6487 80.7166C84.1847 79.7351 79.3172 78.4443 76.7087 74.6122C76.6832 74.5809 76.6498 74.557 76.612 74.5428C76.5742 74.5287 76.5334 74.5248 76.4936 74.5315C76.4531 74.5447 76.4174 74.5696 76.391 74.6032C76.3647 74.6367 76.3489 74.6772 76.3457 74.7197C76.3346 74.9415 76.3573 75.1637 76.4129 75.3786L76.0633 75.5131C75.7113 75.1049 75.5056 74.591 75.4788 74.0527C75.452 73.5144 75.6057 72.9826 75.9154 72.5415C76.4614 72.013 77.1733 71.6895 77.9305 71.6257C78.6877 71.562 79.4436 71.762 80.0702 72.1919L79.9089 72.5281C79.3369 72.3819 78.7317 72.4438 78.2012 72.7028C77.7978 72.9449 77.7441 73.3079 77.9861 73.7785C80.1509 77.8123 86.4302 78.6594 93.8927 78.0812C94.6591 78.014 94.8339 77.6644 94.9415 77.3014C95.5084 74.8065 96.7396 72.5113 98.5046 70.6591C97.16 70.8473 95.8827 70.8876 94.7801 70.9414C90.9211 71.1969 88.716 70.686 88.0571 70.1347L88.1916 69.7985C88.595 69.9464 89.0252 69.9733 89.1059 69.7985C89.1866 69.6237 89.1059 69.5296 88.9445 69.3683C88.2185 68.6825 84.9108 65.3345 84.9108 65.3345C84.5612 62.4839 80.4064 62.3763 78.7525 65.1866L78.1878 65.0387C78.3272 64.5117 78.5447 64.0086 78.8332 63.5461C77.2652 63.96 75.8648 64.8516 74.8264 66.0972C73.788 67.3429 73.1629 68.8808 73.038 70.4977C71.5051 83.4193 91.0825 80.4343 96.676 85.5975ZM105.308 77.7989C108.737 78.0543 110.902 78.4577 112.502 81.2948C112.932 82.1957 114.263 82.1957 114.263 81.2141C114.263 74.5584 110.324 69.7851 105.618 69.7851C102.202 69.7851 100.643 70.2557 99.2442 71.7347C97.8992 73.4134 96.9439 75.3698 96.4474 77.4627C96.3667 77.6913 96.5146 78.0543 97.0256 78.0275C99.7803 77.8009 102.545 77.7246 105.308 77.7989ZM106.747 81.7654C104.339 81.5907 101.921 81.5907 99.5131 81.7654C100.629 83.1907 101.517 87.211 101.517 89.6986C101.517 90.9356 100.898 91.2986 100.32 91.2986C98.8811 91.2986 96.8373 88.2061 93.3817 86.6463C90.1551 85.2746 86.6951 84.5351 83.1897 84.4681C79.9895 84.4681 79.3038 86.6329 79.7878 89.5506C80.4755 92.9276 80.9826 96.3387 81.3072 99.7696C85.0713 100.909 88.9785 101.507 92.9111 101.544C99.7388 101.379 106.39 99.3422 112.139 95.6551C112.892 95.198 113.322 95.2114 113.483 95.7492C113.824 97.1727 113.835 98.6551 113.516 100.084C113.197 101.512 112.556 102.849 111.641 103.992C111.423 105.85 110.793 107.636 109.798 109.22C108.802 110.804 107.466 112.146 105.886 113.148C102.606 119.212 96.3264 122.56 88.9445 122.56C84.5089 122.508 80.1338 121.523 76.1037 119.67C73.7775 122.897 70.416 126.393 63.6527 130.09H59.8609C59.3197 130.061 58.7809 129.998 58.2474 129.902L57.6692 129.754L57.1045 129.579L56.5532 129.364L56.0154 129.122C64.204 125.747 69.4613 121.646 72.7422 117.384C76.2683 113.2 78.1767 107.89 78.1205 102.418C78.1205 89.4296 71.1555 80.636 71.1555 72.2591C71.1555 63.6672 78.2685 62.0402 80.9442 61.7309C80.7794 61.117 80.5305 60.5288 80.2047 59.983C80.0447 59.7343 79.8107 59.5421 79.5357 59.4336C79.2607 59.325 78.9585 59.3055 78.6718 59.3779C78.4681 59.4432 78.2973 59.5842 78.1946 59.7719C78.092 59.9596 78.0655 60.1796 78.1205 60.3863C78.1992 60.7193 78.3407 61.0342 78.5374 61.3141L78.1205 61.3948C77.9323 61.1797 77.7172 60.9511 77.4751 60.7225C76.9984 60.2622 76.3849 59.9696 75.7272 59.8888L75.8885 58.4367C78.2012 56.5542 81.9661 56.9711 83.6468 60.709C87.452 61.6099 90.2219 68.4136 93.57 68.4136C98.276 68.4136 100.199 67.3245 105.16 67.3245C111.211 67.3245 116.979 71.7482 116.979 80.878C116.979 85.0462 115.635 86.1892 113.349 86.1892C112.805 86.2356 112.259 86.1353 111.767 85.8988C111.275 85.6623 110.856 85.2983 110.552 84.8446C109.947 83.7958 109.799 82.2898 106.801 81.7654H106.747ZM106.115 106.815C105.752 107.004 105.349 107.205 104.918 107.393L103.574 107.945C100.732 108.968 97.7558 109.57 94.7398 109.733C94.7797 109.57 94.8067 109.403 94.8204 109.236L94.9011 108.725C100.75 108.012 106.76 105.766 109.692 102.19C110.224 101.559 110.651 100.846 110.956 100.079C110.162 100.59 109.221 101.141 108.132 101.706C105.889 102.848 103.532 103.75 101.1 104.395C100.32 104.597 99.4996 104.785 98.6525 104.946C97.3174 105.184 95.9711 105.355 94.6187 105.457C90.1876 105.698 85.7461 105.244 81.4551 104.113V105.054L81.3745 106.009C81.3117 106.627 81.231 107.246 81.1324 107.864C80.6426 110.974 79.6191 113.977 78.1071 116.738C81.2332 118.151 84.6265 118.876 88.0571 118.863C89.5566 118.859 91.0521 118.706 92.5212 118.406C93.2303 118.268 93.9307 118.088 94.6187 117.868C96.4932 117.339 98.2499 116.458 99.7954 115.273L99.9299 115.111L100.266 114.816C100.641 114.466 100.979 114.078 101.274 113.659C101.42 113.471 101.546 113.268 101.651 113.054C98.894 113.872 96.0287 114.267 93.1531 114.224C93.3279 113.888 93.4893 113.552 93.6641 113.175C94.7586 113.124 95.8494 113.012 96.9315 112.839C97.6659 112.748 98.3936 112.609 99.1097 112.422C100.624 112.046 102.077 111.458 103.426 110.674C103.708 110.513 103.977 110.338 104.233 110.163L104.609 109.881C105.205 109.417 105.73 108.869 106.169 108.254C106.435 107.901 106.656 107.518 106.828 107.111C106.935 106.829 107.043 106.546 107.123 106.251L106.68 106.546L106.115 106.815Z" fill="black"/>
<path d="M70.5101 65.1192L70.7252 64.9444L69.9184 64.5679C69.0041 64.0166 68.6948 63.2233 69.0041 62.672C69.2809 62.3402 69.6362 62.0828 70.0377 61.9232C70.4393 61.7635 70.8743 61.7066 71.3034 61.7577C72.4567 61.7874 73.5953 62.0243 74.6649 62.4569L74.9472 62.3493C74.6605 62.1254 74.4109 61.8577 74.2077 61.556C74.1296 61.4573 74.0719 61.3441 74.0377 61.2229C74.0035 61.1018 73.9937 60.9751 74.0087 60.8501C74.0237 60.7252 74.0632 60.6044 74.1251 60.4948C74.1869 60.3852 74.2698 60.2888 74.369 60.2114C74.7746 59.9611 75.2619 59.8791 75.7271 59.9828C76.3879 60.0664 77.0049 60.3584 77.4885 60.8165C77.7305 61.045 77.9457 61.2736 78.1339 61.4888L78.5507 61.4081C78.354 61.1282 78.2126 60.8133 78.1339 60.4803C78.0789 60.2736 78.1054 60.0536 78.208 59.8659C78.3106 59.6782 78.4815 59.5371 78.6852 59.4719C78.9691 59.3989 79.2687 59.4152 79.543 59.5187C79.8173 59.6222 80.053 59.8077 80.218 60.05C80.5435 60.5817 80.7924 61.1566 80.9576 61.7577C78.2684 62.0669 71.1689 63.6939 71.1689 72.2859C71.1689 80.6627 78.1339 89.4564 78.1339 102.445C78.1901 107.917 76.2817 113.227 72.7555 117.411C69.4613 121.673 64.2173 125.774 56.0287 129.149C54.4352 128.354 53.1083 127.111 52.2103 125.573C51.3123 124.035 50.8824 122.268 50.9731 120.49V111.077C53.8236 110.513 56.6338 109.988 56.6338 109.988L56.9834 108.456H50.9731V99.2316C54.2289 100.106 57.5692 100.629 60.9365 100.791C66.3149 100.791 69.394 97.6046 69.394 91.5136C69.394 84.0511 67.0007 77.2609 67.7805 72.9985L67.6595 72.7565C64.9703 75.5936 63.1686 74.8406 62.9803 73.9263C62.5904 72.0976 65.7771 69.8925 67.5923 69.0857C67.6129 68.9529 67.6585 68.8251 67.7267 68.7092C66.0325 68.9782 64.0291 68.7092 63.9619 67.5394C63.8274 66.1007 66.7183 64.8099 70.5101 65.1192Z" fill="#808080"/>
<path d="M59.8608 130.09H60.7617C60.4624 130.124 60.1602 130.124 59.8608 130.09Z" fill="black"/>
<path d="M64.6611 76.8441C60.3181 77.9198 57.9381 72.8103 63.1283 69.9328C59.0945 69.3547 60.2105 64.1107 66.1267 63.9494C64.7821 60.7627 67.915 59.4584 70.3353 60.2114C70.4698 57.8449 73.764 57.1457 75.8751 58.4365L75.7271 59.8887C75.2575 59.8084 74.7751 59.9145 74.3826 60.1845C74.2833 60.262 74.2004 60.3583 74.1386 60.4679C74.0767 60.5775 74.0372 60.6983 74.0222 60.8233C74.0072 60.9482 74.0171 61.0749 74.0512 61.1961C74.0854 61.3172 74.1431 61.4304 74.2212 61.5291C74.4244 61.8308 74.674 62.0986 74.9607 62.3224L74.6784 62.43C73.6088 61.9974 72.4702 61.7606 71.3169 61.7308C70.8832 61.6793 70.4436 61.7386 70.0392 61.9032C69.6347 62.0678 69.2786 62.3324 69.0042 62.672C68.6815 63.2771 68.9235 64.1107 69.905 64.6217L70.7118 64.9982L70.4967 65.173C66.7049 64.8637 63.7737 66.1545 63.8947 67.5933C63.8947 68.8168 65.9654 69.032 67.6596 68.7631C67.6338 68.8945 67.5884 69.0214 67.5251 69.1395C65.7099 69.9194 62.5232 72.1514 62.9131 73.9801C63.1014 74.8944 64.8763 75.6474 67.5923 72.8103L67.7806 73.0523C67.0007 77.3147 69.3941 84.1049 69.3941 91.5674C69.3941 97.6584 66.3688 100.845 60.9366 100.845C57.5711 100.671 54.2346 100.13 50.9866 99.2316V95.3457C54.0437 96.3014 57.2029 96.8927 60.3987 97.1071C63.8544 97.1071 66.3822 95.7625 66.3822 90.2497C66.4225 86.2428 64.9704 80.4476 64.6611 76.8441Z" fill="black"/>
<path d="M56.9835 108.456L56.6339 109.989C56.6339 109.989 53.8237 110.513 50.9731 111.078V108.483C53.1514 108.388 55.7061 108.388 56.9835 108.456Z" fill="black"/>
<path d="M56.0557 129.082L56.5935 129.324C56.4083 129.257 56.2285 129.176 56.0557 129.082Z" fill="#FF6900"/>
<path d="M50.9865 95.3457V99.2316V59.1089C50.8622 56.5628 51.7542 54.0716 53.4663 52.183C55.1783 50.2945 57.5703 49.1632 60.1164 49.0378H87.2503C110.861 49.0378 129 65.2806 129 89.3757C129 113.471 110.861 130.13 87.3175 130.13H63.7064C70.4294 126.379 73.8312 122.937 76.1574 119.71C80.1876 121.563 84.5626 122.548 88.9983 122.601C96.3801 122.601 102.659 119.212 105.94 113.189C107.52 112.186 108.856 110.844 109.851 109.26C110.847 107.676 111.477 105.89 111.695 104.032C112.609 102.889 113.25 101.552 113.57 100.124C113.889 98.6954 113.878 97.2129 113.537 95.7895C113.376 95.2516 112.946 95.2382 112.193 95.6953C106.444 99.3824 99.7925 101.42 92.9649 101.585C89.0323 101.547 85.1251 100.949 81.361 99.8098C81.0359 96.3701 80.5287 92.95 79.8416 89.564C79.3575 86.6462 80.0433 84.4814 83.2434 84.4814C86.7489 84.5485 90.2088 85.2879 93.4355 86.6597C96.8911 88.2194 98.9349 91.312 100.374 91.312C100.952 91.312 101.57 90.9489 101.57 89.7119C101.57 87.2244 100.683 83.204 99.5668 81.7788C101.975 81.604 104.393 81.604 106.801 81.7788C109.799 82.3032 109.947 83.8091 110.539 84.7907C110.842 85.2444 111.262 85.6084 111.753 85.8449C112.245 86.0814 112.792 86.1817 113.335 86.1353C115.568 86.1353 116.966 84.9924 116.966 80.8241C116.966 71.6943 111.198 67.2706 105.147 67.2706C100.185 67.2706 98.2626 68.3597 93.5565 68.3597C90.2084 68.3597 87.4386 61.556 83.6334 60.6552C81.9526 56.9172 78.1877 56.5004 75.875 58.3828C73.764 57.0382 70.4966 57.7912 70.3353 60.1577C67.915 59.4047 64.7821 60.7089 66.1267 63.8956C60.2105 64.057 59.1079 69.274 63.1283 69.8791C57.9516 72.8103 60.318 77.866 64.6611 76.7903C64.9569 80.3938 66.4225 86.2025 66.4225 90.2363C66.4225 95.8029 63.8947 97.0937 60.4391 97.0937C57.2298 96.8899 54.0564 96.3031 50.9865 95.3457Z" fill="#808080"/>
</svg>
