<svg width="180" height="180" viewBox="0 0 180 180" fill="none" xmlns="http://www.w3.org/2000/svg">
<path d="M52.4324 97.2162H54.4301C57.2601 97.2162 59.1468 95.8649 60.4231 92.7838L63.1422 85.9189C65.1954 80.7297 62.6983 77.5405 60.6451 77H51.4335L42 102.676H47.7156L50.9341 94.027L52.4324 97.2162ZM112.474 77.6486H106.925L109.311 82.2432H105.926L98.4347 102.676H103.429L112.474 77.6486ZM133.339 77.6486H128.455L119.188 102.622H124.072L127.734 92.6757L128.123 102.622H132.728L132.34 92.1892H129.343C131.84 90.6216 136.002 88.1351 138 87.1081L135.447 82.0811H135.225L127.901 92.1892L133.339 77.6486ZM56.8162 78.1351L58.8139 81.973L54.763 92.9459H51.378L56.8162 78.1351ZM85.6162 98.027L83.452 94.8378H83.2301C82.5087 96.2973 81.0104 98.6757 79.7896 99.2703C79.6786 98.2432 80.0671 96.6757 80.622 95.2162L83.896 86.5676H88.4462L90.1665 82.2432H85.3942L86.6705 78.9459H84.1734C82.7328 80.668 80.739 81.8675 78.5133 82.3514L79.4566 85.2162L75.9052 94.6757C75.3609 96.0204 75.0605 97.447 75.0173 98.8919C75.0173 101.649 76.4601 103 79.2347 103C82.0092 103 84.0069 100.946 85.6162 98.027ZM92.6636 82.2432L85.0058 102.676H90L95.9931 86.5676H98.0462C97.3774 88.6459 96.4256 90.6275 95.2162 92.4595H99.9884C100.821 91.1538 101.491 89.7567 101.986 88.2973C103.207 84.7838 102.874 81.973 100.321 81.973C98.4902 81.973 96.9919 83.4865 95.9376 85.3784L94.8832 82.1892L92.6636 82.2432ZM68.6913 89.1622C69.4682 87.6486 70.4116 86.4054 71.5769 85.973C71.9098 87.0541 71.6324 89.2162 70.9665 90.7838L67.1931 92.6216C67.637 91.4324 68.1364 90.2973 68.6913 89.1622ZM107.646 98.0811C107.646 101 108.978 102.946 112.363 102.946C115.249 102.946 117.357 101.216 118.966 98.3514L116.58 94.8378H116.358C115.471 96.6216 113.972 98.5676 112.64 99.2703C112.459 98.8618 112.383 98.4165 112.418 97.973C112.469 96.8122 112.693 95.6649 113.084 94.5676C113.641 92.7073 114.365 90.8984 115.249 89.1622C116.025 87.7027 116.913 86.4595 118.079 86.0811C118.198 86.4475 118.236 86.8345 118.19 87.2162C118.058 89.0197 117.627 90.7904 116.913 92.4595H121.408C122.234 90.7295 122.687 88.8531 122.74 86.9459C122.74 84.3514 121.464 81.973 118.412 81.973C115.36 81.973 113.029 83.8649 111.253 87.1081C109.866 89.4865 107.646 95.1622 107.646 98.0811ZM76.1827 86.8919C76.1827 84.2973 74.9064 81.9189 71.9098 81.9189C68.9133 81.9189 66.5827 83.8108 64.7514 87.0541C63.3642 89.5405 61.1445 95.1622 61.1445 98.1351C61.1445 101.108 62.4763 103 65.8058 103C68.6913 103 70.8 101.27 72.4092 98.4054L70.0231 94.8378H69.8012C68.9133 96.6216 67.415 98.5676 66.0832 99.2703C65.9022 98.8618 65.8261 98.4165 65.8613 97.973C65.9536 96.6317 66.2145 95.3064 66.6382 94.027H74.185C75.2948 91.8649 76.1827 89.0541 76.1827 86.8919Z" fill="#808080"/>
</svg>
