<svg width="180" height="180" viewBox="0 0 180 180" fill="none" xmlns="http://www.w3.org/2000/svg">
<path fill-rule="evenodd" clip-rule="evenodd" d="M143.721 80.7494H135.251V82.3262L136.614 90.8575C135.947 90.5745 135.253 90.3577 134.542 90.21H134.535C132.265 89.7378 130.086 89.9993 127.999 90.9946C127.146 91.3959 126.371 91.9481 125.714 92.6247C125.083 93.2661 124.547 93.9946 124.122 94.788L122.644 75.7983H106.024L105.947 76.7352C105.254 76.1182 104.34 75.8135 103.205 75.8211H103.198C102.878 75.8211 102.558 75.8287 102.238 75.8363C101.362 75.8592 100.257 75.844 98.9167 75.7983H94.4454V77.9387H91.8784L91.8251 75.7983H86.7063V77.9463L85.7542 77.992V82.4176L85.876 82.4329C85.9903 83.0041 85.579 83.2784 84.6573 83.2707H80.7953L80.7725 83.2631L71.3576 83.0956C73.2695 81.1075 73.6479 78.9289 72.4926 76.56C71.3373 74.191 69.5625 73.3074 67.1681 73.9092C64.7763 74.5109 63.4839 76.169 63.291 78.8832C63.2986 78.8985 63.291 78.9137 63.2834 78.9365C63.2757 78.9594 63.2757 78.9746 63.2681 78.9746C63.2605 78.9746 63.2529 78.9746 63.2453 78.967C63.2342 78.9432 63.2289 78.9171 63.23 78.8908L63.1005 78.5862C62.8175 77.9087 62.4236 77.2832 61.9351 76.7352C61.1148 75.8138 60.1835 74.9976 59.1624 74.3053C58.1379 73.6098 57.0197 73.0635 55.8413 72.6828C55.5138 72.8732 55.2015 73.0637 54.9044 73.2541C54.6049 73.4381 54.333 73.6638 54.097 73.9244C54.088 73.9305 54.0772 73.9332 54.0665 73.932C53.7923 73.8939 53.5105 73.8711 53.2286 73.8482H53.1981V73.8254C53.1905 73.7721 53.1829 73.7264 53.1753 73.6807C52.8935 72.4695 52.406 71.5555 51.7128 70.9308C50.7987 70.1082 49.6841 69.5674 48.3688 69.3084C47.0663 69.057 45.6342 68.9834 44.0727 69.0875C44.0651 69.0875 44.0575 69.0951 44.0499 69.1027C43.9889 69.1179 43.9508 69.1103 43.928 69.0875H43.8975L43.6461 69.1332C43.6354 69.132 43.6246 69.1347 43.6157 69.1408C43.5471 69.1484 43.4862 69.1637 43.4176 69.1713C43.4087 69.1773 43.3979 69.18 43.3872 69.1789C43.0596 69.2398 42.7245 69.3008 42.3969 69.3541C42.388 69.3601 42.3772 69.3628 42.3665 69.3617C42.3284 69.3693 42.2903 69.3693 42.2522 69.3769C42.2433 69.383 42.2325 69.3857 42.2217 69.3846L41.9704 69.4303V69.4455L41.8028 69.4912C41.4402 69.5694 41.0838 69.6737 40.7364 69.8035C39.4435 70.2802 38.2192 70.9257 37.0953 71.723C36.0825 72.4635 35.1552 73.3142 34.3303 74.2596C34.1322 74.4881 33.9418 74.7242 33.7514 74.9604C33.5609 75.1965 33.3857 75.4479 33.2106 75.6992C33.0354 75.9506 32.8678 76.202 32.7078 76.461C32.5479 76.7199 32.3955 76.9865 32.2508 77.2531C31.9537 77.794 31.6795 78.35 31.4281 78.9365C30.9482 80.0715 30.7578 81.4274 30.8644 82.9889C30.9254 83.3393 30.9863 83.6897 31.0473 84.0477V84.0706C31.0853 84.0782 31.1006 84.1163 31.1006 84.1772C31.0994 84.1879 31.1021 84.1987 31.1082 84.2077C31.3578 84.8562 31.6557 85.4851 31.9994 86.0891C32.6773 87.2698 33.3527 88.4378 34.0256 89.593C34.0524 89.6406 34.0857 89.6842 34.1246 89.7225C34.0544 90.4137 34.0493 91.1099 34.1094 91.802V91.8325C34.1123 91.8355 34.1144 91.8391 34.1158 91.8431C34.1171 91.847 34.1175 91.8512 34.117 91.8554C34.1399 91.9239 34.1399 91.9772 34.1094 92.0077C34.1257 92.073 34.1385 92.1391 34.1475 92.2058V92.2362C34.1535 92.2452 34.1562 92.256 34.1551 92.2667C34.1857 92.339 34.191 92.4195 34.1703 92.4952C34.2313 92.8532 34.2922 93.2188 34.3608 93.5769V93.6073C34.4041 93.6615 34.4282 93.7284 34.4293 93.7978V93.8282L34.4522 93.9425V93.9729C34.4902 93.9806 34.5131 94.0187 34.5055 94.0796C34.5115 94.0885 34.5142 94.0993 34.5131 94.1101C34.9625 95.5954 35.5795 96.8294 36.3641 97.8273C37.1343 98.8007 38.0164 99.6802 38.992 100.448C39.3673 100.743 39.7674 101.006 40.1879 101.232C39.708 101.194 39.1748 101.171 38.5883 101.164C38.5776 101.162 38.5668 101.165 38.5578 101.171C38.5537 101.171 38.5495 101.171 38.5456 101.172C38.5416 101.174 38.538 101.176 38.535 101.179C38.4741 101.202 38.436 101.194 38.4131 101.164C38.4042 101.17 38.3934 101.172 38.3826 101.171C38.3293 101.179 38.2684 101.194 38.2151 101.202C38.2043 101.201 38.1935 101.203 38.1846 101.209C37.9028 101.255 37.6209 101.301 37.3315 101.354C37.3225 101.36 37.3117 101.363 37.301 101.362C37.2629 101.369 37.2324 101.369 37.1944 101.377V101.4C37.1472 101.414 37.0987 101.424 37.0496 101.43C36.67 101.544 36.3103 101.717 35.9832 101.941C35.8766 102.017 35.7776 102.085 35.6938 102.154C34.6731 102.938 34.1551 104.071 34.1399 105.551C34.1627 105.703 34.1932 105.856 34.2236 106.008V106.039C34.2466 106.058 34.2642 106.083 34.2749 106.111C34.2855 106.139 34.2889 106.169 34.2846 106.199V106.229C34.7645 107.669 35.4805 108.766 36.4479 109.512C37.3924 110.236 38.6112 110.571 40.1041 110.518C40.3403 110.472 40.584 110.426 40.8202 110.388H40.8506C41.9551 110.045 42.7473 109.482 43.2348 108.712C43.4669 108.351 43.6537 107.962 43.7909 107.554C43.9388 107.121 44.0335 106.67 44.0727 106.214C45.3838 106.535 46.7147 106.769 48.0565 106.915C49.4761 107.064 50.9058 107.089 52.3298 106.991C52.3777 106.984 52.4261 106.982 52.4745 106.983V106.998L52.8782 106.953C52.889 106.954 52.8998 106.951 52.9087 106.945C52.9643 106.939 53.0203 106.936 53.0763 106.937C53.0839 106.937 53.0839 106.945 53.0839 106.953C53.1296 106.945 53.1753 106.93 53.2286 106.922H53.2515C53.2993 106.914 53.3477 106.909 53.3962 106.907C53.3968 106.913 53.3995 106.918 53.4038 106.922C53.4647 106.915 53.5333 106.899 53.6019 106.884H53.6247C53.6725 106.876 53.7209 106.871 53.7694 106.869C53.7704 106.877 53.773 106.885 53.7771 106.892L54.0284 106.846C54.0398 106.839 54.0533 106.836 54.0665 106.838C54.1314 106.823 54.1979 106.815 54.2646 106.816V106.831C54.4613 106.822 54.6541 106.888 54.8054 107.014C54.973 107.151 55.8236 107.897 57.3572 109.253C58.7892 110.518 60.5208 111.241 62.5521 111.424H96.3269C96.6239 111.439 96.9134 111.447 97.2105 111.447C97.4923 111.447 97.7741 111.439 98.056 111.424H148.444L149 110.868L143.721 80.7494ZM66.3531 76.6514C66.7292 76.2741 67.2088 76.0171 67.7312 75.9128C68.2536 75.8086 68.7951 75.8618 69.2872 76.0658C69.7793 76.2699 70.1996 76.6154 70.495 77.0587C70.7904 77.502 70.9475 78.023 70.9463 78.5557C70.9453 78.9974 70.8355 79.4322 70.6266 79.8214C70.4176 80.2106 70.116 80.5424 69.7484 80.7873C69.3808 81.0323 68.9585 81.1829 68.5188 81.2259C68.0792 81.2688 67.6357 81.2028 67.2276 81.0336C66.8195 80.8644 66.4594 80.5973 66.1791 80.2558C65.8988 79.9144 65.707 79.5091 65.6205 79.0759C65.5341 78.6427 65.5557 78.1949 65.6835 77.772C65.8112 77.3491 66.0412 76.9642 66.3531 76.6514ZM54.3407 88.0391C54.3559 88.0196 54.3775 88.0061 54.4017 88.001C54.4495 87.9926 54.4979 87.9875 54.5464 87.9858L54.554 88.001H54.5845C54.5875 87.9982 54.5911 87.996 54.5951 87.9947C54.599 87.9934 54.6032 87.9929 54.6073 87.9934C54.6549 87.9835 54.7037 87.9809 54.7521 87.9858C54.7526 87.9917 54.7553 87.9971 54.7597 88.001C54.9806 87.9858 55.1939 87.9782 55.3995 87.9706H55.4224C55.4985 87.9553 55.5747 87.9401 55.6509 87.9325C55.6616 87.9336 55.6724 87.9309 55.6814 87.9249C56.2298 87.2469 56.7859 86.569 57.3572 85.9063C57.3602 85.9034 57.3638 85.9013 57.3677 85.8999C57.3717 85.8986 57.3759 85.8982 57.38 85.8987C57.4252 85.8899 57.4711 85.8848 57.5171 85.8835C57.5247 85.8835 57.5247 85.8911 57.5247 85.8987C57.5515 85.8843 57.5811 85.8762 57.6115 85.8749C57.6418 85.8735 57.672 85.8791 57.6999 85.8911C57.7041 85.8948 57.7095 85.8969 57.7152 85.8969C57.7208 85.8969 57.7262 85.8948 57.7304 85.8911C57.7685 85.8987 57.7837 85.9368 57.7837 85.9977V86.0282C57.8007 86.0672 57.8282 86.1007 57.8632 86.125C57.8982 86.1492 57.9393 86.1631 57.9818 86.1653H58.0122L58.2712 86.1196H58.2941C58.3593 86.1032 58.4254 86.0905 58.4921 86.0815C58.5029 86.0826 58.5136 86.0799 58.5226 86.0739C58.5165 86.0649 58.5138 86.0542 58.515 86.0434C58.5835 86.0358 58.6445 86.0206 58.713 86.0129H58.7435C58.8087 85.9966 58.8749 85.9839 58.9415 85.9749C58.9523 85.976 58.9631 85.9733 58.972 85.9672C59.0482 85.952 59.1243 85.9368 59.2005 85.9292C59.2113 85.9303 59.222 85.9276 59.231 85.9215L59.429 85.8911C59.4367 85.8835 59.4443 85.8835 59.4595 85.8835C59.4534 85.8745 59.4507 85.8637 59.4519 85.853C59.5509 85.8378 59.6576 85.8225 59.7642 85.8149L59.7718 85.8301C61.0287 85.8073 61.8589 86.3862 62.2703 87.5592C62.2691 87.57 62.2718 87.5808 62.2779 87.5897C62.316 87.5973 62.3312 87.6354 62.3236 87.6964C62.3224 87.7071 62.3251 87.7179 62.3312 87.7268L62.3998 88.1229C62.3986 88.1337 62.4013 88.1444 62.4074 88.1534V88.1762C62.4378 88.26 62.4378 88.321 62.4074 88.3591C62.438 88.5789 62.438 88.8019 62.4074 89.0218C62.2931 89.6387 61.9046 90.0501 61.2496 90.2634V90.271C61.2061 90.2907 61.1598 90.3035 61.1124 90.3091C61.1035 90.3151 61.0927 90.3178 61.082 90.3167L60.9677 90.3395C60.9753 90.3471 60.9753 90.3548 60.9677 90.3548C60.7932 90.4111 60.6102 90.4368 60.4269 90.4309C59.8327 90.4843 59.3224 90.4233 58.8958 90.2405C58.4762 90.0659 58.0755 89.8489 57.6999 89.593C57.7075 89.6007 57.7075 89.6083 57.6999 89.6083C57.6553 89.6245 57.6094 89.6372 57.5628 89.6464H57.54C57.4562 89.6616 57.38 89.6768 57.3114 89.6921H57.281L57.0525 89.7378C57.0483 89.7383 57.0441 89.7378 57.0402 89.7365C57.0362 89.7352 57.0326 89.733 57.0296 89.7302C55.9937 89.2807 54.8054 89.037 53.4724 89.0141C53.7771 88.6942 54.0665 88.3667 54.3407 88.0391ZM53.8228 90.5909C54.4912 90.6052 55.1517 90.7393 55.7728 90.987C56.9407 91.4516 57.8015 92.3479 58.355 93.6759C58.5884 94.2211 58.6927 94.8128 58.6597 95.405H58.6521V95.4126C57.8675 95.2146 57.0905 95.0013 56.3364 94.7804C55.1025 94.4071 53.8456 94.0694 52.5659 93.7673C51.2862 93.4651 49.8466 93.4017 48.247 93.5769V93.5692C48.2393 93.5692 48.2393 93.5692 48.2317 93.5769C48.1784 93.5997 48.1479 93.5921 48.1251 93.5692C48.1209 93.5687 48.1167 93.5692 48.1128 93.5705C48.1088 93.5718 48.1052 93.574 48.1022 93.5769C47.8602 93.6028 47.6207 93.6487 47.3862 93.714C47.3679 93.7202 47.35 93.7278 47.3329 93.7368C47.31 93.7444 47.2948 93.752 47.2719 93.7597C47.2536 93.7659 47.2358 93.7735 47.2186 93.7825C47.2034 93.7901 47.1805 93.7978 47.1653 93.8054C47.1501 93.813 47.1425 93.8206 47.1348 93.8206C46.9444 93.9272 46.8378 93.8587 46.8301 93.6226L46.8378 93.6149V93.6073C46.8383 93.6032 46.8378 93.599 46.8365 93.595C46.8352 93.5911 46.833 93.5875 46.8301 93.5845C46.8225 93.5464 46.8225 93.5083 46.8149 93.4702H46.8301C46.8225 93.4245 46.8149 93.3788 46.8073 93.3255C46.7982 93.2739 46.7855 93.223 46.7692 93.1731C46.7616 93.1274 46.7464 93.0817 46.7387 93.0284C46.7311 92.9751 46.7083 92.937 46.693 92.8837C46.5026 92.2058 46.1903 91.6725 45.7714 91.2841H45.7942L45.7866 91.2765C46.5788 91.1317 47.371 90.9946 48.1708 90.8575C48.1797 90.8514 48.1905 90.8487 48.2012 90.8499C48.2491 90.8414 48.2974 90.8363 48.346 90.8347V90.8575C48.6507 90.8118 48.9554 90.7737 49.2677 90.7432C50.7807 90.588 52.3027 90.5371 53.8228 90.5909ZM45.4819 96.9741C45.3753 97.0275 45.3143 97.0122 45.2991 96.9284H45.3296C45.3307 96.9177 45.328 96.9069 45.3219 96.898C45.3928 96.5648 45.5001 96.2403 45.6419 95.9306C45.6479 95.9216 45.6506 95.9108 45.6495 95.9001C46.2255 95.5668 46.8392 95.3034 47.4776 95.1155C47.4852 95.1079 47.4928 95.1079 47.5005 95.1003V95.0774L47.6376 95.0546C47.6483 95.0557 47.6591 95.053 47.668 95.047L48.4679 94.9099C48.472 94.9104 48.4762 94.9099 48.4801 94.9086C48.4841 94.9073 48.4877 94.9051 48.4907 94.9022C48.544 94.8946 48.5897 94.887 48.6354 94.8794C48.6462 94.8805 48.657 94.8778 48.6659 94.8718C48.7308 94.8567 48.7973 94.849 48.8639 94.8489L48.8716 94.8642H48.8944C48.9034 94.8581 48.9141 94.8554 48.9249 94.8565C48.9724 94.8462 49.0213 94.8436 49.0696 94.8489V94.8642C50.6007 94.8108 51.9946 94.9327 53.2515 95.245C53.877 95.3983 54.4905 95.5969 55.0872 95.8392C55.1558 95.862 55.2319 95.8925 55.3081 95.9153C55.3843 95.9382 55.4528 95.9763 55.5214 95.9991C55.59 96.022 55.6737 96.0448 55.7423 96.0677C55.8109 96.0905 55.8946 96.1134 55.9632 96.1362C56.8544 96.3876 57.7456 96.6237 58.6521 96.8446C58.6419 97.0025 58.5881 97.1545 58.4966 97.2836C58.4052 97.4127 58.2797 97.5139 58.1341 97.5759C58.1265 97.5835 58.1113 97.5835 58.1113 97.5987C57.9641 97.6481 57.8094 97.6713 57.6542 97.6673C57.5274 97.6669 57.4014 97.6463 57.281 97.6064C56.5573 97.3626 55.8185 97.1341 55.072 96.9132C53.8304 96.5552 52.444 96.4028 50.9282 96.4409C50.9241 96.4404 50.9199 96.4409 50.9159 96.4422C50.912 96.4435 50.9084 96.4457 50.9054 96.4485C50.8444 96.4714 50.8063 96.4638 50.7835 96.4409H50.753C50.7361 96.4477 50.7178 96.4504 50.6997 96.4485C50.6921 96.4562 50.6768 96.4562 50.6692 96.4638C50.6083 96.4866 50.5702 96.479 50.5474 96.4485H50.5245C50.5017 96.4562 50.4864 96.4562 50.4636 96.4638C50.4594 96.4633 50.4552 96.4637 50.4513 96.465C50.4473 96.4663 50.4437 96.4685 50.4407 96.4714C50.3722 96.4942 50.3188 96.4942 50.2884 96.4638C50.2842 96.4633 50.28 96.4637 50.2761 96.465C50.2721 96.4663 50.2685 96.4685 50.2655 96.4714C50.0599 96.479 49.8466 96.5019 49.6257 96.5247C49.6215 96.5242 49.6173 96.5246 49.6134 96.526C49.6094 96.5273 49.6058 96.5295 49.6028 96.5323C49.5419 96.5552 49.5038 96.5476 49.4809 96.5171C49.472 96.5232 49.4612 96.5259 49.4505 96.5247H49.4276C49.4184 96.53 49.4078 96.5327 49.3972 96.5323C49.3362 96.5552 49.2981 96.5552 49.2753 96.5247C49.2711 96.5242 49.2669 96.5246 49.263 96.526C49.259 96.5273 49.2554 96.5295 49.2524 96.5323C49.2143 96.54 49.1686 96.54 49.1306 96.5476C49.1275 96.5504 49.1239 96.5526 49.12 96.5539C49.116 96.5553 49.1118 96.5557 49.1077 96.5552C49.0799 96.5667 49.0502 96.5726 49.0201 96.5726C48.99 96.5726 48.9603 96.5667 48.9325 96.5552C48.9218 96.554 48.911 96.5567 48.902 96.5628C48.8824 96.5691 48.8617 96.5717 48.8411 96.5704C48.8335 96.5704 48.8259 96.578 48.8182 96.5857C48.7573 96.6009 48.7192 96.5933 48.6964 96.5704H48.6735C48.6202 96.578 48.5745 96.5933 48.5288 96.6009C48.5181 96.5997 48.5073 96.6024 48.4983 96.6085C48.4755 96.6194 48.4503 96.6243 48.425 96.623C48.3997 96.6217 48.3752 96.6141 48.3536 96.6009C48.3429 96.5997 48.3321 96.6024 48.3231 96.6085C48.305 96.6067 48.2867 96.6093 48.2698 96.6161C48.2591 96.615 48.2483 96.6177 48.2393 96.6237C48.1784 96.6466 48.1403 96.639 48.1175 96.6085C48.1067 96.6074 48.0959 96.6101 48.087 96.6161L47.9499 96.639C47.9391 96.6378 47.9283 96.6405 47.9194 96.6466C47.8585 96.6694 47.8204 96.6694 47.8052 96.639H47.7747C47.6212 96.6672 47.4659 96.685 47.31 96.6923C47.307 96.6952 47.3034 96.6974 47.2995 96.6987C47.2955 96.7 47.2913 96.7004 47.2872 96.6999C47.2551 96.7154 47.22 96.7234 47.1843 96.7234C47.1487 96.7234 47.1136 96.7154 47.0815 96.6999C47.0726 96.706 47.0618 96.7087 47.051 96.7075C47.0053 96.7151 46.9596 96.7304 46.9063 96.738H46.8835L46.7692 96.7609C46.7585 96.7597 46.7477 96.7624 46.7387 96.7685L46.6245 96.7837C46.6203 96.7832 46.6162 96.7836 46.6122 96.7849C46.6083 96.7863 46.6046 96.7884 46.6016 96.7913C46.5407 96.8142 46.5026 96.8066 46.4798 96.7837H46.4493C46.396 96.7913 46.335 96.8066 46.2817 96.8142C46.2728 96.8202 46.262 96.8229 46.2512 96.8218C46.0608 96.8523 45.8704 96.8827 45.6799 96.9208C45.6769 96.9237 45.6733 96.9259 45.6694 96.9272C45.6654 96.9285 45.6612 96.9289 45.6571 96.9284C45.598 96.9342 45.5395 96.9444 45.4819 96.9589C45.4895 96.9665 45.4895 96.9665 45.4819 96.9741ZM41.2086 79.2412C42.2903 78.51 43.5725 77.9209 45.0553 77.474C45.0643 77.468 45.0751 77.4653 45.0858 77.4664V77.436C45.1239 77.4283 45.1544 77.4283 45.1924 77.4207C45.2014 77.4147 45.2122 77.412 45.2229 77.4131C45.2604 77.4043 45.2987 77.3992 45.3372 77.3979C45.3422 77.4009 45.3483 77.4018 45.354 77.4004C45.3597 77.3989 45.3646 77.3953 45.3676 77.3903C45.3707 77.3852 45.3716 77.3792 45.3701 77.3734C45.3687 77.3677 45.3651 77.3628 45.36 77.3598C45.3981 77.3522 45.4362 77.3522 45.4743 77.3445C45.4832 77.3385 45.494 77.3358 45.5048 77.3369C45.5154 77.3372 45.526 77.3346 45.5352 77.3293C45.5372 77.3303 45.5394 77.3309 45.5416 77.3311C45.5439 77.3312 45.5461 77.3309 45.5482 77.3302C45.5503 77.3295 45.5523 77.3284 45.554 77.3269C45.5557 77.3255 45.5571 77.3237 45.5581 77.3217C45.5591 77.3197 45.5597 77.3175 45.5598 77.3153C45.56 77.3131 45.5597 77.3108 45.559 77.3087C45.5583 77.3066 45.5572 77.3046 45.5557 77.3029C45.5542 77.3012 45.5525 77.2998 45.5505 77.2988C45.6495 77.2836 45.7409 77.2684 45.8399 77.2608L45.8475 77.276C45.9237 77.2608 45.9999 77.2455 46.0684 77.2379C46.0774 77.2318 46.0882 77.2292 46.0989 77.2303C46.1544 77.2218 46.2104 77.2167 46.2665 77.2151L46.2741 77.2303C46.3274 77.2227 46.3884 77.2074 46.4493 77.1998C46.4523 77.1969 46.4559 77.1948 46.4599 77.1934C46.4638 77.1921 46.468 77.1917 46.4721 77.1922C46.5201 77.1861 46.5685 77.1835 46.6169 77.1846C46.6174 77.1904 46.6201 77.1959 46.6245 77.1998C47.9575 77.4131 49.1356 77.8524 50.1589 78.5176C50.4788 78.7233 50.7606 78.9213 50.9968 79.0965L51.0044 79.0737C51.0128 79.0229 51.0102 78.971 50.9968 78.9213V78.8985L50.9434 78.609C50.9446 78.5983 50.9419 78.5875 50.9358 78.5785C50.9282 78.5405 50.9282 78.5024 50.9206 78.4643C50.9177 78.4613 50.9155 78.4577 50.9142 78.4537C50.9129 78.4498 50.9125 78.4456 50.913 78.4414C50.9067 78.4218 50.9041 78.4011 50.9054 78.3805C51.8347 78.3272 52.4821 78.6699 52.8554 79.4088C52.8554 79.4164 52.863 79.4164 52.8706 79.4164C52.887 79.4817 52.8997 79.5478 52.9087 79.6145C52.9076 79.6252 52.9103 79.636 52.9163 79.6449C52.9737 79.796 53.0046 79.9557 53.0077 80.1172C53.0077 80.1248 53.0077 80.1248 53.0001 80.1248V80.1553C52.9849 80.9018 52.9696 81.6483 52.9544 82.3871C51.6671 82.2272 50.3569 82.0825 49.0391 81.9682C47.63 81.8539 46.1903 81.7778 44.7202 81.7473C43.2501 81.7168 41.7495 81.7397 40.2184 81.8082C40.2154 81.8111 40.2118 81.8133 40.2078 81.8146C40.2039 81.8159 40.1997 81.8164 40.1955 81.8159C40.127 81.8387 40.0737 81.8387 40.0432 81.8082C40.0402 81.8111 40.0366 81.8133 40.0326 81.8146C40.0287 81.8159 40.0245 81.8164 40.0204 81.8159C39.9207 81.8094 39.8207 81.8171 39.7233 81.8387H39.7004C39.6767 81.8504 39.6507 81.8565 39.6243 81.8565C39.5978 81.8565 39.5718 81.8504 39.5481 81.8387C39.5439 81.8382 39.5398 81.8386 39.5358 81.84C39.5319 81.8413 39.5282 81.8434 39.5252 81.8463C39.4947 81.854 39.4947 81.854 39.4643 81.8616C39.4414 81.8724 39.4162 81.8774 39.391 81.8761C39.3657 81.8747 39.3412 81.8671 39.3196 81.8539H39.2967C39.277 81.8598 39.2564 81.8623 39.2358 81.8616C39.2282 81.8692 39.2129 81.8692 39.2053 81.8768C39.152 81.8996 39.1139 81.892 39.091 81.8616C39.0758 81.8616 39.0682 81.8616 39.0606 81.8692C39.04 81.8679 39.0193 81.8705 38.9996 81.8768C38.9955 81.8763 38.9913 81.8767 38.9874 81.878C38.9834 81.8794 38.9798 81.8815 38.9768 81.8844C38.9082 81.9073 38.8549 81.9073 38.8244 81.8768C38.8137 81.8757 38.8029 81.8784 38.794 81.8844C38.7603 81.8971 38.7241 81.9016 38.6884 81.8976C38.6527 81.8936 38.6184 81.8813 38.5883 81.8616C39.2735 80.8182 40.1653 79.9264 41.2086 79.2412ZM35.9299 86.5005C35.931 86.4897 35.9283 86.4789 35.9223 86.47L35.8537 86.0739C35.8549 86.0631 35.8522 86.0524 35.8461 86.0434C35.8385 85.9901 35.8309 85.9292 35.8233 85.8758C35.8842 84.8627 36.1356 83.9791 36.5697 83.225C36.5697 83.2174 36.5774 83.2174 36.585 83.2174L36.6992 83.1946H36.7297C36.8059 83.1793 36.8821 83.1641 36.9582 83.1565C36.9612 83.1536 36.9648 83.1514 36.9688 83.1501C36.9727 83.1488 36.9769 83.1484 36.9811 83.1489C37.0695 83.1697 37.1622 83.1644 37.2477 83.1336C37.2553 83.126 37.2629 83.126 37.2782 83.126C37.3239 83.1184 37.3696 83.1032 37.4153 83.0956H37.4457C37.5127 83.1197 37.5864 83.1169 37.6514 83.0879H37.6819L37.7961 83.0651H37.819C37.8494 83.0879 37.8951 83.0879 37.9637 83.0651C37.9744 83.0662 37.9852 83.0635 37.9942 83.0575C38.0475 83.0498 38.1084 83.0346 38.1617 83.027H38.1922C38.2151 83.0575 38.2532 83.0575 38.3141 83.0346C38.323 83.0286 38.3338 83.0259 38.3446 83.027C38.3674 83.0194 38.3979 83.0194 38.4284 83.0118C38.4373 83.0057 38.4481 83.003 38.4588 83.0041C38.5228 83.0275 38.5929 83.0275 38.6569 83.0041C38.6676 83.0053 38.6784 83.0026 38.6873 82.9965C38.7178 82.9889 38.7483 82.9889 38.7711 82.9813C38.7819 82.9824 38.7927 82.9797 38.8016 82.9737C38.8282 82.9891 38.8584 82.9971 38.8892 82.9971C38.9199 82.9971 38.9502 82.9891 38.9768 82.9737C38.9857 82.9676 38.9965 82.9649 39.0073 82.9661L39.1444 82.9432C39.1551 82.9443 39.1659 82.9416 39.1748 82.9356C39.1977 82.9661 39.2358 82.9737 39.2967 82.9508C39.2997 82.9479 39.3033 82.9458 39.3073 82.9445C39.3112 82.9431 39.3154 82.9427 39.3196 82.9432C39.3424 82.9356 39.3577 82.9356 39.3805 82.928H39.4034C39.4311 82.9395 39.4609 82.9454 39.491 82.9454C39.521 82.9454 39.5508 82.9395 39.5786 82.928C39.5878 82.9227 39.5984 82.92 39.609 82.9204C39.6271 82.9222 39.6454 82.9195 39.6623 82.9127C39.6743 82.9072 39.6873 82.9046 39.7004 82.9051C39.7282 82.9166 39.758 82.9226 39.788 82.9226C39.8181 82.9226 39.8479 82.9166 39.8756 82.9051C39.8798 82.9056 39.884 82.9052 39.8879 82.9039C39.8919 82.9026 39.8955 82.9004 39.8985 82.8975C39.9289 82.8899 39.9594 82.8899 39.9823 82.8823H40.0127C40.0356 82.9051 40.0737 82.9127 40.1346 82.8899C40.1435 82.8838 40.1543 82.8811 40.1651 82.8823C40.1832 82.8829 40.2012 82.8803 40.2184 82.8747C40.2291 82.8758 40.2399 82.8731 40.2489 82.867C40.2717 82.8975 40.3098 82.9051 40.3631 82.8823C40.3721 82.8762 40.3829 82.8735 40.3936 82.8747C40.4164 82.867 40.4317 82.867 40.4545 82.8594H40.4774C40.4947 82.8724 40.5155 82.8801 40.5372 82.8814C40.5588 82.8828 40.5804 82.8778 40.5993 82.867C40.6082 82.861 40.619 82.8583 40.6297 82.8594C40.6466 82.8526 40.6649 82.85 40.6831 82.8518C40.692 82.8457 40.7028 82.843 40.7135 82.8442C40.7364 82.8747 40.7745 82.8823 40.8354 82.8594C40.8384 82.8565 40.842 82.8544 40.846 82.853C40.8499 82.8517 40.8541 82.8513 40.8582 82.8518C40.8811 82.8442 40.8963 82.8442 40.9192 82.8366H40.942C40.9649 82.867 41.0106 82.867 41.0639 82.8442C41.0746 82.8453 41.0854 82.8426 41.0944 82.8366C41.1125 82.8372 41.1305 82.8346 41.1477 82.8289C41.1584 82.8301 41.1692 82.8274 41.1782 82.8213C41.201 82.8518 41.2391 82.8594 41.3 82.8366C41.3077 82.8289 41.3153 82.8289 41.3229 82.8213C41.341 82.8231 41.3593 82.8205 41.3762 82.8137C41.387 82.8149 41.3977 82.8122 41.4067 82.8061C41.4222 82.8221 41.4428 82.8323 41.4649 82.8351C41.4871 82.8379 41.5095 82.833 41.5286 82.8213C41.5375 82.8153 41.5483 82.8126 41.559 82.8137C41.5771 82.8144 41.5952 82.8118 41.6124 82.8061C41.6213 82.8 41.6321 82.7973 41.6428 82.7985C41.6657 82.8289 41.7038 82.8366 41.7647 82.8137C41.7723 82.8061 41.7799 82.8061 41.7875 82.7985H41.818C41.8287 82.7988 41.8392 82.7962 41.8485 82.7909C41.8713 82.8213 41.9094 82.8289 41.9627 82.8061C41.9717 82.8 41.9825 82.7973 41.9932 82.7985C42.0129 82.7922 42.0335 82.7896 42.0542 82.7909C42.0572 82.788 42.0608 82.7858 42.0647 82.7845C42.0687 82.7832 42.0729 82.7827 42.077 82.7832C42.0944 82.7963 42.1151 82.8039 42.1368 82.8053C42.1585 82.8066 42.18 82.8016 42.1989 82.7909C42.2096 82.792 42.2204 82.7893 42.2293 82.7832C43.7452 82.7375 45.2204 82.7528 46.655 82.8289C48.0895 82.9051 49.4835 83.0448 50.8368 83.2479C51.0349 83.2784 51.2329 83.3088 51.4233 83.3393C51.6138 83.3698 51.8194 83.4079 52.0175 83.4459C52.2155 83.484 52.4136 83.5145 52.604 83.5526C52.7944 83.5907 53.0001 83.6364 53.1981 83.6745C53.0966 85.0989 52.6319 86.2643 51.8042 87.1708C51.0882 87.9477 50.1005 88.5343 48.8411 88.9303H48.8106L48.6735 88.9532V88.9837C48.6628 88.9825 48.652 88.9852 48.643 88.9913C48.625 88.9906 48.6069 88.9932 48.5897 88.9989C48.579 88.9978 48.5682 89.0005 48.5593 89.0065C48.5136 89.0141 48.4679 89.0218 48.4145 89.0294C48.4104 89.0289 48.4062 89.0293 48.4023 89.0306C48.3983 89.0319 48.3947 89.0341 48.3917 89.037C48.1936 89.0675 47.9956 89.0979 47.7975 89.136C47.7861 89.1429 47.7726 89.1456 47.7594 89.1436L47.6528 89.1665H47.6223C47.5766 89.1741 47.5309 89.1893 47.4852 89.1969C47.4809 89.193 47.4782 89.1876 47.4776 89.1817C47.4292 89.1802 47.3808 89.1828 47.3329 89.1893C46.9704 89.1901 46.6085 89.1596 46.2512 89.0979C44.9487 88.8542 43.8366 88.3311 42.9149 87.5288C42.9154 87.5329 42.915 87.5371 42.9137 87.5411C42.9123 87.545 42.9102 87.5486 42.9073 87.5516C42.2293 88.161 41.3762 88.6485 40.3555 89.0065C40.3466 89.0126 40.3358 89.0153 40.325 89.0141L40.2108 89.037C40.2137 89.04 40.2158 89.0436 40.2172 89.0476C40.2185 89.0515 40.2189 89.0557 40.2184 89.0598C40.2077 89.0595 40.1972 89.0622 40.1879 89.0675C40.1698 89.0668 40.1518 89.0694 40.1346 89.0751C40.1239 89.0739 40.1131 89.0766 40.1041 89.0827L39.708 89.1512C39.6132 89.1731 39.5157 89.1808 39.4186 89.1741C38.8648 89.1395 38.3235 88.9944 37.8266 88.7475C37.0039 88.3286 36.3793 87.6202 35.9528 86.6376V86.6147L35.9299 86.5005ZM41.7418 107.052C41.3762 107.577 40.8582 107.996 40.1803 108.309C39.8249 108.47 39.4343 108.538 39.0453 108.507C37.6514 108.385 36.6916 107.631 36.1813 106.244H36.166C36.1279 106.092 36.0975 105.94 36.067 105.795C36.0801 105.795 36.0932 105.793 36.1051 105.787C36.099 105.778 36.0963 105.768 36.0975 105.757L36.0746 105.643C36.0641 105.173 36.1284 104.705 36.2651 104.256V104.233C36.6688 103.784 37.2401 103.449 37.9713 103.228H37.9942V103.197C38.2379 103.159 38.4817 103.114 38.733 103.076V103.091C38.7612 103.092 38.7894 103.09 38.8168 103.083C38.8258 103.077 38.8366 103.074 38.8473 103.076C38.9028 103.067 38.9587 103.062 39.0149 103.06C39.0225 103.06 39.0225 103.068 39.0225 103.076C39.3556 103.069 39.6888 103.081 40.0204 103.114C40.028 103.121 40.028 103.121 40.028 103.129C40.0813 103.258 40.127 103.388 40.1803 103.517C40.2336 103.647 40.2717 103.769 40.3174 103.898C40.3699 104.025 40.4156 104.155 40.4545 104.287L40.5916 104.675C40.5977 104.684 40.6004 104.695 40.5993 104.706C40.9832 104.946 41.3254 105.247 41.6124 105.597C41.6975 105.696 41.7645 105.81 41.8104 105.932C41.8485 105.94 41.8637 105.978 41.8637 106.039V106.061C41.9551 106.48 41.917 106.816 41.7418 107.052ZM40.2489 99.2212C39.7766 98.8327 39.3196 98.4138 38.8778 97.972C38.0094 97.096 37.3416 95.9331 36.8744 94.4833C36.8668 94.4833 36.8592 94.4833 36.8592 94.4757C36.8376 94.4329 36.8246 94.3863 36.8211 94.3386C36.8182 94.3356 36.8161 94.332 36.8147 94.328C36.8134 94.3241 36.813 94.3199 36.8135 94.3157C36.8147 94.2951 36.8122 94.2745 36.8059 94.2548H36.7906C36.7684 94.2037 36.7531 94.1499 36.7449 94.0948C36.7461 94.0841 36.7434 94.0733 36.7373 94.0644C36.6996 93.9553 36.6715 93.8432 36.6535 93.7292H36.6383C36.616 93.6755 36.6007 93.6192 36.5926 93.5616C36.5937 93.5509 36.591 93.5401 36.585 93.5311C36.5774 93.4778 36.5697 93.4169 36.5621 93.356C36.5469 93.3636 36.5393 93.3636 36.5393 93.356C36.5247 93.314 36.5145 93.2706 36.5088 93.2265C36.5028 93.2175 36.5001 93.2067 36.5012 93.196L36.4783 93.0817C36.4795 93.071 36.4768 93.0602 36.4707 93.0513C36.4631 92.9979 36.4555 92.937 36.4479 92.8837C36.4418 92.8747 36.4391 92.864 36.4403 92.8532C36.3946 92.6018 36.3488 92.3429 36.3031 92.0839V92.0534C36.2868 91.9881 36.2741 91.922 36.2651 91.8554C36.2656 91.8512 36.2651 91.847 36.2638 91.8431C36.2625 91.8391 36.2603 91.8355 36.2574 91.8325C36.2498 91.7944 36.2498 91.7487 36.2422 91.7106C36.2393 91.7076 36.2372 91.704 36.2358 91.7001C36.2345 91.6961 36.2341 91.6919 36.2346 91.6878L36.2117 91.5735C36.227 91.5735 36.2346 91.5735 36.2422 91.5659V91.5354C36.2346 91.4973 36.227 91.4669 36.2194 91.4288C36.2205 91.4181 36.2178 91.4073 36.2117 91.3983C36.2041 91.3526 36.1965 91.3069 36.1889 91.2536C36.1996 91.2547 36.2104 91.252 36.2194 91.246C36.2165 91.243 36.2143 91.2394 36.213 91.2354C36.2117 91.2315 36.2112 91.2273 36.2117 91.2231C36.2041 91.185 36.2041 91.147 36.1965 91.1089C36.1904 91.0999 36.1877 91.0891 36.1889 91.0784L36.166 90.9641H36.1965V90.9337C36.1801 90.8684 36.1674 90.8023 36.1584 90.7356C36.1889 90.7204 36.1965 90.6899 36.1737 90.6442C36.1676 90.6353 36.1649 90.6245 36.166 90.6138C36.1623 90.6096 36.1602 90.6041 36.1602 90.5985C36.1602 90.5929 36.1623 90.5875 36.166 90.5833L36.1432 90.469H36.166V90.4386C36.16 90.4296 36.1573 90.4188 36.1584 90.4081C36.1589 90.404 36.1585 90.3998 36.1572 90.3958C36.1559 90.3919 36.1537 90.3882 36.1508 90.3852C36.1432 90.3472 36.1432 90.3091 36.1356 90.271C36.1381 90.2725 36.1408 90.2735 36.1437 90.2739C36.1466 90.2743 36.1495 90.2742 36.1524 90.2735C36.1552 90.2728 36.1579 90.2715 36.1602 90.2698C36.1626 90.268 36.1645 90.2659 36.166 90.2634C36.1675 90.2609 36.1685 90.2581 36.169 90.2552C36.1694 90.2523 36.1692 90.2494 36.1685 90.2465C36.1678 90.2437 36.1666 90.2411 36.1648 90.2387C36.1631 90.2364 36.1609 90.2344 36.1584 90.2329V90.21C36.166 89.8063 36.1813 89.395 36.1889 88.9761C36.1889 88.9684 36.1889 88.9684 36.1965 88.9684C37.103 89.8012 38.2379 90.2964 39.6014 90.4538C39.8722 90.4843 40.1456 90.4843 40.4164 90.4538C40.4698 90.4462 40.5307 90.4462 40.584 90.4386C40.5916 90.4386 40.5916 90.4462 40.5916 90.4538L41.2772 90.3319H41.3C41.3 90.3167 41.3 90.3091 41.2924 90.3014C41.3457 90.2938 41.3915 90.2862 41.4372 90.2786C41.4676 90.271 41.4676 90.271 41.4981 90.2634L41.5286 90.2634C41.5225 90.2544 41.5198 90.2436 41.5209 90.2329L41.6581 90.21C41.6673 90.2047 41.6779 90.2021 41.6885 90.2024C41.6993 90.2036 41.7101 90.2009 41.719 90.1948V90.172L41.8256 90.1491H41.8561C42.5506 89.9159 43.2036 89.574 43.7909 89.136C43.7998 89.13 43.8106 89.1273 43.8213 89.1284C44.4328 89.6609 45.0963 90.1304 45.8018 90.53H45.8247C45.8323 90.53 45.8323 90.53 45.8399 90.5376C45.8475 90.5909 45.8094 90.6214 45.718 90.6138H45.6876C45.6707 90.6206 45.6524 90.6232 45.6342 90.6214V90.6366C45.5805 90.6589 45.5242 90.6742 45.4667 90.6823C45.4559 90.6812 45.4451 90.6839 45.4362 90.6899C45.4181 90.6893 45.4001 90.6919 45.3829 90.6975V90.7128C45.3382 90.729 45.2924 90.7417 45.2458 90.7509H45.2153L45.101 90.7737C45.1087 90.7813 45.1087 90.7889 45.101 90.7889C45.0583 90.8106 45.0117 90.8235 44.9639 90.827C44.9609 90.8299 44.9573 90.8321 44.9534 90.8334C44.9494 90.8347 44.9452 90.8351 44.9411 90.8347L44.8268 90.8575V90.8727C44.7627 90.8952 44.6963 90.9105 44.6288 90.9184C44.6246 90.9179 44.6204 90.9184 44.6165 90.9197C44.6125 90.921 44.6089 90.9232 44.6059 90.9261L44.484 90.9413L44.4917 90.9565C44.438 90.9788 44.3817 90.9942 44.3241 91.0022C44.3133 91.0011 44.3026 91.0038 44.2936 91.0098L44.126 91.0327V91.0479C44.0829 91.0699 44.0367 91.0853 43.9889 91.0936H43.9585C43.8594 91.1165 43.768 91.1317 43.669 91.147L43.6766 91.1622L43.3415 91.2307C43.3325 91.2368 43.3217 91.2395 43.311 91.2384C43.2729 91.246 43.2348 91.246 43.1967 91.2536V91.2765C43.1206 91.2993 43.0444 91.3145 42.9682 91.3298H42.9454C42.892 91.3374 42.8311 91.3526 42.7702 91.3602C42.7672 91.3631 42.7635 91.3653 42.7596 91.3666C42.7556 91.3679 42.7515 91.3684 42.7473 91.3679C42.435 91.4212 42.1227 91.4821 41.8104 91.5354H41.7799C41.6952 91.57 41.6014 91.5754 41.5133 91.5507C41.5092 91.5502 41.505 91.5506 41.501 91.5519C41.4971 91.5532 41.4935 91.5554 41.4905 91.5583C41.361 91.5811 41.2391 91.5964 41.1172 91.6192C41.1131 91.6187 41.1089 91.6192 41.105 91.6205C41.101 91.6218 41.0974 91.624 41.0944 91.6268C41.0707 91.6385 41.0446 91.6446 41.0182 91.6446C40.9918 91.6446 40.9657 91.6385 40.942 91.6268H40.9116C40.8941 91.6329 40.8763 91.638 40.8582 91.6421C40.8475 91.6409 40.8367 91.6436 40.8278 91.6497C40.8049 91.6605 40.7797 91.6655 40.7544 91.6642C40.7292 91.6629 40.7046 91.6553 40.6831 91.6421H40.6526C40.5656 91.6357 40.4781 91.6435 40.3936 91.6649C40.4241 91.703 40.4545 91.7335 40.485 91.7716C40.5155 91.8097 40.5459 91.8401 40.5764 91.8782L40.6754 91.9772C40.7135 92.0077 40.744 92.0382 40.7821 92.0686C40.785 92.0717 40.7871 92.0753 40.7884 92.0792C40.7898 92.0832 40.7902 92.0874 40.7897 92.0915C40.9954 92.0763 41.201 92.0686 41.3991 92.0686H41.4372C41.4824 92.0598 41.5282 92.0547 41.5743 92.0534V92.0686C41.6352 92.061 41.6961 92.0458 41.7495 92.0382C41.7602 92.0393 41.771 92.0366 41.7799 92.0306C41.8654 92.0154 41.9521 92.0077 42.0389 92.0077V92.0229C42.0846 92.0153 42.1303 92.0001 42.176 91.9925C42.1913 91.9925 42.1989 91.9925 42.2065 91.9849C42.2903 91.9696 42.3817 91.962 42.4655 91.9544L42.4731 91.9696C42.7626 91.9163 43.052 91.8706 43.3491 91.8173C43.3516 91.8188 43.3544 91.8198 43.3572 91.8202C43.3601 91.8206 43.3631 91.8205 43.3659 91.8198C43.3687 91.8191 43.3714 91.8178 43.3737 91.8161C43.3761 91.8143 43.378 91.8122 43.3795 91.8097C43.381 91.8072 43.382 91.8044 43.3825 91.8015C43.3829 91.7986 43.3828 91.7957 43.382 91.7928C43.3813 91.79 43.3801 91.7874 43.3783 91.785C43.3766 91.7827 43.3744 91.7807 43.3719 91.7792C43.4488 91.7715 43.5252 91.7587 43.6004 91.7411H43.6309C43.7299 91.7182 43.8213 91.703 43.9128 91.6878H43.9432C43.9444 91.677 43.9417 91.6662 43.9356 91.6573L44.0499 91.6345C44.0606 91.6356 44.0714 91.6329 44.0803 91.6268C44.0985 91.6286 44.1168 91.626 44.1337 91.6192H44.1641V91.5888C44.2291 91.5736 44.2955 91.566 44.3622 91.5659L44.3698 91.5811C44.9868 91.7487 45.4286 92.16 45.6952 92.8151C45.694 92.8259 45.6967 92.8367 45.7028 92.8456C45.7409 92.8608 45.7561 92.9065 45.7561 92.9827V93.0056L45.779 93.1198C45.7778 93.1306 45.7805 93.1413 45.7866 93.1503C45.8171 93.1579 45.8323 93.196 45.8323 93.2569V93.2874C45.8404 93.3147 45.8455 93.3428 45.8475 93.3712C45.8536 93.3801 45.8563 93.3909 45.8551 93.4017C45.8932 93.4093 45.9085 93.4474 45.9085 93.5083V93.5388C45.9145 93.5477 45.9172 93.5585 45.9161 93.5692C45.9156 93.5734 45.916 93.5776 45.9173 93.5815C45.9186 93.5855 45.9208 93.5891 45.9237 93.5921C45.9618 93.6149 45.977 93.6606 45.977 93.7292V93.7597C45.9833 93.7793 45.9859 93.8 45.9846 93.8206C45.9841 93.8247 45.9846 93.8289 45.9859 93.8329C45.9872 93.8368 45.9894 93.8404 45.9923 93.8435H46.0075C46.0532 93.912 46.0456 93.9577 45.9846 93.9653C45.779 94.0491 45.5809 94.1253 45.3753 94.1938C44.2708 94.5671 43.7147 95.3212 43.6919 96.4485C43.7223 96.6009 43.7528 96.7532 43.7756 96.9056C43.7751 96.9097 43.7756 96.9139 43.7769 96.9179C43.7782 96.9218 43.7804 96.9254 43.7833 96.9284C43.8137 96.936 43.829 96.9741 43.829 97.0427C43.8285 97.0468 43.8289 97.051 43.8302 97.055C43.8315 97.0589 43.8337 97.0625 43.8366 97.0655C43.8354 97.0763 43.8381 97.0871 43.8442 97.096C43.8721 97.2291 43.913 97.3592 43.9661 97.4845V97.5073C43.6762 97.7531 43.4954 98.1037 43.4633 98.4823C43.5014 98.8175 43.6004 99.0765 43.7452 99.2593C43.7452 99.2669 43.7452 99.2669 43.7528 99.2669V99.2822C44.187 99.1374 44.6212 98.9851 45.0477 98.8251C45.0502 98.8266 45.053 98.8276 45.0559 98.828C45.0588 98.8285 45.0617 98.8283 45.0645 98.8276C45.0674 98.8269 45.07 98.8257 45.0724 98.8239C45.0747 98.8222 45.0767 98.82 45.0782 98.8175C45.0797 98.815 45.0807 98.8122 45.0811 98.8093C45.0815 98.8065 45.0814 98.8035 45.0807 98.8007C45.08 98.7979 45.0787 98.7952 45.077 98.7929C45.0753 98.7905 45.0731 98.7885 45.0706 98.787C45.1087 98.7794 45.1467 98.7794 45.1848 98.7718C45.1938 98.7657 45.2046 98.763 45.2153 98.7642C45.6342 98.6195 46.0684 98.4976 46.5255 98.3833H46.5559C46.5499 98.3744 46.5472 98.3636 46.5483 98.3529C46.6245 98.3452 46.7007 98.33 46.7768 98.3148C46.7858 98.3087 46.7966 98.306 46.8073 98.3071C46.8606 98.2995 46.9216 98.2843 46.9749 98.2767H47.0053C47.0065 98.2659 47.0038 98.2551 46.9977 98.2462C47.0434 98.2386 47.0891 98.2234 47.1425 98.2157H47.1653L47.3938 98.17H47.4243C47.828 98.1015 48.2393 98.0253 48.643 97.9568C48.652 97.9507 48.6628 97.948 48.6735 97.9491C48.7116 97.9415 48.7497 97.9415 48.7878 97.9339C48.7967 97.9278 48.8075 97.9251 48.8182 97.9263C48.902 97.9111 48.9934 97.9034 49.0772 97.8958V97.9111C49.1001 97.9034 49.1153 97.9034 49.1382 97.8958H49.161L49.3667 97.8577H49.3895C49.4466 97.8422 49.5056 97.8345 49.5647 97.8349V97.8501C49.5853 97.8514 49.606 97.8488 49.6257 97.8425C49.6298 97.843 49.634 97.8426 49.638 97.8413C49.6419 97.8399 49.6455 97.8378 49.6485 97.8349C49.6965 97.8287 49.7449 97.8262 49.7932 97.8273C49.8009 97.8273 49.8009 97.8349 49.8009 97.8425C49.8466 97.8349 49.8923 97.8196 49.9456 97.812H49.9684C50.016 97.8021 50.0648 97.7995 50.1132 97.8044L50.1208 97.812C50.1389 97.8127 50.1569 97.8101 50.1741 97.8044C50.1848 97.8056 50.1956 97.8029 50.2046 97.7968C50.26 97.7879 50.316 97.7829 50.3722 97.7816C50.3727 97.7874 50.3754 97.7928 50.3798 97.7968C50.4746 97.7749 50.5721 97.7672 50.6692 97.7739H50.6997C50.7447 97.7638 50.791 97.7612 50.8368 97.7663C50.8444 97.7587 50.8444 97.7663 50.8444 97.7739H50.8749C52.2962 97.7117 53.7199 97.814 55.1177 98.0786C54.6226 98.4519 54.097 98.8023 53.5562 99.1374C52.4212 99.8306 51.1085 100.394 49.6181 100.828C49.6257 100.844 49.6257 100.851 49.6181 100.851C49.5763 100.868 49.5329 100.881 49.4886 100.889C49.4778 100.888 49.467 100.891 49.4581 100.897C49.42 100.905 49.3819 100.905 49.3438 100.912V100.927C49.2901 100.95 49.2338 100.965 49.1763 100.973C49.1655 100.972 49.1547 100.975 49.1458 100.981L49.0315 100.996C49.0274 100.996 49.0232 100.996 49.0192 100.997C49.0153 100.999 49.0117 101.001 49.0087 101.004C48.9786 101.01 48.9479 101.013 48.9173 101.011V101.026C48.8751 101.051 48.8285 101.066 48.7802 101.072H48.7497L48.6126 101.095C48.6036 101.101 48.5928 101.104 48.5821 101.103C48.2743 101.175 47.9608 101.221 47.6452 101.24C47.6345 101.239 47.6237 101.241 47.6147 101.247C47.5386 101.255 47.4624 101.27 47.3862 101.285C47.3755 101.284 47.3647 101.287 47.3557 101.293C47.3383 101.304 47.3179 101.309 47.2974 101.308C47.2769 101.306 47.2573 101.299 47.2415 101.285C45.8323 101.407 44.5831 101.301 43.5014 100.966C42.315 100.599 41.2105 100.007 40.2489 99.2212ZM84.1622 106.275C84.1375 106.301 84.1146 106.329 84.0936 106.359C83.469 107.242 82.5524 107.966 81.3438 108.529C81.2109 108.6 81.0735 108.661 80.9325 108.712C80.2807 108.985 79.6049 109.197 78.9139 109.345C78.5787 109.428 78.2436 109.489 77.9008 109.543C77.4209 109.611 76.9486 109.657 76.4688 109.695C76.0041 109.725 75.5318 109.741 75.0672 109.741H73.658L63.5576 109.771L68.0136 84.2153L79.5766 84.2077C80.2774 84.2686 81.0772 84.5276 81.9836 84.977C82.8901 85.4264 83.5833 86.1958 84.0708 87.2622C84.5583 88.3286 84.6954 89.5321 84.4592 90.8651C84.1012 92.9142 83.0043 94.3919 81.1534 95.3136C81.2524 95.3517 81.359 95.3821 81.458 95.4126C82.6484 95.6832 83.7355 96.2915 84.5887 97.1646C85.1836 97.7599 85.5891 98.5178 85.7542 99.3431C86.295 101.91 85.7643 104.221 84.1622 106.275ZM99.3814 76.9865C100.349 77.0373 101.316 77.0526 102.284 77.0322C102.596 77.0246 102.908 77.017 103.22 77.017C104.538 77.0018 105.445 77.5807 105.932 78.7537C106.038 79.2982 106.086 79.8522 106.077 80.4067L106.054 82.0063C106.024 84.6952 106.001 87.3917 105.993 90.0805H103.182V79.6907C103.16 79.4088 102.984 79.2412 102.664 79.1879C102.276 79.1803 102.063 79.3174 102.025 79.6145L101.849 90.0805H99.1909L99.3814 76.9865ZM95.6489 76.9865H98.4292V79.3631H95.6489V76.9865ZM95.5804 80.3153H98.3302V90.0501H95.5804V80.3153ZM87.9098 79.0813V76.9942H90.6673L90.7206 79.1346H94.712L94.6663 81.4198L90.6216 81.4655L90.5987 82.4024C90.5759 83.3545 90.5454 84.3143 90.5225 85.2741C90.5149 85.4112 90.5149 85.5483 90.5149 85.693V86.112C90.5149 86.2491 90.5149 86.3862 90.5225 86.5233C90.5302 86.6604 90.5378 86.8051 90.5454 86.9422C90.5503 87.094 90.5883 87.2428 90.6567 87.3783C90.7251 87.5139 90.8223 87.6328 90.9415 87.7268L91.0329 87.7954C91.0573 87.8051 91.0803 87.8179 91.1014 87.8335C91.7946 87.9325 92.1222 87.2241 92.0993 85.7006H94.6968C94.8339 87.3993 94.5165 88.6003 93.7446 89.3036C93.0972 89.9054 92.1602 90.1643 90.9415 90.0958C90.7118 90.0873 90.4828 90.0644 90.2559 90.0272C88.702 89.8063 87.9048 88.679 87.8641 86.6452C87.8717 84.9237 87.8641 83.2022 87.8413 81.4807L86.9577 81.3664V79.1346L87.9098 79.0813ZM107.044 102.588C106.976 104.591 106.168 106.234 104.622 107.516C104.269 107.808 103.886 108.06 103.479 108.27C103.297 108.369 103.114 108.461 102.923 108.545C101.137 109.366 99.1915 109.782 97.2257 109.763C95.5613 109.757 93.902 109.579 92.2745 109.23C91.5993 109.09 90.946 108.859 90.3321 108.545C89.1514 107.928 88.2221 107.003 87.5442 105.772C87.1967 105.139 86.9963 104.436 86.9577 103.715C86.9348 103.312 86.9196 102.916 86.912 102.512C86.9044 102.108 86.912 101.712 86.9272 101.308C86.9424 100.905 86.9577 100.509 86.9958 100.105C87.0339 99.7011 87.0719 99.305 87.1253 98.9089C87.2395 98.0329 87.3385 97.1569 87.4147 96.281C87.5214 94.9784 87.628 93.6835 87.7423 92.3809C87.7575 92.1753 87.7651 91.962 87.7651 91.7487H94.1483C94.1407 91.863 94.1407 91.9849 94.1331 92.1067C94.1255 92.2286 94.1331 92.3352 94.1255 92.4495C94.095 93.0513 94.0569 93.6454 94.0036 94.2472C93.996 94.3386 93.996 94.43 93.9884 94.5138C93.7828 96.9328 93.7065 99.3611 93.7599 101.788C93.7751 102.497 94.0645 103.083 94.6282 103.555C95.5804 104.363 96.6849 104.591 97.9417 104.241C98.6247 104.066 99.2334 103.676 99.6784 103.129C100.039 102.71 100.246 102.181 100.265 101.628C100.379 99.1679 100.466 96.7075 100.524 94.2472C100.539 93.4931 100.554 92.7313 100.57 91.9772V91.7487H106.945L106.961 93.5845C106.968 93.8054 106.968 94.0263 106.976 94.2472V95.4126C106.983 96.8142 107.006 98.2157 107.052 99.6173C107.082 100.608 107.082 101.598 107.044 102.588ZM107.219 88.1762C107.151 87.7427 107.113 87.3049 107.105 86.8661C107.098 86.4776 107.098 86.0891 107.09 85.7006H109.611C109.596 87.3383 109.855 88.1686 110.381 88.1991C110.49 88.2063 110.599 88.1881 110.701 88.1458C111.02 88.0163 111.196 87.6354 111.226 86.9956C111.249 86.3938 111.249 85.754 111.226 85.0684L111.188 84.2991C111.033 84.4091 110.87 84.5084 110.701 84.5961C109.901 84.9694 109.07 84.8704 108.225 84.2991C107.471 83.7887 107.105 83.0803 107.136 82.1663C107.128 82.1129 107.128 82.0596 107.12 82.0063C107.105 81.8159 107.09 81.6178 107.082 81.4198L107.136 76.9865H109.893L109.878 81.4198C109.894 81.5795 109.958 81.7307 110.061 81.8539C110.108 81.9166 110.167 81.9685 110.236 82.0063C110.32 82.0575 110.42 82.0789 110.518 82.0672C110.58 82.0592 110.642 82.0439 110.701 82.0215C110.823 81.9633 110.926 81.8706 110.998 81.7549C111.069 81.6527 111.123 81.5395 111.158 81.4198L111.279 76.9865H114.037L113.999 81.4198C113.976 83.3012 113.961 85.1903 113.938 87.0794C113.938 87.2884 113.923 87.4972 113.892 87.704C113.855 87.9642 113.799 88.2213 113.725 88.4733C113.658 88.7086 113.555 88.9321 113.42 89.136C112.925 89.8673 112.224 90.2862 111.325 90.4005C111.12 90.4233 110.906 90.4386 110.701 90.4462C110.215 90.4538 109.729 90.4078 109.253 90.3091C108.073 90.0425 107.395 89.3341 107.219 88.1762ZM108.72 109.649L108.469 91.7487H114.799L115.56 109.649H108.72ZM117.244 109.649L115.606 76.7504L121.525 76.7809L124.076 109.649H117.244ZM140.72 109.649L140.339 107.631C140.301 107.692 140.255 107.753 140.217 107.813C140.183 107.878 140.142 107.94 140.095 107.996C140.05 108.057 140.004 108.118 139.958 108.171C139.913 108.225 139.867 108.286 139.814 108.339C139.76 108.392 139.715 108.438 139.661 108.491C139.64 108.505 139.622 108.523 139.608 108.545C138.492 109.549 137.063 110.136 135.563 110.205C133.271 110.356 130.989 109.78 129.043 108.56L129.012 108.545C127.415 107.56 126.132 106.141 125.31 104.454C124.307 102.473 123.952 100.227 124.297 98.0329C124.545 96.3034 125.34 94.6988 126.567 93.455C127.126 92.8802 127.784 92.4106 128.51 92.0686C130.308 91.1987 132.347 90.9573 134.299 91.3831C135.761 91.6778 137.133 92.3118 138.305 93.2341L136.63 81.9377H142.723L147.576 109.649H140.72Z" fill="#808080"/>
<path fill-rule="evenodd" clip-rule="evenodd" d="M75.0672 93.5616C76.5221 93.4626 77.4895 92.7695 77.9618 91.4669C78.0758 91.1374 78.0838 90.7805 77.9846 90.4462C77.6495 89.3569 76.8954 88.8085 75.7299 88.7856H73.9627L73.3762 93.4702C73.9332 93.5769 74.502 93.6077 75.0672 93.5616Z" fill="#808080"/>
<path fill-rule="evenodd" clip-rule="evenodd" d="M78.3959 100.63C78.3883 100.516 78.373 100.402 78.3578 100.288C78.305 99.9852 78.1795 99.7003 77.9922 99.4572C77.6849 99.0568 77.2492 98.7743 76.7582 98.6574C76.6529 98.6323 76.546 98.6144 76.4383 98.6041C75.9431 98.566 75.448 98.5432 74.9529 98.5508H72.5382L71.9441 104.111C72.0507 104.172 72.3097 104.21 72.7287 104.226C72.98 104.241 73.2923 104.248 73.658 104.241C74.1836 104.233 74.7015 104.21 75.2195 104.18L75.6004 104.157C75.7281 104.149 75.8553 104.134 75.9812 104.111L76.3621 104.043C76.484 104.012 76.6058 103.982 76.7353 103.944C77.2171 103.799 77.6393 103.502 77.9388 103.098C77.9873 103.036 78.0306 102.97 78.0683 102.9C78.2558 102.513 78.3695 102.095 78.4035 101.666L78.4263 101.323C78.4263 101.209 78.4263 101.087 78.4187 100.973C78.4187 100.858 78.4111 100.744 78.3959 100.63Z" fill="#808080"/>
<path fill-rule="evenodd" clip-rule="evenodd" d="M139.349 99.6782C138.701 97.8273 137.384 96.7558 135.396 96.4638C134.215 96.281 133.171 96.5704 132.25 97.3245C131.724 97.7496 131.352 98.3357 131.191 98.9927C131.153 99.1527 131.115 99.305 131.077 99.465C130.993 101.331 131.777 102.756 133.415 103.738C134.931 104.645 136.447 104.67 137.963 103.814C138.43 103.546 138.817 103.157 139.082 102.687C139.623 101.735 139.715 100.737 139.349 99.6782Z" fill="#808080"/>
</svg>
