<svg width="180" height="180" viewBox="0 0 180 180" fill="none" xmlns="http://www.w3.org/2000/svg">
<path d="M148.675 83.4446L140.525 100.978H137.483L140.2 95.1016L134.708 83.4446H137.865L140.2 88.6192C140.774 89.8512 141.328 91.0264 141.501 91.8415H141.902C142.075 91.0264 142.61 89.8133 143.184 88.5813L145.519 83.4446H148.675Z" fill="#808080"/>
<path d="M129.256 89.6826L134.249 96.4115H130.71L126.443 90.5355V88.8486L130.595 83.4465H134.077L129.256 89.6826Z" fill="#808080"/>
<path d="M124.951 78.6699H122.1V96.4304H124.951V78.6699Z" fill="#808080"/>
<path d="M119.747 87.2185H117.011C116.934 86.2328 115.978 85.5315 114.485 85.5315C113.05 85.5315 112.036 86.1191 112.036 87.1426C112.036 88.0145 112.821 88.4126 114.313 88.5453L116.207 88.7348C118.656 88.9623 120.187 90.1375 120.187 92.3931C120.187 94.9898 118.025 96.7337 114.677 96.7337C111.118 96.7337 109.032 94.8382 108.745 92.3931H111.711C112.017 93.4735 112.897 94.2696 114.677 94.2696C116.609 94.2696 117.336 93.5493 117.336 92.5447C117.336 91.4264 116.552 91.1989 115.384 91.0852L113.452 90.8956C110.486 90.6113 109.185 89.2845 109.185 87.2374C109.185 84.7923 111.328 83.1243 114.504 83.1243C117.68 83.1243 119.632 84.6785 119.747 87.2185Z" fill="#808080"/>
<path d="M107.884 83.1242V85.9864H106.086C103.943 85.9864 102.872 87.3321 102.872 89.6446V96.4303H100.021V83.4445H102.872V84.9609H103.273C104.019 83.8615 104.861 83.1223 106.832 83.1223L107.884 83.1242Z" fill="#808080"/>
<path d="M97.763 89.3033V90.6472H89.8229V88.602H94.9505C94.8357 86.8203 93.7069 85.6451 91.717 85.6451C89.4785 85.6451 88.0436 87.1804 88.0436 89.9478C88.0436 92.8478 89.5933 94.1936 91.6788 94.1936C93.2094 94.1936 94.2808 93.4354 94.7209 92.4119H97.5717C96.902 94.8949 94.7209 96.7525 91.6979 96.7525C88.388 96.7525 85.2119 94.5158 85.2119 89.9478C85.2119 85.3797 88.388 83.1431 91.6979 83.1431C95.2566 83.1431 97.763 85.5693 97.763 89.3033Z" fill="#808080"/>
<path d="M77.8843 83.1243C81.0412 83.1243 83.6815 85.3988 83.6815 89.8911C83.6815 94.3264 80.9455 96.4304 77.5208 96.4304H75.4353V93.7578H77.3677C79.434 93.7578 80.8116 92.6584 80.8116 89.8721C80.8116 87.1237 79.5106 85.759 77.3103 85.759C75.1866 85.759 73.6751 87.0479 73.6751 89.8152V100.961H70.8052V83.4446H73.656V84.961H74.0577C75.0144 83.6929 76.4111 83.1243 77.8843 83.1243Z" fill="#808080"/>
<path d="M68.4708 87.2185H65.7348C65.6583 86.2328 64.7017 85.5315 63.2093 85.5315C61.7744 85.5315 60.7603 86.1191 60.7603 87.1426C60.7603 88.0145 61.5448 88.4126 63.0371 88.5453L64.9313 88.7348C67.3802 88.9623 68.8917 90.1375 68.9109 92.3931C68.9109 94.9898 66.7489 96.7337 63.4006 96.7337C59.8419 96.7337 57.7565 94.8382 57.4695 92.3931H60.4351C60.7412 93.4735 61.6213 94.2696 63.4006 94.2696C65.333 94.2696 66.0601 93.5493 66.0601 92.5447C66.0601 91.4264 65.2756 91.1989 64.1085 91.0852L62.1761 90.8956C59.2106 90.6113 57.9095 89.2845 57.9095 87.2374C57.9095 84.7923 60.0524 83.1243 63.2284 83.1243C66.4045 83.1243 68.356 84.6785 68.4708 87.2185Z" fill="#808080"/>
<path d="M49.7398 83.1243C53.1455 83.1243 55.3457 84.5648 55.2692 87.7681V96.4304H52.4184V95.331H52.0166C50.8251 96.2253 49.3785 96.7229 47.884 96.7526C44.9758 96.7526 43.2156 95.0088 43.2156 92.6963C43.2156 90.2133 45.0523 88.6021 48.3049 88.6021H50.6773V90.6303H48.4006C46.9465 90.6303 46.1812 91.3506 46.1812 92.5068C46.1812 93.7009 47.1569 94.3833 48.5727 94.3833C49.9312 94.3833 51.2896 93.7767 52.4567 92.4499V88.0145C52.4567 86.7067 51.787 85.6263 49.7207 85.6263C48.1136 85.6263 47.2717 86.3086 47.0613 87.2185H44C44.287 84.7354 46.6212 83.1243 49.7398 83.1243Z" fill="#808080"/>
<path d="M37.5331 89.7015L42.5459 96.4304H39.0063L34.7397 90.5545V88.8675L38.8916 83.4465H42.3737L37.5331 89.7015Z" fill="#808080"/>
<path d="M33.2475 78.6699H30.3967V96.4304H33.2475V78.6699Z" fill="#808080"/>
</svg>
