<svg width="180" height="180" viewBox="0 0 180 180" fill="none" xmlns="http://www.w3.org/2000/svg">
<path fill-rule="evenodd" clip-rule="evenodd" d="M123.391 71.8528C123.877 70.1959 123.391 69.0084 121.077 69.0084H113.419C112.701 68.9566 111.985 69.1448 111.383 69.544C110.781 69.9433 110.326 70.5314 110.088 71.2176C110.088 71.2176 106.193 80.8001 100.674 87.0301C98.8908 88.8306 98.0812 89.405 97.1076 89.405C96.6207 89.405 95.9151 88.8527 95.9151 87.1958V71.8528C95.9151 69.8866 95.3681 69.0084 93.7271 69.0084H81.6933C81.4516 68.9942 81.2094 69.0283 80.9807 69.1086C80.752 69.1889 80.5413 69.3139 80.3604 69.4765C80.1796 69.6391 80.0323 69.8361 79.9268 70.0562C79.8214 70.2762 79.76 70.5152 79.746 70.7592C79.746 72.6205 82.481 73.0513 82.7873 78.2926V89.7253C82.7873 92.2217 82.3387 92.6746 81.3651 92.6746C78.7723 92.6746 72.4546 83.048 68.7131 72.0295C67.9747 69.8921 67.2417 69.025 65.2835 69.025H57.6256C55.4376 69.025 55 70.0633 55 71.2342C55 73.2833 57.5982 83.4401 67.0886 96.8721C73.4173 106.029 82.3333 111 90.4452 111C95.3134 111 95.9151 109.895 95.9151 107.99V101.042C95.9151 98.8328 96.3746 98.3909 97.9171 98.3909C99.0549 98.3909 101.002 98.9432 105.542 103.362C110.739 108.631 111.592 110.983 114.513 110.983H122.171C124.359 110.983 125.453 109.879 124.824 107.67C124.195 105.46 121.651 102.345 118.364 98.6119C116.575 96.48 113.9 94.1934 113.091 93.0391C111.953 91.5645 112.276 90.9072 113.091 89.5983C113.091 89.5983 122.39 76.343 123.391 71.8252V71.8528Z" fill="#808080"/>
</svg>
