<svg width="64" height="64" viewBox="0 0 64 64" fill="none" xmlns="http://www.w3.org/2000/svg">
<g clip-path="url(#clip0_131_199)">
<path d="M0 16C0 7.16344 7.16344 0 16 0H48C56.8366 0 64 7.16344 64 16V48C64 56.8366 56.8366 64 48 64H16C7.16344 64 0 56.8366 0 48V16Z" fill="#1E3101"/>
<path d="M14 45.7431V18.4277C14 18.2288 14.0844 18.1293 14.2557 18.1293C14.7101 18.1293 15.2505 18.1223 15.877 18.1082C16.5035 18.0941 17.1793 18.0796 17.9043 18.0647L20.2096 18.0224C21.0207 18.0075 21.8243 18 22.6205 18C24.7831 18 26.6038 18.2711 28.0828 18.8132C29.4181 19.2647 30.6359 20.0094 31.6469 20.9929C32.5041 21.8452 33.1665 22.8735 33.5885 24.0069C33.9881 25.1097 34.1906 26.2743 34.1869 27.4475C34.1869 29.7279 33.6605 31.6088 32.6078 33.0901C31.5481 34.579 30.0587 35.7072 28.3397 36.323C26.4241 37.0132 24.4004 37.3535 22.3647 37.3276C21.7382 37.3276 21.2971 37.3202 21.0414 37.3052C20.7857 37.2916 20.4008 37.2841 19.8893 37.2841V45.7058C19.9018 45.7949 19.8784 45.8854 19.8245 45.9574C19.7705 46.0294 19.6903 46.077 19.6013 46.09C19.5697 46.0949 19.5374 46.0949 19.5057 46.09H14.2979C14.0993 46.085 14 45.9718 14 45.7431ZM19.8893 23.2584V32.1078C20.2585 32.1368 20.5999 32.1509 20.9135 32.1501H22.3213C23.3543 32.165 24.3835 32.0207 25.3727 31.7223C26.2184 31.4708 26.9741 30.9814 27.5502 30.3123C28.1047 29.6574 28.382 28.7456 28.382 27.5768C28.4034 26.7501 28.188 25.9346 27.7612 25.2267C27.3109 24.5412 26.6607 24.0111 25.8991 23.7085C24.9072 23.323 23.8478 23.1415 22.7844 23.1751C22.1016 23.1751 21.497 23.1821 20.9706 23.1962C20.4443 23.2103 20.0813 23.2315 19.8819 23.2596L19.8893 23.2584Z" fill="#99E83F"/>
<path d="M50.0589 41.3298V44.835C50.0589 45.1483 49.9451 45.3336 49.7175 45.3908C49.1572 45.5661 48.5873 45.709 48.0105 45.8185C47.3345 45.9391 46.6488 45.9961 45.9622 45.9889C44.1124 45.9889 42.6616 45.5043 41.6097 44.5353C40.5578 43.5663 40.0314 42.0133 40.0306 39.8762V29.2749H37.5105C37.2833 29.2749 37.1691 29.1505 37.1691 28.8907V24.6544C37.1691 24.4268 37.2933 24.3124 37.554 24.3124H40.0716C40.0997 23.8283 40.1353 23.2655 40.1784 22.6239C40.2218 21.9835 40.2777 21.3419 40.3497 20.7003C40.4217 20.0587 40.4837 19.539 40.5408 19.1411C40.5681 19.056 40.6101 18.9765 40.665 18.9061C40.7203 18.8365 40.7944 18.7843 40.8785 18.7556L45.9622 18.119C46.0394 18.096 46.1221 18.1 46.1968 18.1302C46.2539 18.1588 46.2614 18.2334 46.2614 18.3789C46.2042 19.0345 46.1629 19.9252 46.1372 21.051C46.1116 22.1767 46.083 23.2663 46.0516 24.3199H50.0241C50.1954 24.3199 50.2811 24.4343 50.2811 24.6618V28.9802C50.2912 29.048 50.2746 29.1171 50.2347 29.1728C50.1949 29.2285 50.1349 29.2664 50.0676 29.2786H46.0044V38.4264C46.0044 39.3963 46.1699 40.0876 46.5009 40.5004C46.832 40.9132 47.4366 41.1205 48.3147 41.1221C48.5704 41.1221 48.8112 41.1159 49.0409 41.101C49.2706 41.0861 49.4953 41.0649 49.7237 41.0363C49.7619 41.0222 49.8028 41.0167 49.8434 41.0204C49.884 41.0241 49.9232 41.0367 49.9583 41.0575C49.9965 41.0908 50.0257 41.1332 50.0432 41.1808C50.0608 41.2284 50.0662 41.2796 50.0589 41.3298Z" fill="#99E83F"/>
</g>
<defs>
<clipPath id="clip0_131_199">
<rect width="64" height="64" fill="white"/>
</clipPath>
</defs>
</svg>
