<svg width="64" height="64" viewBox="0 0 64 64" fill="none" xmlns="http://www.w3.org/2000/svg">
<g clip-path="url(#clip0_131_196)">
<rect width="64" height="64" rx="16" fill="white"/>
<path d="M26.4447 34.4472C26.6342 31.0671 28.2895 28.0891 30.7866 25.978C33.2355 23.9045 36.5316 22.6372 40.1281 22.6372C43.721 22.6372 47.0171 23.9045 49.4678 25.978C51.9632 28.0891 53.6184 31.067 53.8096 34.4436C53.9991 37.9168 52.6031 41.1432 50.1542 43.5349C47.6571 45.9677 44.1053 47.4942 40.1281 47.4942C36.1509 47.4942 32.592 45.9677 30.0966 43.5349C27.646 41.1432 26.2535 37.9168 26.4447 34.4472Z" fill="white"/>
<path d="M33.1076 34.7506C33.2048 33.0162 34.0541 31.4882 35.3354 30.405C36.5919 29.3411 38.2832 28.6908 40.1286 28.6908C41.9721 28.6908 43.6634 29.3411 44.9209 30.405C46.2012 31.4882 47.0505 33.0162 47.1487 34.7487C47.2459 36.5308 46.5296 38.1863 45.2731 39.4135C43.9918 40.6618 42.1693 41.4451 40.1286 41.4451C38.0879 41.4451 36.2618 40.6618 34.9814 39.4135C33.7239 38.1863 33.0094 36.5308 33.1076 34.7506Z" fill="#265787"/>
<path d="M21.9272 38.2551C21.9391 38.9338 22.1556 40.2527 22.4802 41.2827C23.1626 43.4629 24.3201 45.4797 25.9307 47.2572C27.5834 49.0842 29.6187 50.5517 31.9694 51.5936C34.4403 52.6878 37.1175 53.2455 39.8984 53.2409C42.6747 53.2372 45.352 52.6686 47.8228 51.5661C50.1736 50.5141 52.2069 49.0402 53.857 47.2123C55.4666 45.4275 56.6223 43.4069 57.3065 41.2268C57.6504 40.1253 57.8678 39.0072 57.9549 37.8855C58.0402 36.7803 58.0045 35.6733 57.8476 34.5671C57.5413 32.4118 56.7956 30.3894 55.6473 28.5458C54.5971 26.8518 53.2434 25.3688 51.6337 24.1205L51.6374 24.1177L35.3932 11.645C35.3785 11.634 35.3666 11.6221 35.351 11.612C34.2853 10.7939 32.4931 10.7966 31.3209 11.6166C30.1359 12.4457 30.0002 13.8169 31.055 14.6818L31.0504 14.6864L37.8256 20.1958L17.1753 20.2179H17.1478C15.4409 20.2197 13.8001 21.3396 13.4754 22.7548C13.1415 24.1966 14.3008 25.3926 16.0756 25.399L16.0728 25.4054L26.5397 25.3853L7.86223 39.7217C7.83838 39.7391 7.8127 39.7575 7.79069 39.7749C6.02878 41.1241 5.45923 43.3675 6.56902 44.7873C7.69531 46.2309 10.0901 46.2337 11.8703 44.7955L22.0638 36.4529C22.0638 36.4529 21.9153 37.5791 21.9272 38.2551ZM48.1209 42.0265C46.0206 44.1663 43.0801 45.3798 39.8984 45.3862C36.7121 45.3917 33.7716 44.1893 31.6713 42.0532C30.645 41.0122 29.8911 39.8143 29.426 38.5385C28.9702 37.2847 28.7932 35.9539 28.9106 34.6112C29.0216 33.2987 29.4123 32.0467 30.036 30.914C30.6487 29.8006 31.4925 28.7944 32.5344 27.9433C34.576 26.2795 37.1753 25.3788 39.8938 25.3752C42.6151 25.3715 45.2125 26.2639 47.256 27.9222C48.2961 28.7696 49.139 29.7721 49.7517 30.8837C50.3781 32.0155 50.7661 33.2629 50.8816 34.5791C50.9972 35.92 50.8202 37.249 50.3643 38.5037C49.8984 39.7831 49.1472 40.981 48.1209 42.0265Z" fill="#EA7600"/>
</g>
<defs>
<clipPath id="clip0_131_196">
<rect width="64" height="64" fill="white"/>
</clipPath>
</defs>
</svg>
