<svg width="64" height="64" viewBox="0 0 64 64" fill="none" xmlns="http://www.w3.org/2000/svg">
<g clip-path="url(#clip0_131_167)">
<g clip-path="url(#clip1_131_167)">
<path d="M48 0H16C7.16344 0 0 7.16344 0 16V48C0 56.8366 7.16344 64 16 64H48C56.8366 64 64 56.8366 64 48V16C64 7.16344 56.8366 0 48 0Z" fill="#FCB642"/>
<path d="M21.6138 29.3339C24.1619 29.3339 26.2275 27.2682 26.2275 24.7201C26.2275 22.172 24.1619 20.1063 21.6138 20.1063C19.0657 20.1063 17 22.172 17 24.7201C17 27.2682 19.0657 29.3339 21.6138 29.3339Z" fill="black"/>
<path d="M42.3862 29.3339C44.9343 29.3339 47 27.2682 47 24.7201C47 22.172 44.9343 20.1063 42.3862 20.1063C39.8381 20.1063 37.7725 22.172 37.7725 24.7201C37.7725 27.2682 39.8381 29.3339 42.3862 29.3339Z" fill="black"/>
<path d="M31.9882 43.8939C31.7248 43.8939 31.4637 43.8882 31.2047 43.8768C27.6068 43.7241 24.1342 42.512 21.2227 40.3928C20.8695 40.1361 20.6327 39.7496 20.5644 39.3183C20.4961 38.8871 20.602 38.4463 20.8587 38.0931C21.1153 37.7399 21.5018 37.5031 21.9331 37.4348C22.3643 37.3665 22.8051 37.4724 23.1583 37.729C25.7279 39.5971 28.8232 40.6032 32 40.6032C35.1769 40.6032 38.2721 39.5971 40.8418 37.729C41.0167 37.602 41.2149 37.5106 41.4251 37.4601C41.6353 37.4096 41.8534 37.401 42.067 37.4348C42.2805 37.4686 42.4853 37.5442 42.6697 37.6571C42.854 37.7701 43.0143 37.9182 43.1414 38.0931C43.2685 38.268 43.3599 38.4662 43.4104 38.6765C43.4608 38.8867 43.4694 39.1048 43.4356 39.3183C43.4018 39.5319 43.3263 39.7367 43.2133 39.921C43.1004 40.1054 42.9522 40.2657 42.7773 40.3928C39.6387 42.6655 35.8633 43.8907 31.9882 43.8939Z" fill="black"/>
</g>
</g>
<defs>
<clipPath id="clip0_131_167">
<rect width="64" height="64" fill="white"/>
</clipPath>
<clipPath id="clip1_131_167">
<rect width="64" height="64" fill="white"/>
</clipPath>
</defs>
</svg>
