<svg width="48" height="48" viewBox="0 0 48 48" fill="none" xmlns="http://www.w3.org/2000/svg">
<rect width="48" height="48" rx="16" fill="#DA2623"/>
<path d="M35.4985 18.5035C35.2225 17.518 34.4092 16.742 33.3766 16.4786C31.505 16 24 16 24 16C24 16 16.495 16 14.6234 16.4786C13.5908 16.742 12.7775 17.518 12.5015 18.5035C12 20.2896 12 24.0162 12 24.0162C12 24.0162 12 27.7428 12.5015 29.5289C12.7775 30.5143 13.5908 31.258 14.6234 31.5214C16.495 32 24 32 24 32C24 32 31.505 32 33.3766 31.5214C34.4092 31.258 35.2225 30.5143 35.4985 29.5289C36 27.7428 36 24.0162 36 24.0162C36 24.0162 36 20.2896 35.4985 18.5035ZM21.5454 27.3996V20.6327L27.8181 24.0163L21.5454 27.3996Z" fill="white"/>
</svg>
