<svg width="48" height="48" viewBox="0 0 48 48" fill="none" xmlns="http://www.w3.org/2000/svg">
<path d="M23.4096 18.3876C23.4096 15.5881 24.3281 14.752 26.6272 14.752C28.9263 14.752 29.8448 15.5881 29.8448 18.3876C29.8448 21.1047 28.9263 22.0288 26.6272 22.0288C24.3281 22.0288 23.4096 21.1047 23.4096 18.3876ZM26.6272 25.9009C23.9486 25.9009 22.9916 27.1164 22.9916 29.751C22.9916 32.3856 23.9486 33.4306 26.6272 33.4306C29.3058 33.4306 30.2408 32.3966 30.2408 29.751C30.2408 27.1054 29.3003 25.9009 26.6272 25.9009ZM44.3543 21.8472V19.8837C44.3543 18.4206 44.1453 17.6836 42.8912 17.6836H41.6372C40.3831 17.6836 40.1741 18.4371 40.1741 19.8837V21.8472H38.2106C36.7475 21.8472 36.0105 22.0562 36.0105 23.3103V24.6468C36.0105 25.9008 36.764 26.1154 38.2106 26.1154H40.1741V28.1009C40.1741 29.564 40.3831 30.301 41.6372 30.301H42.8912C44.1453 30.301 44.3543 29.5475 44.3543 28.1009V26.1374H47.1539C47.268 26.1263 47.3831 26.1398 47.4915 26.1769C47.6 26.214 47.6993 26.2739 47.7826 26.3526C47.866 26.4313 47.9316 26.5269 47.9749 26.633C48.0182 26.7392 48.0383 26.8534 48.0339 26.9679V33.3261C48.0643 34.0277 47.9418 34.7275 47.6749 35.3771C47.4081 36.0267 47.0032 36.6106 46.4883 37.0882L37.1656 46.411C36.6771 46.9267 36.0861 47.3346 35.4306 47.6083C34.7751 47.8821 34.0696 48.0157 33.3594 48.0006H14.7084C13.9989 48.0163 13.294 47.8829 12.6393 47.6091C11.9847 47.3353 11.3947 46.9271 10.9077 46.411L1.55742 37.0882C1.03615 36.6154 0.626582 36.0325 0.358323 35.3818C0.090064 34.7311 -0.0301421 34.0289 0.0064044 33.3261V14.9005C-0.00957891 14.1538 0.128686 13.4117 0.412606 12.7209C0.696526 12.03 1.11999 11.4051 1.65646 10.8854L11.1443 1.2656C11.6195 0.82511 12.1799 0.486587 12.791 0.270914C13.4021 0.0552413 14.0509 -0.0330298 14.6973 0.0115495H33.3484C33.995 -0.0336863 34.6439 0.0542678 35.2551 0.269974C35.8662 0.485681 36.4266 0.824564 36.9015 1.2656L46.3948 10.8854C46.9233 11.4111 47.3414 12.0371 47.6248 12.7265C47.9081 13.416 48.051 14.1551 48.0449 14.9005V20.8957C48.0449 21.5227 47.7534 21.8583 47.1649 21.8583L44.3543 21.8472ZM15.5939 12.816C15.5939 11.6059 14.8404 11.3529 13.3938 11.3529H9.5932C8.13016 11.3529 7.39313 11.6059 7.39313 12.816V14.1965C7.39313 15.4065 8.14666 15.6595 9.5932 15.6595H10.4402C10.9902 15.6595 11.2377 15.951 11.2377 16.7871V34.8497C11.2377 36.3127 11.4852 37.0497 12.7008 37.0497H14.1198C15.3354 37.0497 15.5829 36.2962 15.5829 34.8497L15.5939 12.816ZM34.5695 30.334C34.5695 27.1989 34.3605 24.8338 31.5609 23.7338C33.904 22.0232 33.9424 20.2632 33.9424 18.8441V17.4196C33.6949 12.695 32.1054 10.8964 26.6272 10.8964C21.149 10.8964 19.5595 12.695 19.312 17.4196V18.8441C19.312 20.2632 19.3505 22.0232 21.6936 23.7338C18.894 24.8338 18.685 27.2044 18.685 30.334C18.685 34.9761 20.335 37.2752 26.6272 37.4017C32.9414 37.2862 34.5695 34.9872 34.5695 30.345V30.334Z" fill="#333333"/>
</svg>
