<svg width="48" height="48" viewBox="0 0 48 48" fill="none" xmlns="http://www.w3.org/2000/svg">
<rect width="48" height="48" rx="16" fill="#33ABE0"/>
<path d="M31.9922 15.7357C31.7151 19.2495 30.5158 27.7764 29.9054 31.7118C29.6473 33.3771 29.1389 33.9355 28.6469 33.9901C27.5774 34.1088 26.7652 33.1373 25.7293 32.318C24.1083 31.036 23.1927 30.2378 21.6192 28.9868C19.8009 27.5411 20.9797 26.7467 22.0159 25.4475C22.2871 25.1076 26.9994 19.9361 27.0905 19.4669C27.102 19.4082 27.1129 19.1891 27.0049 19.0741C26.8969 18.959 26.7383 18.998 26.6236 19.0293C26.461 19.0738 23.8716 21.1389 18.8552 25.2246C18.1202 25.8335 17.4545 26.1302 16.858 26.1147C16.2004 26.0976 14.9355 25.6661 13.9951 25.2972C12.8417 24.845 11.925 24.6057 12.0048 23.8375C12.0464 23.4374 12.5031 23.0281 13.375 22.61C18.7439 19.7876 22.3241 17.9269 24.1153 17.0277C29.23 14.4609 30.2927 14.015 30.9854 14.0001C31.1378 13.9971 31.4784 14.0426 31.6991 14.2587C31.8459 14.4125 31.9394 14.6273 31.9612 14.8604C31.9987 15.1499 32.009 15.4435 31.9922 15.7357Z" fill="white"/>
</svg>
